/* XPM */
static char *result[] = {
/* columns rows colors chars-per-pixel */
"64 64 2 1 ",
"  c #ED1387",
". c #542666",
/* pixels */
"........        ................................        ........",
"........        ................................        ........",
"........        ................................        ........",
"........        ................................        ........",
"........        ................................        ........",
"........        ................................        ........",
"........        ................................        ........",
"........        ................................        ........",
"                        ................                        ",
"                        ................                        ",
"                        ................                        ",
"                        ................                        ",
"                                                                ",
"                                                                ",
"                                                                ",
"                                                                ",
"........        ........                ........        ........",
"........        ........                ........        ........",
"........        ........                ........        ........",
"........        ........                ........        ........",
"........        ............        ............        ........",
"........        ............        ............        ........",
"........        ............        ............        ........",
"........        ............        ............        ........",
"............        ........        ........        ............",
"............        ........        ........        ............",
"............        ........        ........        ............",
"............        ........        ........        ............",
"............                                        ............",
"............                                        ............",
"............                                        ............",
"............                                        ............",
"............                                        ............",
"............                                        ............",
"............                                        ............",
"............                                        ............",
"............        ........        ........        ............",
"............        ........        ........        ............",
"............        ........        ........        ............",
"............        ........        ........        ............",
"........        ............        ............        ........",
"........        ............        ............        ........",
"........        ............        ............        ........",
"........        ............        ............        ........",
"........        ........                ........        ........",
"........        ........                ........        ........",
"........        ........                ........        ........",
"........        ........                ........        ........",
"                                                                ",
"                                                                ",
"                                                                ",
"                                                                ",
"                        ................                        ",
"                        ................                        ",
"                        ................                        ",
"                        ................                        ",
"........        ................................        ........",
"........        ................................        ........",
"........        ................................        ........",
"........        ................................        ........",
"........        ................................        ........",
"........        ................................        ........",
"........        ................................        ........",
"........        ................................        ........"
};
