/* XPM */
static char *result[] = {
/* columns rows colors chars-per-pixel */
"64 64 3 1 ",
"  c #8CBE7C",
". c #A6DE95",
"X c #AEE19F",
/* pixels */
"........        ................................        ........",
"........        ................................        ........",
"........        ................................        ........",
"........        ................................        ........",
"........        ................................        ........",
"........        ................................        ........",
"........        ................................        ........",
"........        ................................        ........",
"                        ................                        ",
"                        ................                        ",
"                        ................                        ",
"                        ................                        ",
"                                                                ",
"                                                                ",
"                                                                ",
"                                                                ",
"........        ........                ........        ....XXX.",
"........        ........                ........        ...XXX..",
"........        ........                ........        ........",
"........        ........                ........        ........",
"........        ............        ............        ........",
"........        ............        ............        ........",
"........        ............        ............        ........",
"........        ............        ............        ........",
"............        ........        ........        ............",
"............        ........        ........        ............",
"............        ........        ........        ............",
"............        ........        ........        ............",
"............                                        ............",
"............                                        ............",
"............                                        ............",
"............                                        ............",
"............                                        ............",
"............                                        ............",
"............                                        ............",
"............                                        ............",
"............        ........        ........        ............",
"............        ........        ........        ............",
"............        ........        ........        ............",
"............        ........        ........        ............",
"........        ............        ............        ........",
"........        ............        ............        ........",
"........        ............        ............        ........",
"........        ............        ............        ........",
"........        ........                ........        ........",
"........        ........                ........        ........",
"........        ........                ........        ........",
"........        ........                ........        ........",
"                                                                ",
"                                                                ",
"                                                                ",
"                                                                ",
"                        ................                        ",
"                        ................                        ",
"                        ................                        ",
"                        ................                        ",
"........        ................................        ........",
"........        ................................        ........",
"........        ................................        ........",
"........        ................................        ........",
"........        ................................        ........",
"........        ................................        ........",
"........        ................................        ........",
"........        ................................        ........"
};
