/* XPM */
static char *result[] = {
/* columns rows colors chars-per-pixel */
"64 64 2 1 ",
"  c #F5EF49",
". c #F51818",
/* pixels */
"........        ................................        ........",
"........        ................................        ........",
"........        ................................        ........",
"........        ................................        ........",
"........        ................................        ........",
"........        ................................        ........",
"........        ................................        ........",
"........        ................................        ........",
"                        ................                        ",
"                        ................                        ",
"                        ................                        ",
"                        ................                        ",
"                                                                ",
"                                                                ",
"                                                                ",
"                                                                ",
"........        ........                ........        ........",
"........        ........                ........        ........",
"........        ........                ........        ........",
"........        ........                ........        ........",
"........        ............        ............        ........",
"........        ............        ............        ........",
"........        ............        ............        ........",
"........        ............        ............        ........",
"............        ........        ........        ............",
"............        ........        ........        ............",
"............        ........        ........        ............",
"............        ........        ........        ............",
"............                                        ............",
"............                                        ............",
"............                                        ............",
"............                                        ............",
"............                                        ............",
"............                                        ............",
"............                                        ............",
"............                                        ............",
"............        ........        ........        ............",
"............        ........        ........        ............",
"............        ........        ........        ............",
"............        ........        ........        ............",
"........        ............        ............        ........",
"........        ............        ............        ........",
"........        ............        ............        ........",
"........        ............        ............        ........",
"........        ........                ........        ........",
"........        ........                ........        ........",
"........        ........                ........        ........",
"........        ........                ........        ........",
"                                                                ",
"                                                                ",
"                                                                ",
"                                                                ",
"                        ................                        ",
"                        ................                        ",
"                        ................                        ",
"                        ................                        ",
"........        ................................        ........",
"........        ................................        ........",
"........        ................................        ........",
"........        ................................        ........",
"........        ................................        ........",
"........        ................................        ........",
"........        ................................        ........",
"........        ................................        ........"
};
