/* XPM */
static char *result[] = {
/* columns rows colors chars-per-pixel */
"64 64 236 2 ",
"   c #291808",
".  c #321E0A",
"X  c #331E07",
"o  c #35210C",
"O  c #3B250D",
"+  c #3D290F",
"@  c #3D2913",
"#  c #382615",
"$  c #2F2115",
"%  c #442B0E",
"&  c #482B0E",
"*  c #442C12",
"=  c #482F12",
"-  c #422E1A",
";  c #4C3214",
":  c #4B351B",
">  c #463118",
",  c #523515",
"<  c #553916",
"1  c #5B3B16",
"2  c #543A1B",
"3  c #5B3D1A",
"4  c #523619",
"5  c #4C310F",
"6  c #603E19",
"7  c #603F17",
"8  c #4A3721",
"9  c #4D3924",
"0  c #473824",
"q  c #543D23",
"w  c #593F23",
"e  c #5D401C",
"r  c #63431C",
"t  c #6A461D",
"y  c #6C491E",
"u  c #66481E",
"i  c #704B1F",
"p  c #5C4223",
"a  c #5A452B",
"s  c #5F4932",
"d  c #634523",
"f  c #654924",
"g  c #6C4C23",
"h  c #654C2C",
"j  c #6A4E2B",
"k  c #654525",
"l  c #724E22",
"z  c #784F22",
"x  c #6E522B",
"c  c #6D5026",
"v  c #755224",
"b  c #7B5425",
"n  c #7D5927",
"m  c #73542B",
"M  c #7A562A",
"N  c #7C5A2B",
"B  c #76592D",
"V  c #634C30",
"C  c #6D5333",
"Z  c #6D583B",
"A  c #725532",
"S  c #755833",
"D  c #7B5C33",
"F  c #7B5E3B",
"G  c #765D3B",
"H  c #7D623D",
"J  c #7E6131",
"K  c #796243",
"L  c #7A5F40",
"P  c #815926",
"I  c #835C2A",
"U  c #895E2A",
"Y  c #805725",
"T  c #815D33",
"R  c #86612E",
"E  c #8B632D",
"W  c #92672F",
"Q  c #856333",
"!  c #8B6532",
"~  c #8D6934",
"^  c #83643C",
"/  c #8C6C3C",
"(  c #88683A",
")  c #926730",
"_  c #946C34",
"`  c #996E35",
"'  c #926E3A",
"]  c #9C6E38",
"[  c #957136",
"{  c #9C7136",
"}  c #95723C",
"|  c #9B743B",
" . c #9E793D",
".. c #A2763A",
"X. c #A47B3D",
"o. c #AA7D3E",
"O. c #A07235",
"+. c #836541",
"@. c #856943",
"#. c #8B6C42",
"$. c #8B6F4E",
"%. c #906E42",
"&. c #947342",
"*. c #997542",
"=. c #9D7B44",
"-. c #9B7C4A",
";. c #937549",
":. c #8D7552",
">. c #A47D42",
",. c #AC7E41",
"<. c #A27B46",
"1. c #927E62",
"2. c #A9803E",
"3. c #B0813E",
"4. c #9F8252",
"5. c #A68144",
"6. c #AC8343",
"7. c #A4824B",
"8. c #AD874A",
"9. c #B28443",
"0. c #B48A46",
"q. c #B38C4B",
"w. c #BA8C4A",
"e. c #B58848",
"r. c #B6914C",
"t. c #BB924E",
"y. c #AA8B55",
"u. c #B58F53",
"i. c #AB925D",
"p. c #BC9553",
"a. c #B89659",
"s. c #978162",
"d. c #9B8C76",
"f. c #AD9566",
"g. c #B69A67",
"h. c #A9916F",
"j. c #BEA369",
"k. c #B5A673",
"l. c #C2934D",
"z. c #C29552",
"x. c #C39A54",
"c. c #CA9C54",
"v. c #C39B59",
"b. c #CA9F59",
"n. c #D09F55",
"m. c #C5A15A",
"M. c #CCA35C",
"N. c #CEA056",
"B. c #D4A55B",
"V. c #D8A95D",
"C. c #C9A463",
"Z. c #C7A768",
"A. c #D5AB63",
"S. c #DBAE62",
"D. c #D3AD6A",
"F. c #D5A760",
"G. c #DAB36C",
"H. c #D8B368",
"J. c #C6AB76",
"K. c #C9B478",
"L. c #D7B975",
"P. c #CEB06C",
"I. c #E5BA6C",
"U. c #E3B668",
"Y. c #E5BD71",
"T. c #E9BE70",
"R. c #DBC27B",
"E. c #E5C275",
"W. c #ECC475",
"Q. c #EDCB7C",
"!. c #E7C57A",
"~. c #F1CC7C",
"^. c #F2C674",
"/. c #F4D07F",
"(. c #BBAE92",
"). c #BEB2A0",
"_. c #CAB788",
"`. c #CAB896",
"'. c #D3BC95",
"]. c #C5B9A6",
"[. c #DCC681",
"{. c #DBCB8A",
"}. c #DACA96",
"|. c #D2C895",
" X c #E5CB86",
".X c #EAD289",
"XX c #F4D483",
"oX c #F5DB8C",
"OX c #FADD8B",
"+X c #F8D686",
"@X c #E9D894",
"#X c #F3DB96",
"$X c #E4CC95",
"%X c #FAE08E",
"&X c #F6E293",
"*X c #FAE494",
"=X c #FDE895",
"-X c #FBEC9C",
";X c #F6E89C",
":X c #FEF19F",
">X c #EDE199",
",X c #D3C6AE",
"<X c #D6C8A7",
"1X c #D6CBB8",
"2X c #DED6BA",
"3X c #D1C7B1",
"4X c #EBDAA4",
"5X c #E8D8AC",
"6X c #EBE6A8",
"7X c #F8EAA2",
"8X c #FDF3A4",
"9X c #FBF5AA",
"0X c #FEFAAD",
"qX c #F9F3A9",
"wX c #EBE7B9",
"eX c #F5E9B7",
"rX c #FDFCB4",
"tX c #FDFDBB",
"yX c #F6F3B6",
"uX c #DDD6C8",
"iX c #E4DBCA",
"pX c #E6DFD2",
"aX c #FEFEC4",
"sX c #FFFECC",
"dX c #F6F3C5",
"fX c #EBE6DA",
"gX c #FEFED3",
"hX c #F9F7D9",
"jX c #F2E7CD",
"kX c #EDECE7",
"lX c #F5F4EE",
"zX c #F7F6E6",
"xX c #F6F5F3",
"cX c None",
"vX c #F8F8F5",
"bX c #F2EFE6",
/* pixels */
"cXcXcXcXcXcXcXcXcXcXcXcXcXcXcXcXcXcXcXcXcXcXcXvXxXbXhXdXyXeX6X#X4X#X4XeXeXjXbXvXcXcXcXcXcXcXcXcXcXcXcXcXcXcXcXcXcXcXcXcXcXcXcXcX",
"cXcXcXcXcXcXcXcXcXcXcXcXcXcXcXcXcXcXcXcXcXlXhXeX#X$XJ.i.7.4.} ( / ( #.*.<.u.C._.$XjXxXcXcXcXcXcXcXcXcXcXcXcXcXcXcXcXcXcXcXcXcXcX",
"cXcXcXcXcXcXcXcXcXcXcXcXcXcXcXcXcXcXvXhXeX XZ.-.A q > k J N ~ Q T Q n g v e 4 d B =.Z.}.jXvXcXcXcXcXcXcXcXcXcXcXcXcXcXcXcXcXcXcX",
"cXcXcXcXcXcXcXcXcXcXcXcXcXcXcXcXcXjX$XP.&.k h J f v B _ 5.7.7. .7.` -.=.| } j 1 4 2 w B 7.J.iXcXcXcXcXcXcXcXcXcXcXcXcXcXcXcXcXcX",
"cXcXcXcXcXcXcXcXcXcXcXcXcXcXcXfX$Xa.~ p : c 5.6.<.G K 5.! 5.} N } N } [ ! / / #.J ~ n : 2 j *.J.fXcXcXcXcXcXcXcXcXcXcXcXcXcXcXcX",
"cXcXcXcXcXcXcXcXcXcXcXcXcXxX5Xa.( a B Q / H &._ 8.> * 7.N } / c | M _ Q _ c Q p n _ J ( m d : g 7.'.vXcXcXcXcXcXcXcXcXcXcXcXcXcX",
"cXcXcXcXcXcXcXcXcXcXcXcXfXK.} w e [ 2.Q -.C B n ~ H k } N R Q J n n Q N ! Q / u ~ I D / E R v : : R g.kXcXvXcXcXcXcXcXcXcXcXcXcX",
"cXcXcXcXcXcXcXcXcXcXcXiXu.B : e } } ~ R Q / h / v f a x Q ~ m c ( Q d B E c c M Q / A S P R R D : : g 8.uXcXcXcXcXcXcXcXcXcXcXcX",
"cXcXcXcXcXcXcXcXcXcX<X>.d 2 N B @.&.( v v ( a g T f a V ^ +.F D H D H +.#.A A I n C : / v z / j D y 2 p } ,XcXcXcXcXcXcXcXcXcXcX",
"cXcXcXcXcXcXcXcXcX<X~ w e N ) v x j / ( g 2 p F ^ A m n I P E E E R n N P m D +.@.m k l b B d C e n I w 2 ! <XcXcXcXcXcXcXcXcXcX",
"cXcXcXcXcXcXcXcX,XR : 2 R E R N m C 2 3 D H A m P I R _ _ _ _ _ { _ _ ] ` E E I N F T D l A h Q g R ! I 2 : ! ,XcXcXcXcXcXcXcXcX",
"cXcXcXcXcXcXcX1XI : * x v P R I v d m F G v M E _ ! v M n n E ` _ ~ I P n P _ ` ` U m ^ @.6 g l P U n l B * 2 _ 2XcXcXcXcXcXcXcX",
"cXcXcXcXcXcXfX/ 2 # ; ( B m n R l A ^ l P ) ~ ) _ n } <.=.=.T ! _ ! 7.7.<.<.R ] ` { { R N +.^ b R N m B ( 2 ; q &.fXcXcXcXcXcXcX",
"cXcXcXcXcXxX-.3 - 1 D R _ d l n #.S b E _ ) ) _ ` v | X.X.X.l ) ) n 6.,.9.8.Y ] { _ { { ) Y T %.b y d { W ( f = 3 i.xXcXcXcXcXcX",
"cXcXcXcXcX(.r @ t r 6 ! ! v y %.n n ` [ { ..{ { X.P >.6.o.,.b ] _ P 9.9.9.,.R ....{ { ..` _ U D #.r j ~ ) f g g : l `.cXcXcXcXcX",
"cXcXcXcXiXT - 1 I P y k 3 g @.D E O.o...2.2.....X.I 6.l.0.q.P ..X.E q.w.w.q.R 9.,...X...{ { _ U m L r 2 g l Y P d 2 ! pXcXcXcXcX",
"cXcXcXcXi.3 - i ) ` U Y U ^ T o.,.,.,.,.w.9.,.,.9.` w.c.b.z.U o.6.) l.l.l.w.E 9.e.,.o.X.......{ E m G i z I U U l 2 6 g.cXvXcXcX",
"cXcXcX1Xb - 3 ! U O.,...*.( ,.l.l.l.e...o.o...o.X.I z.V.A.B.b _ ..I b.B.M.q.n { ..9.e.X.o.X.X.O.{ I A ^ U ! Q z T k > ! iXcXcXcX",
"cXcXcXg.6 3 ! w <.p.w.,.( l.S.U.S.c.b.G.G.G.G.S.G.D.G.I.I.I.C.C.D.C.H.S.V.B.a.v.q.O.6.9.o.9.o.o...{ b F U ) n I ` l 2 l Z.cXcXcX",
"cXcXiX{ w ) <.<.! 8.l.' p.^.XX~.^.V.S.OXXX+X+X+X/.+XXXQ.~.~.XX~.Q.^.W.E.G.I.H.S.G.Z.{ ..9.9.0.9.9.O.] N @.P ' *.4 D N p 9.pXcXcX",
"cXcX'.Q T V.B.w.q.a.p.y.OX*X-X=X=XI.!.8X-X*X;X*X&X*X&X*X%X%X+X%X+XXX/.Q.!.W.I.I.S.S.G.<.o.t.l.w.w.9.o.` Q I ! %.( } X.I *.4XcXcX",
"cXbXG.I w.U.T.V.G.Q.u.!.0X0XrXrX0XoX[.yX6XqX9X9XqX8X8X7X;X-X;X@XoX@XoX*XXXXX/.!.T.I.I.C...x.c.c.z.l.w.w._ #.` { o.9.c.w.' @XlXcX",
"cXjXP.~ H.{..X X[.E.Z.rXrXtXaXtXrX0XK.j.j.f.5XaXtXyXrXrXrX6X-.u.y.y.y.j.;XoXoX+X~.~.W.W.q.b.S.A.V.B.c.c.l.] z.n.l.b.L.A.] |.hXcX",
"vXyXi.p.E.K.g.g.!.a.@XaXsXsXsXsXaXaXaX0XrXQ.$XgXaXaXaXtXtX6XM.=XOXOX+X8.J.8X&XoXoXOX+X+XM.N.W.I.I.I.I.U.T.p.8.b.P. Xj.D.l.k.hXvX",
"xXeXy..X;XQ.|.k.XXj.tXaXsXgXsXsXsXsXsXaXsX&X4XgXsXsXsXsXsXeXL.0X0X8XqX%Xi.qXqX;X*X;X&X=XL.S.XX/.~././.XX+XW.p.N.i.i.a.R.Y.i.dXxX",
"zX6Xa.:XrXrX;X@XG.K.sXsXsXsXgXsXsXgXsXaXsX;X4XgXgXgXgXsXgXeXE.0XrXrX0X:XC.6XrX9XqXqX;X8XP.E.&X%X&X&X&X*X*X-XD.V.K.!.&X;X8Xi.wXlX",
"hX<Xa.OX{.;XrXrXP.{.sXaXaXaXaXtXaXaXaXaXaXoX4XgXsXgXsXsXgXwXE.tXrXtXtX:XD.yXtXtXyXrXqX0XK.+X:XqX-X;X-X7X8X0X XL.oXOX8X7X-Xa.|.lX",
"zX|.C..X'.#X>X;XC.&XtXrXrXtXrXrXrXrXrXrXtX.X@XgXaXsXsXsXgXwXL.rXtXrXrX/.}.sXaXaXaXtXtX6XP.0X0X0XrX;XR.L.8XaX6XD. X4X6X}.oXp._.gX",
"hX(.H.{.[.{.|.I.v.=X0X8X:X-X8X8X8X:X-X8X8XW.{.aXtXaXaXaXsXwXa.+X&X.X!.$XsXsXsXaXaXaXgXK.&XrXtXaXtX8XR.@X9XaXyXZ.!.j._.f. Xc.k.aX",
"sXk.E..X[.%XXX/.x.OXOXW.W.T.W./.W.W.Y.Q.*XA.R.rXqXqXrXrXtXtX6XyXeXeXdXgXgXsXgXsXgXgX(. XtXtXaXaXaXtX9X>XrXaXtXP.Y. X_. XoXA.f.yX",
"dXf.R.=X=XOX+XI.q.^.A.G.D.D.b.w.D.u.v.A.U.l.D.=XOX*X-X7X8X0XrXrXtXaXaXaXsXsXsXgX2Xi.!.rXtXaXsXsXaXaX.Xg.@XtXrXJ.T.!.XXXXOXF.7.7X",
"dXi.A.+X XG.A.6.<.c.l.<.U Q 8.v.T b y q.0.O.p.^.W.XXXXoXoX*X8X8X0XrXtXrXtXaXaXaX5X}..X&X0XrXaXsXaXtX;X@X8XrX0XC.D.!. XY.Y.w.*. X",
"dXi.,.g.;.-.' ' ' ,...' z b ) O.*.Y T ] U I ,.V.B.S.U.U.W.Q.L.L.[.{.$XqXrXrXrXtXaXsXyX@X.X8XrXtXtXrX&X X7X8X-Xb.e.Z.D.Z.C.` &.Y.",
"dXu.) v.v.u.,.z ] O.P ) T Q l 7 M T T l I z U ,.9.w.l.c.B.C.v ] X. .*.*.{.8X8XqXyX9XrXtX@XW.-X9X0X8XL.y.!.OXXXz.b.n.l.e.9...%.L.",
"eXi.) ..] ) P Y ( U U i g 6 i i 6 1 4 6 Y 6 z ) ` O.O.o.9.,.I e.x.c.n.l.( [.%X&X=X-X-X7X9XL.I.=X;X*XE.G.T.~.U.,.u.l.,.<.e.U *.L.",
"yXg.b ] ) U ' 6 T z Y z i l i t g 6 t t t 4 g Y b Y U W _ _ i ] X.o.3.l.O./ W.W.Q.XX+X+XOX.Xw.I.~.I.r.a.F.S.l.*.! 8.] T ( l ' _.",
"wXC., m k j k 4 C g t t t r r 7 6 6 6 6 6 & w t y i l z n b , b U U ) ] _ l c.B.F.S.I.I.I.W.8.l.S.c.X.' 9.w...( I P k T z 1 *.'.",
"2Xc.- = k A A 4 k g 6 6 r 1 1 1 , < , 5 = % 4 6 3 6 6 6 t t * 6 l i z P b k X.,.e.w.l.z.c.c.,.] w.0.o.o.X.O.U M z Y t k q w ] ].",
"pXu.: O k , ; O 4 x 5 6 1 < , , , ; = = % . , , , 1 1 1 1 1 O < 6 6 t g 1 M ] ) ) ` O.,.,.,.U b O.O.{ ` ` b D q A t 6 6 , k ] pX",
"lX<.w O % % 3 k . A = , , , , ; = = & & * . & , ; 5 ; , , < o 5 1 1 1 4 % N z b b Y U U W ` g y P I I P Y t x O q j 4 3 & w <.xX",
"cXh.6 # = k k : # 9 e & ; , ; = & & . X     - = 5 = 5 = ; :   o % O X * A y 3 t y y z l z b ; r i l l l r k q @ q q V : . k h.cX",
"cX].g # . > 8 8 4 $ h + ; ; = = % O q a w q 4 = * 5 > 5 = = 0 a V V V A r , 3 1 7 6 6 r y < & 6 t 6 6 r , C # > 6 4 w . # g ].cX",
"cXfXx 8   4 > O o   s > & ; ; & % . : 1 2 2 & * > * * 5 5 = e e 2 2 3 ; ; , , < , 1 3 1 2 O , 3 6 1 1 3 3 h o @ . & & . 8 m fXcX",
"cXcX1.w $ O . . @ : $ C O ; ; = = o - = & & ; = 5 = 5 * = ; + * ; = = ; ; ; ; ; , , 1 4 . * , , , 1 3 = A # : - : ; ; # 3 1.cXcX",
"cXcX3Xr 8 O : w 2 @   s e * ; 5 ; + , < , ; < ; < , ; 5 ; ; < < , , ; ; , ; < < < 4 # o % ; < , ; , = p V o : > q q o : t ].cXcX",
"cXcXcXK w $ = 4 . . : $ H ; , , < > = * * * * * * @ < e e 2 @ + * * < < < 2 * + o . + ; ; , < < , , = F * + > > # * o a +.cXcXcX",
"cXvXcX].d 9 . = 4 > @ : @ @.5 e e 1 ; + * * * @ + o e r e e . + # o e e r 3   * = : < 3 < < 3 3 3 & F 8 ; 1 ; * 4 . 0 r ].cXcXcX",
"cXcXcXcX$.f * 2 p @ @ j > V H , u g u u y y y f u , l v v v ; r r , v g l u * u r r r t r r u u 5 C h , u r r e ; @ d $.cXcXcXcX",
"cXcXcXcXuXm a = k m e > g r D D y n n N I N N N R r N ! Q J e n N e R R R n < n M v v n M v v u A C 3 l v l l g , a m uXcXcXcXcX",
"cXcXcXvXcXk.T q < d < N ~ E v G / R ~ } | | | | | b [ 2.2.2.v |  .v  .2.5.~ f [ [ ~ [ [ ~ ~ N ( S g U U Q R R v a R k.cXvXcXcXcX",
"cXcXcXcXcXkXy./ p N ~ X.5.2.6.[ / -. .6.r.r.t.t.p.~ r.M.m.a.Q r.r.! p.m.M.6.R t.q.6.r.r.2.| / / _ { ( Q  .2.[ j #.i.kXcXcXcXcXcX",
"cXcXcXcXcXcXuXp.;.B X.t.x.t.v.v.r.;.;.r.t.x.m.m.m.5.[ } [ / 2.x.p.2./ ' ' ( 5.m.m.p.p.p.7./ / q.r.} Q } r.q.B ;.a.iXcXcXcXcXcXcX",
"cXcXcXcXcXcXcX1XC.#.J t.m.p.r.2.r.p. .@.-.5.8.r.p.p.5.[  .2.r.r.r.r. .[ [  .r.p.r.2.5.4.^ ' q.8./ J } 8.r.~ +.m.1XcXcXcXcXcXcXcX",
"cXcXcXcXcXcXcXcX|.t.H J 8.6.[ m Q  .r.2.^ H &.5.2.2.6.6.q.r.r.r.q.q.q.5.6.6.6.6. .^ H R  .5.} J x ~ 5.6.J H a.`.cXcXcXcXcXcXcXcX",
"cXcXcXcXcXcXcXcXcX`.u.K B [ 2.J J ~  .| ..~ Q ^ #.} } } 5.5.2.2.2.5. .| [ } &.;.H J ~ 2. .J A B ~ 5.2.B H r.`.cXcXcXcXcXcXcXcXcX",
"cXcXcXcXcXcXcXcXcXcX`.r.@.p [ 2.| [ c m ( _ |  .[ H H H ;.#./ #.( / / H H H /  . . .[ [ ~ B l ! X.| x @.r.`.cXcXcXcXcXcXcXcXcXcX",
"cXcXcXcXcXcXcXcXcXcXcX3Xr.;.C Q 6.X.Q J j p B [ 6.2.5.2.5.5.&.} / } } 5.2.6.r.r. .B x D | =. . .Q A -.p.,XcXcXcXcXcXcXcXcXcXcXcX",
"cXcXcXcXcXcXcXcXcXcXcXcXuXj.u.H N | 6.>.R x f H ( / } 5.5.r.8.r.q.r.6.5.} } } 5./ H m ~ 8.r.[ j H a.Z.uXcXcXcXcXcXcXcXcXcXcXcXcX",
"cXcXcXcXcXcXcXcXcXcXcXcXcXkX'.m.7.G J |  .~ [ ( ~ B c h B f J B J B C h C u J [ [ R _ _ ~ J C #.p._.lXcXvXcXcXcXcXcXcXcXcXcXcXcX",
"cXcXcXcXcXcXcXcXcXcXcXcXcXcXcXuXk.7.^ C p e n ~ ~ R J f f e e 2 p e e e e c n J I v r a h J } f.uXcXcXcXcXcXcXcXcXcXcXcXcXcXcXcX",
"cXcXcXcXcXcXcXcXcXcXcXcXcXcXcXcXxX3Xy.^ h a 0 e e e c u p f e e e e e e e e e : 9 q a f D 4.].vXcXcXcXcXcXcXcXcXcXcXcXcXcXcXcXcX",
"cXcXcXcXcXcXcXcXcXcXcXcXcXcXcXcXcXcXxX3Xs.J p a p a p e @ # + # + + @ # @ a 0 p q w B 1.3XvXcXcXvXcXcXcXcXcXcXcXcXcXcXcXcXcXcXcX",
"cXcXcXcXcXcXcXcXcXcXcXcXcXcXcXcXcXcXcXcXcXfX).s.Z a e a a a 0 0 0 0 0 a 0 p f G 1.(.fXcXcXcXcXcXcXcXcXcXcXcXcXcXcXcXcXcXcXcXcXcX",
"cXcXcXcXcXcXcXcXcXcXcXcXcXcXcXcXcXcXcXcXcXcXcXcXkXuX(.d.K K Z C C Z K :.d.).uXlXcXcXcXcXcXcXcXcXcXcXcXcXcXcXcXcXcXcXcXcXcXcXcXcX"
};
