/* XPM */
static char *result[] = {
/* columns rows colors chars-per-pixel */
"64 64 242 2 ",
"   c #060704",
".  c #12130E",
"X  c #191B17",
"o  c #0A100B",
"O  c #3B0208",
"+  c #230A0A",
"@  c #1E221F",
"#  c #22221D",
"$  c #34221F",
"%  c #2A2B26",
"&  c #272925",
"*  c #32312D",
"=  c #383432",
"-  c #171E20",
";  c #480209",
":  c #550407",
">  c #460A16",
",  c #4A151C",
"<  c #57141A",
"1  c #540F12",
"2  c #760808",
"3  c #681619",
"4  c #771818",
"5  c #700C0F",
"6  c #4B1822",
"7  c #571C23",
"8  c #731D21",
"9  c #552328",
"0  c #592D35",
"q  c #483B3A",
"w  c #59343A",
"e  c #4B292D",
"r  c #6A2527",
"t  c #792527",
"y  c #6A2B31",
"u  c #683638",
"i  c #763636",
"p  c #7E3030",
"a  c #75231F",
"s  c #3C403E",
"d  c #43413E",
"f  c #4E3E42",
"g  c #633C41",
"h  c #7F3D40",
"j  c #3C4544",
"k  c #464846",
"l  c #564546",
"z  c #585958",
"x  c #4E5151",
"c  c #684548",
"v  c #754547",
"b  c #774E51",
"n  c #685859",
"m  c #775659",
"M  c #6C655D",
"N  c #6F5E68",
"B  c #676466",
"V  c #766B6D",
"C  c #6C6976",
"Z  c #79787A",
"A  c #767071",
"S  c #860D0B",
"D  c #861817",
"F  c #931D1B",
"G  c #971816",
"H  c #A41815",
"J  c #94211E",
"K  c #A3211E",
"L  c #8B2324",
"P  c #852728",
"I  c #952523",
"U  c #942B2B",
"Y  c #982726",
"T  c #87312E",
"R  c #893837",
"E  c #953635",
"W  c #97322E",
"Q  c #A62825",
"!  c #A43937",
"~  c #B43330",
"^  c #8F1E20",
"/  c #C51917",
"(  c #C8312E",
")  c #CF2D2B",
"_  c #A2423F",
"`  c #903E41",
"'  c #864849",
"]  c #974746",
"[  c #86585A",
"{  c #995959",
"}  c #9B504F",
"|  c #A64B49",
" . c #A45958",
".. c #B55855",
"X. c #B4645E",
"o. c #AC615E",
"O. c #81686D",
"+. c #986767",
"@. c #847876",
"#. c #9A7878",
"$. c #8B706E",
"%. c #A86766",
"&. c #B36B68",
"*. c #AB7676",
"=. c #B67A78",
"-. c #B67369",
";. c #CE716F",
":. c #CB544C",
">. c #7F817C",
",. c #8A847A",
"<. c #9A867B",
"1. c #B2827E",
"2. c #D78C7E",
"3. c #797B87",
"4. c #747E92",
"5. c #6D768C",
"6. c #807F80",
"7. c #AE7E80",
"8. c #7E838B",
"9. c #7B859A",
"0. c #798497",
"q. c #898689",
"w. c #968987",
"e. c #98928A",
"r. c #8C8C94",
"t. c #828898",
"y. c #979598",
"u. c #908F99",
"i. c #AA8A89",
"p. c #B78989",
"a. c #AA968D",
"s. c #BD938D",
"d. c #A69597",
"f. c #BD9898",
"g. c #A7A39D",
"h. c #B8A897",
"j. c #858CA4",
"k. c #888EA8",
"l. c #9B9CA4",
"z. c #8791A0",
"x. c #AA9EA1",
"c. c #A4A3A4",
"v. c #A7A8AB",
"b. c #B8A8A7",
"n. c #ABACB2",
"m. c #AEB2B7",
"M. c #B2B2B5",
"N. c #B8B8BB",
"B. c #B8B2AF",
"V. c #9BA3B1",
"C. c #C68A86",
"Z. c #CE9894",
"A. c #C9A597",
"S. c #D3AB9E",
"D. c #EDB19B",
"F. c #CAA8A6",
"G. c #D4ABA7",
"H. c #C5BBBA",
"J. c #CFB5B1",
"K. c #F4BDAA",
"L. c #F3B8A3",
"P. c #E0BABB",
"I. c #DBC7B4",
"U. c #D4C4B2",
"Y. c #F3C1AE",
"T. c #E9C6B9",
"R. c #F4C4B3",
"E. c #F3C9B6",
"W. c #F4CBBC",
"Q. c #F9CEBE",
"!. c #F9C6B5",
"~. c #F5D6BF",
"^. c #E7D1B8",
"/. c #BCBDC1",
"(. c #CABCC0",
"). c #BEC4C3",
"_. c #BDC7D0",
"`. c #C4C4C5",
"'. c #C5C6C9",
"]. c #CBCBCD",
"[. c #C9C7C8",
"{. c #DCCDCA",
"}. c #D7C9C6",
"|. c #CECED1",
" X c #C7CED2",
".X c #D0CFD1",
"XX c #CDD2D6",
"oX c #D3D3D4",
"OX c #D6D5D9",
"+X c #D9D6DB",
"@X c #DCDBDD",
"#X c #DBD7D6",
"$X c #D7D1CC",
"%X c #E4CCC7",
"&X c #F4CEC1",
"*X c #F9CFC1",
"=X c #EBD3C9",
"-X c #F5D2C4",
";X c #F9D3C5",
":X c #F5D6CA",
">X c #F9D6CA",
",X c #F5DACD",
"<X c #F9DACD",
"1X c #F7D8C7",
"2X c #E6DBD8",
"3X c #F6DDD2",
"4X c #F9DED3",
"5X c #F8DFD8",
"6X c #DDE0DF",
"7X c #E6E0DE",
"8X c #F6E0D6",
"9X c #FAE1D6",
"0X c #F6E4DB",
"qX c #F9E5DB",
"wX c #FBE8DE",
"eX c #F7E8DF",
"rX c #F8E4C6",
"tX c #DCDDE2",
"yX c #E1DFE2",
"uX c #DCE2E4",
"iX c #DDE6EA",
"pX c #E3E4E4",
"aX c #E5EAEC",
"sX c #EDEDED",
"dX c #E8E6E6",
"fX c #F6EBE3",
"gX c #FAEBE4",
"hX c #F3EEEC",
"jX c #FAEFE9",
"kX c #F9E6E0",
"lX c #EFF0EE",
"zX c #FCF0E6",
"xX c #F1F1EE",
"cX c #FBF2EC",
"vX c #FFF8EE",
"bX c #E9F3F4",
"nX c #F3F3F2",
"mX c #FBF6F2",
"MX c #FCF9F6",
"NX c None",
"BX c #F5F9FA",
"VX c #F0EFF2",
/* pixels */
"NXNXNXNXNXNXNXNXNXNXNXNXNXNXNXNXNXNXNXNXNXNXNXNXNXNXNXNXNXNXNXNXNXNXNXNXNXNXNXNXNXNXNXNXNXNXNXNXNXNXNXNXNXNXNXNXNXNXNXNXNXNXNXNX",
"NXNXNXNXNXNXNXNXNXNXNXNXNXNXNXNXNXNXNXNXNXNXNXgX9X4XqXMXNXNXNXNXNXNXNXNXNXNXNXNXNXNXNXNXNXNXNXNXNXNXNXNXNXNXNXNXNXNXNXNXNXNXNXNX",
"NXNXNXNXNXNXNXNXNXNXNXNXNXNXNXNXNXnXgX9X<X>X;X>X;XQ.<XMXNXNXNXNXNXNXNXNXNXNXNXNXNXNXNXNXNXNXNXNXMXcXNXNXNXNXNXNXNXNXNXNXNXNXNXNX",
"NXNXNXNXNXNXNXNXNXNXNXNXNXNXNXmX3X-X;XeX0XW.Y.!.!.0XNXNXMXBXBXNXNXNXNXNXNXNXNXNXBXBXNXNXNXNXNXNXNXjXeXmXNXNXNXNXNXNXNXNXNXNXNXNX",
"NXNXNXNXNXNXNXNXNXNXNXNXNXcX3X&X,XcXjX8XQ.Y.3XkXNXNXNXxXdXsXaXdXsXBXNXNXNXnXsXdXaXaXsXaXsXNXNXNXNXNXcX0XNXNXNXNXNXNXNXNXNXNXNXNX",
"NXNXNXNXNXNXNXNXNXNXNXNXNXmX-XkXNXkXY.K.;XqXNXNXNXNXNXnXsXlXlXlXsXdXnXNXsXdXnXnXsXlXhXhXsXdXMXNXNXNXNX9X;XvXNXNXNXNXNXNXNXNXNXNX",
"NXNXNXNXNXNXNXNXNXNXNXNXcX9XK.>X3XW.E.gXNXNXNXNXNXNXNXNXsXsXsXlXsXsXr.N.lXBXOXoXlXlXsXlXlXsXsXNXNXNXNXNX:XW.kXNXNXNXNXNXNXNXNXNX",
"NXNXNXNXNXNXNXNXNXNXNX0XE.-XW.Y.>XqXmXNXNXNXNXNXNXNXNXNXsXsXsXsXsXdXC N.sXl.y.OXlXsXlXsXsXnXoXsXNXNXNXNXgX>X4XcXNXNXNXNXNXNXNXNX",
"NXNXNXNXNXNXNXNXNXcX,X:XfXNXNXfX-XjXNXNXNXNXNXNXNXNXNXNXxXsXlXsXnXoXr.#Xc.[.nXnXlXlXsXlXsXBX[.|.NXNXNXNXNXkX;XcXNXNXNXNXNXNXNXNX",
"NXNXNXNXNXNXNXjX:XR.:X0XNXNXNXNXMXNXNXNXNXNXNXNXNXNXNXMXnXaXlXlXnX`.`.|.sXBXsXsXlXsXsXsXlXnXoXN.NXNXNXNXNX9X,XNXNXNXNXNXNXNXNXNX",
"NXNXNXNXNXNX0X&XR.:X8XmXNXNXNXNXNXNXNXNXNXNXNXNXsX$XB.$XaX6XlXlXlX+XdXnXsXsXlXsXVXsXVXsXsXnXOXn.NXNXNXNXNX,X5XNXhXsXNXNXNXNXNXNX",
"NXNXNXNXNXNX1X8XgXcXgXNXNXNXNXNXNXNXNXNXNXNXNXnXdXlX[.,.g..X7XlXpXsXlXsXnXnXsXsXsXlXsXVXlXnX|.M.NXNXNXNXNXNXmXNXsXsXNXNXNXNXNXNX",
"NXNXNXNXNXNX9XeXNXNXNXNXNXNXNXNXNXNXNXNXNXBXNXBX@XoX6X#Xe.n.v.M.dXnXlXsX@X@XnXsXhXlXsXsXsXnX].M.nXNXNXNXNXNXNXlXdXsXBXNXNXNXNXNX",
"NXNXNXNXNXNX4XkXNXNXNXNXNXNXNXNXNXNXNXNXBX6XU.g.g.pXg.v.y.,.,.'.sXtX#X/.n.y.`.nXsXsXlXVXhXBX].[.nXsXMXNXNXNXxXsXsXsXNXNXNXNXNXNX",
"NXNXNXNXNXNXkX>XNXNXNXNXNXNXNXNXNXNXNXNXB.,.,.,.,.Z e.>.A ,.g./.].pXsXlXnXnX|.sXVXlXsXsXsXnX].pXnXsXaXhXsXsXsXsXsXsXMXNXNXNXNXNX",
"NXNXNXNXNXjX;XeXNXNXNXNXMXoX2X7X2Xp.A.).e.e.,.q.<.,.y.,.,.g.sXnXxXlXlXnXnXlXsX].sXlXlXsXsXVX#XsXsXsXnXtXdXVXsXsXsXsXNXNXNXNXNXNX",
"NXNXNXNXNX3X-XNXNXNXNXlX@X6Xb.' R S x.`.I.I.A.e.e.@.M ,.q.OXlXdXsXnX#X/.].aXMXoX+XnXsXsXsXsXdXhXsXnX#Xu.sXsXsXsXsXsXNXNXNXNXNXNX",
"NXNXNXNXNXkX-XmXNXpXnX@XM.xX[.l < v b.w.I.^.U.e.,.e.V y.n. X.X7X[.M.dX.Xl.3.v.nXsXlXsXsXlXpXsXsXsXBXr.M.BXsXVXhXsXsXMXNXNXNXNXNX",
"NXNXNXNXNXNX,X3XNX|.`.w.@.c.n.[.7X<.! @.S.h.U.a.a.<.g r. X X|.n.tXN.t.sXmXtXu.|.nXsXsXnXaXpXVXsXxXuXr.lXlXlXsXsXsXnX4XNXNXNXNXNX",
"NXNXMXgXNXNXMXcXNXNXpXy.b.oX).7XMX$.V $.A.rXrXh.<.% w [ #.| _  .V aXM.m.mXnXsX'.nXsXMXoX`.hXsXsXBX[.|.sXsXlXlXsXsXMXW.gXNXNXNXNX",
"NXNXcXwX3XcXNXNXNXmXB.a.=XkXmXNX@Xe.#.a <.rXrXh.N z } ' Q ) ) K L V  X(.nXsXsX@XnXVXM.l.sXsXsXnXdXdXuX'.nXsXlXsXVXNX,X3XNXNXNXNX",
"NXNXgXR.9X;X9X0XE.Y.a.N.NX&X3XNX6Xi G u x 1.M d x X.U ` Q ~ ~ I Y F V n.sXhXsXlXpXu.v.VXmXBXsX.X@XnX'.|.nXsXsXdXNXMX3X:XNXNXNXNX",
"NXNXfX&XfXvX-XR.:X].v.pXcXE.cXNXNXO.: c d r b z c U R i D ^ 8 8 F E 6.r.oXsXtXM.6.|.NXsXoX/.M.+XxXxXOX6XxXlXsXnXNXMX0XW.cXNXNXNX",
"NXNXmX:X3XNXNXnXaXn.].BX<XY.mXNXNXNXa.d M T R E { ^ t 0 : < > 1 T u.m.b..XVXVX|.'.M.u.q.l.].sXnXlXsXdXdXxXsXsXNXNXNX9XK.eXNXNXNX",
"NXNXNX,X&XMXNXsXN./.pXNX>XW.MXNXNXNXNXe.[ Y i y i t 5 b g > > 7 b M.[..XpXOXM.l.t.3.C /.MXVXsXsXsXnXpXsXsXsXMXNXNXMXR.eX3XMXNXNX",
"NXNXMX-X0XNXnXOXl.uXsXNX:X4XNXNXNXMXNXdXi.E D t F E  .] +.x f 6.y.|.OX[.tXoXr.C N 3.3.3.dXVXhXnXnX[.n.nXdXxXMXNXNX;XE.5XkXNXNXNX",
"NXNXNX9XMXBXyXv./.VXBXNX*X*XgXjXmXNXMXNXNXf.2 4 Y W u 3 g f - & x r.H.pXVXBXMXyX].|.'.6.u.pXpX'.y.3.[.xXlXMX0XNXMX3XW.5XNXNXNXNX",
"NXNXNXkXcXsX|.y.tXsXNXNX4X>X<X4XqXMXNXyX}.NXF., 3 4 T 0 > g f 9 6.n.tXVXVXBXNXBXNXMXaXdXu./.hX+XOXsXsXlXNXNX9XNXNXNX,XqXNXNXNXNX",
"NXNXNXcX3XOXOXOXtXnXNXNXvXfXNXhX2XNX}.%.E A.NX+.: > 1 > > > > > d.'.yXaXVXBXC.%XNXBX2XyXaXN.nXnXxXjXNXNXNXcX9XNXNXNX;XcXNXNXNXNX",
"NXNXNXNX2XOX@XtXpXNXNXNXNXNXNX*. .=.D +.' S P D t D 3 < 3 3 < 6 x./.tXyXBXG./ ;.VXNXZ.~ #XoXdXNX0XcXNXNXNXqX4XMXNXcX-XNXNXNXNXNX",
"NXNXNXNXaXtXOX#XMXNXNXNXMXNXJ.F F G D d.' 8 < y n c P t Y P 7 X 3./.XXtXaXZ.:.( :.;.:./ C.OX'.mX-XMXNXNXMX>XW.W.,X-X:XMXNXNXNXNX",
"NXNXNXNXpX+X}.:X0XMXNX0XvXNXs.W Y ! %.v t W G  .$.g q q f * & z n m /.+XtXiXbXG.( ) ( F.oXtX'.xX>XNXNXMX-X<XqX0X-X,X-XcXNXNXNXNX",
"NXNXNXMXuX{.3XMX&X8XNXqXhXNXF.} G R R U *.L r V +.S P p 3 *.M.{ > 1 i.XXtXOXOXiXX.( ~ J.tX+X}.P.R.%XhX5X;X0X9XNX;XcX4X0XNXNXNXNX",
"NXNXNXBX2X-XMXNXkXW.0X<XeXNXU.' P R G ] n n k < [ +.L S *.b.W G 4 ; ' '.OXOXtXoX_ Q K | +X+XP.&.Y W | ,X4X9XcXmXW.MXcX:XNXNXNXNX",
"NXNXNXBX-X4XNXNXNXkX-XW.qXNXlX[ [ v r M * # X a X.1.s.i.O.u G Y U b V _.tXOXOXi.^  .*.L %.tX+Xb.s. .! ;XkX>XNXcX:X3XeX-XNXNXNXNX",
"NXNXNXNX0XR.*XcXNXNX0X-X4XNXNXhX2Xq.k = % % $ ` ~ H E %.3 n D -./.#.n x.yX[.` I ` OXaXJ.P %.tX+Xi.Q 2.qXBX<X3X<X0X:X:X1XMXNXNXNX",
"NXNXNXNXMXR.Q.;XeXcX!.E.hXNXNXNXy.% # & % & e } J G ` p + s Z B...S N 3.v.iX7.D } tXOXyXB.U ;.W.G.X. .MXNXNXMX0X,XcX,X0XNXNXNXNX",
"NXNXNXNXNXwX4XNX4X<XMXkXcXNXxXM . $ & # % @ $ +.t r m u X   j o.H ! @.4.4.V.yX7.{ OX+XOX%XD.X.C.8Xy.7 J.2XNXNXmX-XMX-X,XNXNXNXNX",
"NXNXNXNXNXjX-XmX-XgXNXNXNXNXZ . * % # % X o , R [ ' y A.A & $.t J K ' q.j.4.k.tXtXtX+X+X{.#XC.L *.bXw.: {.NXNXgX,XNX8X5XMXNXNXNX",
"NXNXNXNXNX0X&XW.4XNXNXNXNXNXB X % # & # d m.F.S T o.2 s.XX* m ; 3 5 ` q.4.j.4.4.m.tXtXOX+X+XtX} D p.iXq.hXNXNXmXeXNXeX3XmXNXNXNX",
"NXNXNXNXNXNX0X-XcXNXNXNXNXNXn . * # X X $XNXNX .*.}.{ } NXx q c ; O.@.u O.r.r.8.0.l. XtXtXOXtX(.E L p.tX'.MXNXgXvXNXjX,XjXNXNXNX",
"NXNXNXNXNXNX:XR.mXNXNXNXNXNXw.* . . X   r.NXNXF.L C.1.2 P.'.+ [ r.[ 5 D L [ 8.B l w n l. XtXOXtX7.L P f.XXy.fX;XnXNXMX-XkXNXNXNX",
"NXNXNXNXNXMXR.;XkXMXNXNXNXNX$X<.A @ o @ a.NXNX}.S } i.S o.NXk : Z. .5 4 D G t ; ; O > e Z m.XXyXtX` U T `.3.N.gX-X<XcX:X0XNXNXNX",
"NXNXNXNXNXcXW.0X<XeXNXNXcXmXNXG.{ l c E ;.NXNX2Xt 4 y F R MXM.o 9 i.[ b [  . .' h t < ; > N t.V./.f.L I m 4.r.NXMX3XW.eX0XNXNXNX",
"NXNXNXNXNXcXW.vXgX;XNXNX-XcXNXNXZ.Q Q G } qXkX%X4 4 L D t &XcXz X & q v i y r p } &.&.%.c 0 A 4.4.9.C g > C 5.2XNX8X;XfXqXNXNXNX",
"NXNXNXNXNX0X:X:X0XzXNX9X<XNXNXNXnXv r 3 9 T.qX:X=.F G R F.>XwXU.# % # X X X     u E -. .&.u w 0.9.4.4.4.C C 5.N.NX0X-X:XqXNXNXNX",
"NXNXNXNXqX,XnX3XNXMX4XW.MXNXMXfXqXC.[ 0 O i.cX,XzXC.o.=XwX9X,X9Xw.X # X * . k k l ! G.-XS.S.&Xx.4.k.4.4.9.9.5.l.NXjX:X-X4XNXNXNX",
"NXNXNXNX0XK.gX8X0XR.Q.NXMXfXeX,X9Xs.2 v O [ gX4XgXNXNXNXNXNXNXNXNXZ o # X z i.@.] I U dXNXmXjXI.4.k.k.k.9.t.9.t.MXMX:X,XNXNXNXNX",
"NXNXNXNXMX>XR.3XY.R.mXwX;X:XcXcX=X[ g 0 O a.NXNXNXNXMXNXNXNXNXNXNXMXg.= n *.+. .Q Y 5 [ NXNXNXMXx.3.j.k.j.k.j.t.=X4X0X,XNXNXNXNX",
"NXNXNXNXNXNX0X<X3XY.K.D.-XQ.=XF.} F t ; 6 2XNXNXNXNXNXNXNXNXNXNXNXNXNXsXd.+.&.H H J a 1 0 d.NXNXsXn.r.4.0.0.9.3.2X>XNXfX8XNXNXNX",
"NXNXNXNXNXNXcXK.1XeXL.<X3X8XmXg ; 5 < w.yXNXNXNXNXNXNXNXNXNXNXNXNXNXNXNXBXhXP.p.] 4 : 6 , O 2XNXNXNXdX`.n.v.c.N.=X:XfX&XK.cXNXNX",
"NXNXNXNXNXNXcXL.K.xX;X8X:XMXNXxXx.7.#XNXNXNXNXNXNXNXNXNXNXNXNXNXNXNXNXNXNXNXNXNXNXb.g +.m , #.NXMXNXNXNXNXNXNXBX~.L.W.3XY.cXNXNX",
"NXNXNXNXNXNXcXW.3X0X;XW.cXNXNXNXzXNXNXMXNXNXNXNXNXNXNXNXNXNXNXNXNXNXNXNXNXNXNXMXNXBX1.I U i w nXNXNXNXNXNXNXNX0X-XL.:X8XcX0XNXNX",
"NXNXNXNXNXMX:X0X8X8X0X,XNXNXNXBXW.fXNXNXNXNXNXNXNXNXNXNXNXNXNXNXNXNXNXNXNXNXNXNXNXNX%XI D w O B.NXNXNXNXNXNXjX5X5X-XR.W.jX5XNXNX",
"NXNXNXNXNX3X,XvX3XW.fX8X0XkXNXNXqX-XMXNXNXNXNXNXNXNXNXNXNXNXNXNXNXNXNXNXNXNXNXNXNXMXNX+.v [ : d.NXBXNXNXNXmX5X0X5X8XD.fXR.:XNXNX",
"NXNXNXNXfX,X0XNXgXE.;XNXMX0XfXBXNXqX<XMXNXmXNXNXNXNXNXNXNXNXNXNXNXNXNXNXNXNXNXNXNXNXNXH.' I 5 H.NXNXNXmXcX5X8XeX8XY.8X:XL.0XNXNX",
"NXNXNXNXcX8X-X:XqXW.K.:X,XhX3XMXNXNX0X&X4X<X<XcXcXNXNXNXNXNXNXNXNXNXNXMXvXNXNXNXNXMXNX%.2 Y t {.NXNXjXW.:XeX;X3X3X8X>XL.E.cXNXNX",
"NXNXNXNXNXNXmX5X,X,X0X-XR.,XcXW.gXjXMX&XW.jX!.Q.-X>X8X9X9X4X3XgXNXNXkX&XeXNXNXNXNXNXsXi t 3 v lXNXfXR.W.vXR.W.,XD.L.R.,XwXNXNXNX",
"NXNXNXNXNXNXNXNXmXMXNXNXxX8XeX1XK.W.*X&X<X!.!.qXNXMXcXjXzXcXMXNXNXgX:XeXNXNXNXNXNXcX:XD.F.H.nXNXeX-X-XmX3XeX0XR.~.0XMXjXMXNXNXNX",
"NXNXNXNXNXNXNXNXNXNXNXNXNXNX0XfXgX,XR.K.W.W.qX;X0XMXvXgXeXcXMXcXeX3X5X0XMXjXcXmX0X3X3XcXNXNXMX,X8XcXjX3XnXNXMXMXNXNXNXNXNXNXNXNX",
"NXNXNXNXNXNXNXNXNXNXNXNXNXNXNXgX9X0XeX;X&XeX3XE.:XW.-X-XgX0X8X8X3X3X8X&X,XfX8X8XmX8X,XvX5XR.R.-X-XW.8XMXNXNXNXNXNXNXNXNXNXNXNXNX",
"NXNXNXNXNXNXNXNXNXNXNXNXNXNXNXNXMXR.L.R.:X8X8X8XgXMXNXnX8X0X8XeXcXNXNXmX0XfXcXvX8XW.E.W.W.~.<XgX0XfXNXNXNXNXNXNXNXNXNXNXNXNXNXNX",
"NXNXNXNXNXNXNXNXNXNXNXNXNXNXNXNXMXcX0X0XhXMXMXNXNXNXNXNXNXcXnXNXNXNXNXNXNXjXeXeXkXcXmXMXNXNXNXNXNXNXNXNXNXNXNXNXNXNXNXNXNXNXNXNX",
"NXNXNXNXNXNXNXNXNXNXNXNXNXNXNXNXNXNXNXNXNXNXNXNXNXNXNXNXNXNXNXNXNXNXNXNXNXNXNXNXNXNXNXNXNXNXNXNXNXNXNXNXNXNXNXNXNXNXNXNXNXNXNXNX"
};
