/* XPM */
static char *result[] = {
/* columns rows colors chars-per-pixel */
"64 64 242 2 ",
"   c #060704",
".  c #12130E",
"X  c #191B17",
"o  c #0A100B",
"O  c #3B0208",
"+  c #230A0A",
"@  c #1E221F",
"#  c #22221D",
"$  c #34221F",
"%  c #2A2B26",
"&  c #272925",
"*  c #32312D",
"=  c #383432",
"-  c #171E20",
";  c #480209",
":  c #550407",
">  c #460A16",
",  c #4A151C",
"<  c #57141A",
"1  c #540F12",
"2  c #760808",
"3  c #681619",
"4  c #771818",
"5  c #700C0F",
"6  c #4B1822",
"7  c #571C23",
"8  c #731D21",
"9  c #552328",
"0  c #592D35",
"q  c #483B3A",
"w  c #59343A",
"e  c #4B292D",
"r  c #6A2527",
"t  c #792527",
"y  c #6A2B31",
"u  c #683638",
"i  c #763636",
"p  c #7E3030",
"a  c #75231F",
"s  c #3C403E",
"d  c #43413E",
"f  c #4E3E42",
"g  c #633C41",
"h  c #7F3D40",
"j  c #3C4544",
"k  c #464846",
"l  c #564546",
"z  c #585958",
"x  c #4E5151",
"c  c #684548",
"v  c #754547",
"b  c #774E51",
"n  c #685859",
"m  c #775659",
"M  c #6C655D",
"N  c #6F5E68",
"B  c #676466",
"V  c #766B6D",
"C  c #6C6976",
"Z  c #79787A",
"A  c #767071",
"S  c #860D0B",
"D  c #861817",
"F  c #931D1B",
"G  c #971816",
"H  c #A41815",
"J  c #94211E",
"K  c #A3211E",
"L  c #8B2324",
"P  c #852728",
"I  c #952523",
"U  c #942B2B",
"Y  c #982726",
"T  c #87312E",
"R  c #893837",
"E  c #953635",
"W  c #97322E",
"Q  c #A62825",
"!  c #A43937",
"~  c #B43330",
"^  c #8F1E20",
"/  c #C51917",
"(  c #C8312E",
")  c #CF2D2B",
"_  c #A2423F",
"`  c #903E41",
"'  c #864849",
"]  c #974746",
"[  c #86585A",
"{  c #995959",
"}  c #9B504F",
"|  c #A64B49",
" . c #A45958",
".. c #B55855",
"X. c #B4645E",
"o. c #AC615E",
"O. c #81686D",
"+. c #986767",
"@. c #847876",
"#. c #9A7878",
"$. c #8B706E",
"%. c #A86766",
"&. c #B36B68",
"*. c #AB7676",
"=. c #B67A78",
"-. c #B67369",
";. c #CE716F",
":. c #CB544C",
">. c #7F817C",
",. c #8A847A",
"<. c #9A867B",
"1. c #B2827E",
"2. c #D78C7E",
"3. c #797B87",
"4. c #747E92",
"5. c #6D768C",
"6. c #807F80",
"7. c #AE7E80",
"8. c #7E838B",
"9. c #7B859A",
"0. c #798497",
"q. c #898689",
"w. c #968987",
"e. c #98928A",
"r. c #8C8C94",
"t. c #828898",
"y. c #979598",
"u. c #908F99",
"i. c #AA8A89",
"p. c #B78989",
"a. c #AA968D",
"s. c #BD938D",
"d. c #A69597",
"f. c #BD9898",
"g. c #A7A39D",
"h. c #B8A897",
"j. c #858CA4",
"k. c #888EA8",
"l. c #9B9CA4",
"z. c #8791A0",
"x. c #AA9EA1",
"c. c #A4A3A4",
"v. c #A7A8AB",
"b. c #B8A8A7",
"n. c #ABACB2",
"m. c #AEB2B7",
"M. c #B2B2B5",
"N. c #B8B8BB",
"B. c #B8B2AF",
"V. c #9BA3B1",
"C. c #C68A86",
"Z. c #CE9894",
"A. c #C9A597",
"S. c #D3AB9E",
"D. c #EDB19B",
"F. c #CAA8A6",
"G. c #D4ABA7",
"H. c #C5BBBA",
"J. c #CFB5B1",
"K. c #F4BDAA",
"L. c #F3B8A3",
"P. c #E0BABB",
"I. c #DBC7B4",
"U. c #D4C4B2",
"Y. c #F3C1AE",
"T. c #E9C6B9",
"R. c #F4C4B3",
"E. c #F3C9B6",
"W. c #F4CBBC",
"Q. c #F9CEBE",
"!. c #F9C6B5",
"~. c #F5D6BF",
"^. c #E7D1B8",
"/. c #BCBDC1",
"(. c #CABCC0",
"). c #BEC4C3",
"_. c #BDC7D0",
"`. c #C4C4C5",
"'. c #C5C6C9",
"]. c #CBCBCD",
"[. c #C9C7C8",
"{. c #DCCDCA",
"}. c #D7C9C6",
"|. c #CECED1",
" X c #C7CED2",
".X c #D0CFD1",
"XX c #CDD2D6",
"oX c #D3D3D4",
"OX c #D6D5D9",
"+X c #D9D6DB",
"@X c #DCDBDD",
"#X c #DBD7D6",
"$X c #D7D1CC",
"%X c #E4CCC7",
"&X c #F4CEC1",
"*X c #F9CFC1",
"=X c #EBD3C9",
"-X c #F5D2C4",
";X c #F9D3C5",
":X c #F5D6CA",
">X c #F9D6CA",
",X c #F5DACD",
"<X c #F9DACD",
"1X c #F7D8C7",
"2X c #E6DBD8",
"3X c #F6DDD2",
"4X c #F9DED3",
"5X c #F8DFD8",
"6X c #DDE0DF",
"7X c #E6E0DE",
"8X c #F6E0D6",
"9X c #FAE1D6",
"0X c #F6E4DB",
"qX c #F9E5DB",
"wX c #FBE8DE",
"eX c #F7E8DF",
"rX c #F8E4C6",
"tX c #DCDDE2",
"yX c #E1DFE2",
"uX c #DCE2E4",
"iX c #DDE6EA",
"pX c #E3E4E4",
"aX c #E5EAEC",
"sX c #EDEDED",
"dX c #E8E6E6",
"fX c #F6EBE3",
"gX c #FAEBE4",
"hX c #F3EEEC",
"jX c #FAEFE9",
"kX c #F9E6E0",
"lX c #EFF0EE",
"zX c #FCF0E6",
"xX c #F1F1EE",
"cX c #FBF2EC",
"vX c #FFF8EE",
"bX c #E9F3F4",
"nX c #F3F3F2",
"mX c #FBF6F2",
"MX c #FCF9F6",
"NX c None",
"BX c #F5F9FA",
"VX c #F0EFF2",
/* pixels */
"NXNXNXNXNXNXNXNXNXNXNXNXNXNXNXNXNXNXNXNXNXNXNXNXNXNXNXNXNXNXNXNXNXNXNXNXNXNXNXNXNXNXNXNXNXNXNXNXNXNXNXNXNXNXNXNXNXNXNXNXNXNXNXNX",
"NXNXNXNXNXNXNXNXNXNXNXNXNXNXNXNXNXNXNXNXNXNXNXNXNXNXNXNXNXNXNXNXNXNXNXNXmXkX4X0XgXMXNXNXNXNXNXNXNXNXNXNXNXNXNXNXNXNXNXNXNXNXNXNX",
"NXNXNXNXNXNXNXNXNXNXNXNXNXNXcXMXNXNXNXNXNXNXNXNXNXNXNXNXNXNXNXNXNXNXNXNXMX<XQ.;X>X;X>X,X8XgXMXNXNXNXNXNXNXNXNXNXNXNXNXNXNXNXNXNX",
"NXNXNXNXNXNXNXNXNXNXNXNXmX0XzXNXNXNXNXNXNXMXMXNXNXNXNXNXNXNXNXNXNXnXMXNXNXNXqX!.!.R.W.9XwX>X&X,XvXNXNXNXNXNXNXNXNXNXNXNXNXNXNXNX",
"NXNXNXNXNXNXNXNXNXNXNXNX0XcXNXNXNXNXMXhXaXsXdXaXdXaXVXNXNXNXMXsXdXaXdXdXhXNXNXMXgX,XK.Q.8XzXhX3X&X3XmXNXNXNXNXNXNXNXNXNXNXNXNXNX",
"NXNXNXNXNXNXNXNXNXNXmX1X0XNXNXNXNXMXaXsXhXhXnXsXnXnXdXsXNXVXpXsXxXnXnXaXnXNXNXNXNXNXqX>XK.Y.gXNXkX&XmXNXNXNXNXNXNXNXNXNXNXNXNXNX",
"NXNXNXNXNXNXNXNXNXgXE.>XNXNXNXNXNXaXsXnXsXVXsXlXoXOXnXnXN.r.aXnXsXhXsXsXNXNXNXNXNXNXNXNXzXR.W.3X>XY.9XcXNXNXNXNXNXNXNXNXNXNXNXNX",
"NXNXNXNXNXNXNXNXcX4X>XgXNXNXNXNXsXoXnXsXsXsXsXnX@Xy.l.hXN.C dXnXVXsXsXsXNXNXNXNXNXNXNXNXNXcX0X:XY.E.-XE.0XNXNXNXNXNXNXNXNXNXNXNX",
"NXNXNXNXNXNXNXNXcXQ.gXNXNXNXNXNX.X].nXsXlXsXsXsXnXnX].c.oXr.oXnXsXnXaXnXNXNXNXNXNXNXNXNXNXNXcX-XfXNXNXfX-X3XcXNXNXNXNXNXNXNXNXNX",
"NXNXNXNXNXNXNXNXNX4X8XNXNXNXNXNXN.oXnXlXVXsXlXsXVXsXmXaX.X`.`.nXsXsXdXnXNXNXNXNXNXNXNXNXNXNXNXMXNXNXNXNX0X-XY.,XjXNXNXNXNXNXNXNX",
"NXNXNXNXNXNXnXxXNX8X,XNXNXNXNXNXn.#XnXsXlXlXsXVXsXsXsXsXnXpX@XhXlXhX@XsXU.M.$XlXNXNXNXNXNXNXNXNXNXNXNXNXmX8X:XR.W.0XNXNXNXNXNXNX",
"NXNXNXNXNXNXdXaXNXmXNXNXNXNXNXNXM.oXnXsXsXsXlXsXVXsXnXnXsXnXdXpXsXpXoXg.>.$XlXdXlXNXNXNXNXNXNXNXNXNXNXNXNXjXcXgX3X,XNXNXNXNXNXNX",
"NXNXNXNXNXNXaXsXnXNXNXNXNXNXNXnXM.].nXsXsXlXsXsXsXnX@X@XdXxXnXaXM.v.n.e.#X6XoX6XMXNXNXNXNXNXNXNXNXNXNXNXNXNXNXNXwX8XNXNXNXNXNXNX",
"NXNXNXNXNXNXdXhXdXnXNXNXNXMXsXnX].].BXsXsXVXsXsXnX[.y.v./.+XpXdX'.,.>.e.v.g.aXc.c.H.6XBXNXNXMXNXNXNXNXNXNXNXNXNXgX4XNXNXNXNXNXNX",
"NXNXNXNXNXMXaXsXsXaXaXxXVXdXsXnXpX].nXsXlXsXhXnXaX.XnXnXsXsXyX|./.g.w.A ,.e.Z ,.,.,.w.B.NXNXNXNXNXNXNXNXNXNXNXNX<XgXNXNXNXNXNXNX",
"NXNXNXNXNXNXdXnXsXhXVXpX7XnXsXsXsXoXxXlXsXVXsXsX].lXVXnXBXxXsXVXnXaXg.,.,.y.,.,.,.,.e.e.N.A.C.2X7X#XoXMXNXNXNXNXqX*XjXNXNXNXNXNX",
"NXNXNXNXNXNXaXhXsXsXnXsXy.+XxXlXxXpXsXsXsXsXnX+X|.NXdX|./.oXmXsXaXlX6Xq.>.M ,.<.e.A.I.I.[.x.S R ' b.@X@XlXNXNXNXNX-X3XNXNXNXNXNX",
"NXNXNXNXNXMXsXsXsXnXsXnXm.r.BXsXlXsXpXxXsXVXVXdXxXc.3.l.oXdXm.'.7X.X[.n.y.A <.<.<.I.^.I.w.b.b < l [.nXB.@XnXpXNXnX-XfXNXNXNXNXNX",
"NXNXNXNXNX9XnXdXsXsXsXlXlXr.@XnXsXnXpXpXnXsXsXnXoXy.6XMXsXq./.tXn..X].XXr.d <.a.g.U.h.S.@.! *.tX[.v.c.@.w.'..XNX4X,XNXNXMXNXNXNX",
"NXNXNXNXgXE.NXsXsXnXsXVXsX|.].nXsXsXxX`.oXMXsXnX'.aXnXnXm.M.aXV  ._ | #.[ w * <.h.rXrXA.$.V $.NX7X).oXb.e.pXNXNXzXMXNXNXgXMXNXNX",
"NXNXNXNX3X,XNXnXsXhXsXnX'.uXpXpXnXhXsXdXl.n.nXnX@XsXaXnX/. XV F K ) ) Q ' { z M h.rXrX<.8 #.e.yXNXmXwX=Xa.B.MXNXNXNXcX4XgXvXNXNX",
"NXNXNXNX>X,XmXNXdXhXsXnX].'.MX@X.XaXBXBXnXv.u.pXnXsXxXhXn.V ^ Y I ~ ( K ` W X.k d z 1.d u G i tXNX3XW.NX/.d.Y.E.0X9X;X4X!.gXNXNX",
"NXNXNXjXW.8XMXNXnXaXsXnX6XoXnXnX+XM./.OXdXNX|.q.M.@XsXoXr.#.E I 3 4 P D i T W c z M p d g : O.NXNXcXE.zXuXv.].1XR.;XmXfX&XgXNXNX",
"NXNXNXgXY.8XNXNXNXaXsXlXsXpXhXsXnXsX'.x.r.u.m.'.].VXVX|.n.m.e.T 1 , < : w r F { ! T T M q d.NXNXNXmXY.,XBX].n.aXnXNXNX3X:XmXNXNX",
"NXNXMX3X0XE.NXNXNXMXsXVXsXpXnXsXsXsXnXNX/.C 3.t.l.M.oXyXXX[.m.b 7 , > g b 3 8 i r i I [ d.NXNXNXNXMXE.>XNXpX/./.sXNXMX&X,XNXNXNX",
"NXNXNXgX8XE.>XMXNXMXxXpXnXn.[.nXnXsXnXdX3.3.3.N C r.oXyX'.+X].y.q.q l +.|  .E F t D E i.dXNXNXNXNXNX4X,XNXaXuXl.oXVXNX0X-XMXNXNX",
"NXNXNXNX3X&X,XBXNX0XMXlXhX].3.y.'.dXpXu.3.(.oX].yXBXBXVXtX/.u.x & - s v 3 y W Y 4 2 Z.NXNXMXNXmXzXgX;X*XNXnXVXN.v.pXMXMX8XNXNXNX",
"NXNXNXNXqX,XNXNXMX9XNXNXxXxXaXoX#XlXN.u.yXsXBXBXBXBXBXVXVX2Xn.6.7 f f > 0 p D 3 6 b.NX}.yXNXMXqX4X<X>X4XNXNXVXuXu.XXbXcXqXNXNXNX",
"NXNXNXNXcX>XNXNXNX8XvXNXNXNXhXxXnXlXN.iX2X2XBXNX%X2.BXVXaXyX'.y.> , > > > > 1 ; +.MXA.E  .}.NX2XhXNXgXmXNXNXnX@XOXOXOX3XvXNXNXNX",
"NXNXNXNXMX-XcXNXMX4X9XNXNXNXjXqXNXdXOX+X~ S.NXVX;./ G.VXyXyX/.x.6 < 3 3 < 8 D t 4 P D ' %.D =. .=.NXNXNXNXNXNX7XtXtXOX7XNXNXNXNX",
"NXNXNXNXMX>X;X,XE.-X>XMXNXNXMX1XmX'.XXC./ :.;.:.) ;.Z.iXtX|./.3.+ 7 L I t T g N y 3 r v d.D G ^ D P.NXMXNXNXNXMX#XOXtXpXNXNXNXNX",
"NXNXNXNXcX;X,X&XqXqX>X>XMXNXNX>XcX'.tXOXG.( ) ( F.VXtX+X+X/.[ n z & * k q = g +. .G Y t v *.! J W s.NXcXqXNXMX8X>X}.+XuXNXNXNXNX",
"NXNXNXNX5X3XcX:XNX8X8X1X3XsX=XT.%X(.+XtXJ.~ ( ..iXOXOXtXXXi.1 > [ /.#.4 t L 2 %.V r L *.Y R E G } F.NXhXqXNX0X&XMX3X{.tXNXNXNXNX",
"NXNXNXNX>XvXnXE.mXzX9X9X,X| E I &.P.+X+X| K Q _ $XtX+X+X].' ; 3 F U b.*.D L +.[ 9 d n n ] G i P ' U.NXgX<X9XE.fXNXmX;X#XnXNXNXNX",
"NXNXNXNX-XqX3X:XcXNX,XwX1X~ } C.F.#X+X+.^ 7. .^ 7.tXOX+X'.V v U K F g O.p.a.7.X.a . % * M r v [ [ xXNXqXW.:XfXNXNXNX4X1XNXNXNXNX",
"NXNXNXMX,X>X,X9X<X<X4XBX0X2.Q a.{.tX7.P F.aX+X` U ` [.pXl.n #.H.&.D b 3 +.! H ~ ] % % % = k q.=XcXNXMX9X-X0XNXNXcX;XE.0XNXNXNXNX",
"NXNXNXNX8X,XmX,XqXMXNXNXBX .&.G.%X2.U H.tXOXtX} D 7.pXV.3.N S ..N.@.s + T ` F ^ } e % % & # * y.NXNXNXgX!.!.cXqX;XQ.R.MXNXNXNXNX",
"NXNXNXNX3X-XMX-XmXNXNX2XJ.6 d.2XC.:.S.T.OXOXtX{ p.tXV.4.8.6.! H  .j   X u [ r r { $ @ % # & # . B lXNXxXgXmX<X4XNX9XqXNXNXNXNXNX",
"NXNXNXMX8X8XNX,XjXNXNX}.: 7.aX7.I p.{.$XOXtXtXtXXXk.4.j.8.' Q I t $.& A F.r ' [ ` 1   # & # % * o >.NXMXNXNXgX;XmX;XcXNXNXNXNXNX",
"NXNXNXcX3X0XNXwXcXNXNXVXr.iXi.^ } tXtX+XOXOXtX/.4.4.j.6.q.` 5 3 ; n * oXp.2 %.T 2 J.M.j # & # % # B NXNXNXNXNX3XE.&X9XNXNXNXNXNX",
"NXNXNXjX,XjXNXcXgXNXnX'.uXp.L U (.tXOXtXtX].k.4.8.r.9.O.u @.V ; c f x MX} { $X*. .NXNX.XX X # * . z NXNXNXNXNXcX-X0XNXNXNXNXNXNX",
"NXNXNXqX-XNXNXmXQ.hXy.XXf.P L 7.uXOXtX].l.n w c B q.[ L D 4 [ q.[ + '.P.2 1.C.L F.NXNXr.  X . . * w.NXNXNXNXNXmXR.:XNXNXNXNXNXNX",
"NXNXNX0X,XhX,X-XgXH.5.`.E U ` tXyXXXm.Z e O > ; > a D ^ 4 5  .A.: d NXo.S p.} S }.NXNXa.# o X V #.#XNXNXNXNXmXgX*XR.MXNXNXNXNXNX",
"NXNXNXqXqXW.3XMXNXt.4.[ I L d.'.V.t.N > ; 3 r h ]  . .[ b [ i.9 o B.NXR J y 4 t 2XNXNX;.E c l { G.NXMXzXNXNXgX<XkXW.cXNXNXNXNXNX",
"NXNXNXqXfX>X8XNX2X4.5.O 0 C 0.4.4.C w v +.%.&.| p r y i v q # X z vXW.t D P 4 4 %XkX0X} G ~ Q Z.NXNXcX;XNXNX1XgXcXW.mXNXNXNXNXNX",
"NXNXNXqX,X&X9XNXN.5.B N 4.9.0.9.t.w u %.o.&.E u     X X . % % # U.qX1XG.R G F =.:XqXT.9 3 8 v MXNXNXNX4X9XNXgX0X,X:X0XNXNXNXNXNX",
"NXNXNX3X-X,XmXNXl.5.9.9.9.9.j.0.x.=XS.D.-XG.! l k k . * X # X w.9X,X0XqX%Xo.2.fX3XgXi.O 0 [ s.qXfXmXNXMXQ.3XNXNX3XcX,XqXNXNXNXNX",
"NXNXNXMX3X:XmXMXt.4.j.9.j.j.k.8.I.gXmXNXdXE G ] $.i.z X # o Z NXNXNXNXNXNXNXNXcX3XgX[ O v 2 s.4X,X0XkXMXNXQ.Y.0X3XfXK.9XNXNXNXNX",
"NXNXNXNX,XeX3X=Xt.j.k.k.k.j.3.y.MXNXNXNX[ 5 Y Q %.+.*.n = c.MXNXNXNXNXNXNXNXNXNXNXNXd.O w u [ =XcXcX-X:XqXvXE.Y.,XR.>XMXNXNXNXNX",
"NXNXNX3XeXNX,X2X3.0.0.0.4.q.M.sXNXNXd.0 1 4 I G H &.+.i.aXNXNXNXNXNXNXNXNXNXNXNXMXNX2X6 ; t F | F.=XW.-XD.K.K.3X3X9XNXNXNXNXNXNX",
"NXNXcXR.-XhX1X&XM.c.v.n.[.aXNXNXNX#XO 6 7 : 4 ] C.J.sXNXNXNXNXNXNXNXNXNXNXNXNXNXNXNXNX2Xw.< 5 : g mX8X3X<XK.0X,XY.gXNXNXNXNXNXNX",
"NXNXjXK.3XW.L.W.NXNXNXNXNXNXNXMXNX#., m $.u b.NXNXNXNXNXNXNXNXNXNXNXNXNXNXNXNXNXNXNXNXNXNX#Xw.x.VXNXMX:X4X;XxXK.L.vXNXNXNXNXNXNX",
"NXNX0XcX0X=XL.1X0XNXNXNXNXNXNXNXnXu i U I 1.BXNXMXNXNXNXNXNXNXNXNXNXNXNXNXNXNXNXNXNXNXNXNXNXNXzXNXNXNXcXW.-X0X3X-XcXNXNXNXNXNXNX",
"NXNX3XcXW.R.-X3X3XjXNXNXNXNXMXNXB.O w D I %XNXMXNXNXNXNXNXNXNXNXNXNXNXNXNXNXNXNXNXNXNXNXNXNXkXT.BXNXNXNX:X0X8X8XqX-XMXNXNXNXNXNX",
"NXNX,XY.kXD.8X8X0X3XMXNXNXNXNXNXy.: [ v +.NXNXNXNXNXNXNXNXNXNXNXNXNXNXNXNXNXNXNXNXNXNXNXNXMX;XqXNXNXeX0X0XfXE.4XcX,X,XNXNXNXNXNX",
"NXNX0XL.>X8XR.0XkX0X3XmXmXNXNXNXU.5 L ' H.NXNXNXNXNXNXNXNXNXNXNXNXNXNXNXNXNXNXNXNXNXmXNXMX,XqXNXNXfX0XmXNX;XE.hXNX0X3XfXNXNXNXNX",
"NXNXcXR.L.>X3X,X3X-XkX:XW.cXNXNX{.t Y 2 %.NXNXNXNXNXNXmXMXNXNXNXMXNXNXNXNXNXNXcXzX<X<X4X;X9XNXNXMX8XhX,X:XK.W.qX,X-X8XcXNXNXNXNX",
"NXNXNXwX<XR.L.D.3XW.R.mXW.R.0XNXVXv 3 a p xXNXNXNXNXNX0X-X0XNXNXcX4X8X9X8X9X<X;XQ.!.zXW.&XNXjXgXW.xX,XY.:XqX,X,X4XmXNXNXNXNXNXNX",
"NXNXNXmXcXNXqX1XR.0X0X3XmX-X:XfXNXnXH.F.D.,XcXNXNXNXNXNX0X,XjXNXNXMXzXgXjXvXmXNXqXR.!.,XW.&XW.K.<XeX5XcXMXNXMXMXNXNXNXNXNXNXNXNX",
"NXNXNXNXNXNXNXNXMXMXNXcX3XzXxX8X<XMXNXNXxX3X,X0XmXvXjXMX0X3X3X0XcXMXcXgXgXcXMXqX;XgXW.E.R.R.,XfXeX0XNXNXNXNXNXNXNXNXNXNXNXNXNXNX",
"NXNXNXNXNXNXNXNXNXNXNXNXMX0XE.-X-X!.R.8XcX,X0XmX3X0XgX,X-X3X0X3X8X3X0XjX-X-XW.:XE.3X0XW.;XqXqX8XgXNXNXNXNXNXNXNXNXNXNXNXNXNXNXNX",
"NXNXNXNXNXNXNXNXNXNXNXNXNXNXfX8XgX,XQ.W.W.R.E.8XmXxXeX0XmXNXMXcXeX8XeX3XnXNXmXjX3X0X0X,XR.L.E.mXNXNXNXNXNXNXNXNXNXNXNXNXNXNXNXNX",
"NXNXNXNXNXNXNXNXNXNXNXNXNXNXNXNXNXNXNXNXNXmXcXgX0XqXzXNXNXNXNXNXNXnXcXNXNXNXNXNXNXMXMXjXqX9XcXMXNXNXNXNXNXNXNXNXNXNXNXNXNXNXNXNX",
"NXNXNXNXNXNXNXNXNXNXNXNXNXNXNXNXNXNXNXNXNXNXNXNXNXNXNXNXNXNXNXNXNXNXNXNXNXNXNXNXNXNXNXNXNXNXNXNXNXNXNXNXNXNXNXNXNXNXNXNXNXNXNXNX"
};
