/* XPM */
static char *result[] = {
/* columns rows colors chars-per-pixel */
"64 64 241 2 ",
"   c #170C0A",
".  c #1C0E0B",
"X  c #1E110C",
"o  c #23130D",
"O  c #2A150E",
"+  c #2C190F",
"@  c #321B0F",
"#  c #2B1610",
"$  c #2D1A10",
"%  c #341E12",
"&  c #3B1D13",
"*  c #2F2012",
"=  c #352213",
"-  c #3C2214",
";  c #3C2A16",
":  c #3D2719",
">  c #3E2B19",
",  c #411D13",
"<  c #432316",
"1  c #4A2517",
"2  c #432B16",
"3  c #4B2C16",
"4  c #442418",
"5  c #4A2519",
"6  c #432C1A",
"7  c #4B2D1B",
"8  c #55271B",
"9  c #522C1C",
"0  c #5A2C1D",
"q  c #463119",
"w  c #49351A",
"e  c #4C341B",
"r  c #53341C",
"t  c #5C321E",
"y  c #543B1D",
"u  c #5B3B1E",
"i  c #62321F",
"p  c #582E20",
"a  c #4B3521",
"s  c #553323",
"d  c #5C3521",
"f  c #553C23",
"g  c #5C3D23",
"h  c #612F20",
"j  c #633421",
"k  c #6A3623",
"l  c #633C24",
"z  c #6C3B24",
"x  c #673E29",
"c  c #6C3E2A",
"v  c #723C25",
"b  c #733E2A",
"n  c #5C411E",
"m  c #60411F",
"M  c #574123",
"N  c #5C4222",
"B  c #644423",
"V  c #6A4425",
"C  c #634A25",
"Z  c #6B4C26",
"A  c #644729",
"S  c #6B422A",
"D  c #6D4C2B",
"F  c #7B4327",
"G  c #724927",
"H  c #73432C",
"J  c #7B4429",
"K  c #734C2C",
"L  c #7C4B2D",
"P  c #6E5329",
"I  c #6C532B",
"U  c #75532C",
"Y  c #7B552E",
"T  c #75582C",
"R  c #7A5B2D",
"E  c #754C33",
"W  c #7B4D32",
"Q  c #6C5132",
"!  c #745433",
"~  c #7B5433",
"^  c #755B32",
"/  c #7C5B33",
"(  c #7B5C3A",
")  c #7D602E",
"_  c #7C6235",
"`  c #7F653A",
"'  c #874B2C",
"]  c #844C2C",
"[  c #84532D",
"{  c #8B532E",
"}  c #835434",
"|  c #8C5532",
" . c #845C34",
".. c #885937",
"X. c #855D3A",
"o. c #8A5D3B",
"O. c #945B33",
"+. c #985B33",
"@. c #846334",
"#. c #8C6336",
"$. c #85643A",
"%. c #8B643A",
"&. c #856A38",
"*. c #8C6C3D",
"=. c #9A6536",
"-. c #92643B",
";. c #926D3C",
":. c #9A6C3D",
">. c #8C713C",
",. c #94723D",
"<. c #98763E",
"1. c #A26838",
"2. c #A6723E",
"3. c #8A6842",
"4. c #936C43",
"5. c #946B47",
"6. c #9A6D42",
"7. c #8C7443",
"8. c #8E7847",
"9. c #947342",
"0. c #9C7444",
"q. c #957B45",
"w. c #9B7B46",
"e. c #9C7549",
"r. c #95784A",
"t. c #9D7C49",
"y. c #9A7852",
"u. c #A16E41",
"i. c #A37544",
"p. c #A47B45",
"a. c #A67847",
"s. c #A37C4A",
"d. c #AA7D4B",
"f. c #A57C52",
"g. c #97814A",
"h. c #9D824B",
"j. c #9D8653",
"k. c #A6864A",
"l. c #A3834C",
"z. c #AB844C",
"x. c #AC8A4D",
"c. c #B1864A",
"v. c #B48B4E",
"b. c #B88D4F",
"n. c #AE934D",
"m. c #B6954B",
"M. c #A38451",
"N. c #AC8552",
"B. c #A58B52",
"V. c #AC8B53",
"C. c #A48E5B",
"Z. c #AE8C59",
"A. c #B28C54",
"S. c #B98D54",
"D. c #B48A58",
"F. c #AC9355",
"G. c #A89457",
"H. c #AD935B",
"J. c #B59256",
"K. c #BC9354",
"L. c #BA9A55",
"P. c #B3945A",
"I. c #BB945A",
"U. c #B49B5D",
"Y. c #BB9A5C",
"T. c #B9A15A",
"R. c #B38E60",
"E. c #AC9962",
"W. c #B59361",
"Q. c #B49D62",
"!. c #BC9D62",
"~. c #BBA364",
"^. c #B9A665",
"/. c #BCA66A",
"(. c #BDAB6B",
"). c #BFA370",
"_. c #BCAB72",
"`. c #C19759",
"'. c #C39C5C",
"]. c #C3A15D",
"[. c #C9A758",
"{. c #D3B05F",
"}. c #C49764",
"|. c #C39E61",
" X c #C4A363",
".X c #CAA564",
"XX c #C7A866",
"oX c #CBA965",
"OX c #C4A569",
"+X c #C4AC6B",
"@X c #CCAC6B",
"#X c #D0A565",
"$X c #D2AC65",
"%X c #D2AD6B",
"&X c #C4B16D",
"*X c #CCB16C",
"=X c #D3B26C",
"-X c #D9B56E",
";X c #D7B86A",
":X c #C6AD71",
">X c #C5B372",
",X c #CBB473",
"<X c #CDBA75",
"1X c #C9B879",
"2X c #D4B472",
"3X c #D9B677",
"4X c #D4BB74",
"5X c #DCBB74",
"6X c #D4BD7A",
"7X c #DCBC7B",
"8X c #E0BE75",
"9X c #CDC17F",
"0X c #D4C37D",
"qX c #DBC578",
"wX c #DCC27D",
"eX c #E2C576",
"rX c #E2C47D",
"tX c #E3CC7B",
"yX c #E6D27E",
"uX c #DABF81",
"iX c #CFC582",
"pX c #D4C482",
"aX c #DBC582",
"sX c #D7CA85",
"dX c #E2C483",
"fX c #E4CB84",
"gX c #E7CB88",
"hX c #E6CC8B",
"jX c #E5D385",
"kX c #E9D484",
"lX c #E7D788",
"zX c #EAD58B",
"xX c #EADB8B",
"cX c #E7CD91",
"vX c #EAD993",
"bX c #EBDB9B",
"nX c #EEE28C",
"mX c #EDE298",
"MX c #F1E49B",
"NX c #EFE3A4",
"BX c #F1E5A6",
/* pixels */
"B.,.9.q.w.l.h.B.U.U.F.^./.H.l.s.l.V.Q.Q.U.!.~.P.H.V.V.V.V.A. XXX+X+X XT. XoX=X=X-X-X-X2X=X%X=X5X7X7X5X8X8X-X8XdXgX8X8XzXMXMXMXzX",
"B.9.<.q.w.h.p.k.B.x.F.U.~.U.U.~.U./.+X:X^.^.+X>X+X/.Y.V.s.V.OX+X@X@X@X XY.Y.].oX$X@X@X*X@X=X2X3X5X-X=X%X=X=X8XgXfXrXgXvXMXzXxXMX",
"x.q.,.9.w.w.h.p.h.h.k.x.F.T.(.>X&X&X<X<X<X,X&X&X+X+X!.N.s.Z.!.~.+X*X,X>XXXI.A.I.!.|.'.}.!. X.XXXoX.X.X.X.X%X%X%X-XeXfXkXkXtXzXzX",
"F.t.*.,.<.q.w.h.w.l.p.h.B.F.(.+X+X(.+X*X<X<X,X*X+X>X+XV.N.z.D.D.!. X@X@X*X XD.N.S.S.D.S.D.I.I.I.}.'.'. XOX.X.X.X#X-XeXyXzXzXzXgX",
"<XU.>.>.>.9.9.9.0.w.0.q.w.z.H.H.H.U.U.U.~.+X,X1X*X&X/.J.V.s.4.A.P.'. X+X+X~.A.s.d.N.N.N.N.A.D.A.A.K.I.'.|.|.|..X#X#X-XgXMXMXMXnX",
"sX<XG.h.w.7.*.7.q.q.9.,.9.w.w.h.V.U.~.+X<X6X<X,X>X:XW.V.z.6...i.d.A.J.Y.P.D.N.S.!.!.I.I.D.A.OX,X2X2X.XI.`.'..X#X$X$X8XeXzXzXzXkX",
"<X,X^.(.Q.9.*.*.*.*.4.*.*.;.9.w.h.H.~.<X0XaXaX:X(.Q.l.i.6.3.} :.e.p.s.N.N.I. X2X2X4X=X@X@X3XvXNXbXvXaX@X`.`.oX%X-X-X8X8X8X8X8X8X",
"^.T.U.T.H.q.$.$.@.$.&.*.3.*.*.9.t.l.U.+X&X>X1X/.P.V.N.C.s.%.O.s.0.e.p.N.!.6X4X5XqX3X6XaXbXNXBXBXNXvXzXfXoX|.oX%X-X-X-X-X-X$X#X#X",
"k.l.t.t.w.7.@.@.( *.h.M.r.*.*.9.0.t.B.H.H.V.P.P.Q.W.!.1X:Xf.+.d.i.z.J.Y. XXXoX=X;X4X5XfXbXBXBXBXNXvXhXhXgX%X|.'.`.#X#X#X'.'.`.`.",
"t.*.&.3.7.9.3.&.7.H.0X9X1XG.g.M.M.q.9.9.4.9.q.t.l.V.P.:X).5.=.a.z.A.J.J.J.J.Y.].XX*X=X4XhXbXBXMXbXbXbXbXMX8X XI.`.`.|.|.'.`.S.`.",
"g.,.t.H.l.w.t.h.B.!.>X+X&X(.(.0XpXQ.,.$.$.*.;.3.q.N.V.H.R.3.+.a.A.V.A.A.v.V.J.I. XXXXX*X4XfXhXvXbXbXBXbXcX3XI.S.`.'.#X}.#X}.`.D.",
"q.w.U.>XF.h.k.h.w.k.F.~.,X0X6X0XpX^.9.$.$.$.%.%.3.9.e.6.f.3.+.u.I.J.P.~.!.Y.Y.~. X]. X*X4X5X5XwXfXhXbXvXaXOXK.I.}.-X8X8X8X#X`.}.",
"<.h.+X,X X~.F.w.q.p.U.<X0XaXjXpX6X>Xj.$.$.7.3.3.%.4.r.w.M.4.| a.Y.!.~. X XY.Y.Y.Y.Y.'. X@X+X XoX@XwXvXhXfX7X%X2X3X8XdXhXdX3X#X%X",
"~.@XwX0X&X+XU.h.<.q.B.U./.4XaXsXsXaX:Xt.M.).:XQ.H.t.V.W.W.3.| a.D.A.J.P.Y.P.J.P.J.J.J.Y.Y.I.I.I.Y.@X6X3X7X7X3XaXhXgXdX8X3X#X%XuX",
"lXxXlXqX~.U.P.k.,.,.,.w.U.(.>X0XsXfX,XB.Q.1XsXpX/.B.V.Z.N.%.| u.s.s.z.V.A.J.P.D.V.V.J.J.A.A.A.P.I.I.I.I.I.OX.X2X7XdXuX2X%X%XuXhX",
"nXmXnXlXqX*X+XU.h.,.,.9.l.x.^.<X<X>XP.l.l.Q.6XpX/.t.t.t.e...| u.p.s.s.M.Z.A.V.A.A.J.A.A.x.A.I. X+X|.A.x.D.S.!.}.@X7XuX2X2X#X%XdX",
"lXnXnXxXqXU.l.<.<.;.;.;.,.,.q.l.x.l.t.w.w.z.(.<X<XU.l.w.-.} | =.s.l.s.s.s.d.s.z.V.J.J.J.V.I.'.oX@X@X XI.S.D.A.I.|.OX}.oX%X@X%X3X",
"nXnXnXxXqXL.h.*.*.;.;.>.;.;.;.<.P./.!.P.k.x.~.<X<X<X>XQ.} J +.1.d.s.s.N.Z.N.l.Z.I. X=X2X2X%X X XoXXXXX XOX|.I.I.I.I.S.}.}..X#X@X",
"nXnXnXnXxXlXXX<.,.q.l.l.l.<.,.k.<XsXfX6XY.Y.Y. XXX+X&XQ.! F +.1.d.M.l.P.OX XU.Y. X*X5X5XqX-XoXJ.L.'.I.]..X@X}.`.S.D.`.S.'.|.}.|.",
"qXyXyXlXlXlX4Xx.l.P.U.B.k.k.F.U.OX6X6X,X<X0X&XU.J.J.B.~ j H +.1.a.x.Z.P.|.!.Y.Y.].].oX-X-X=X].b.A.S.K.'.%X%X3X3X3X:X}.`.S.S.I.I.",
"{.eXtXyXjXyXjX0X+X(.U.F.k.k.B.P.P.U.F.P.OX+XY.B.B.x.l.H j k ' +.2.c.6.6.I.I.J.A.J.K.].=X5X=XY.J.I.|.}.3XuX8XgXcXcXcXdX#X`.}.}.`.",
"{.;XeXtXjXlXlXlX4X+X>XU.q.9.B.U.B.k.p.s.B.B.z.k.k.x.s.K t j H | =.2.} } D.D.A.J.J.J.L.oX=X%XoX%X3X8X3XdXhXcXcXdXdXcXcXdX2X3XuX3X",
"[.[.;XeXlXxXnXvX6X,X>X!.h.l./.H.h.<.q.9.9.w.l.s.s.p.4.S t p b ' | ..c ] d.W.,XaXaXwX X].*X=X=X5X8X5X5X8XdXgXgXdXdXdXgXgXdXdXdXdX",
"[.[.;XkXlXlXjX0X(.Z.h.h.w.M.W.t.9.,.9.h.M.q.w.9.3./ g 9 9 0 c J L } W W o.y.OX_.pXxXsX2X=X5X;X;X5X8X5X5X3X-X3X8XdX8XdXdXdX7X3X3X",
";XeXtXyXkXyX0XXXB.&.*.,.7.*.9.q.q.q.M.h.j.E.y.3./ g s s p p d x c E } o.y.5.y.f.!.aXuXf.i.'.oXoX=X;X5X5X=XoX#X$X8X8X8X8X8X%X}.%X",
"yXxXxXkXqX0X*XF.*.) @.&.&.$.7.C.h.q.C.E.C.C.8.8.! 7 7 s s c W W | o.5.a.f.a.a.-.D.|.i.W 5.S.I.I.].$X=XoXoX'.].#X-X-X-X$X#X'.`.'.",
"eXyXyXyXqXqX(.8.^ T / ) ` 7.7.7.` ` j./._.j.7.r.! 7 , 4 5 j v b ' ' ' +.+.1.1.+.a.N.o.b 6.S.S.c.J.].`.].'.].{.{.$X$X{.$X$X$X'.'.",
"yXyXxXlXjXjX&XG.` ^ r.q.` 7._ _ ( 3.j._._.E.C.E.Q 5 4 , , h v b b ' ' +.O.+.+.' o.f.o.k +.d.d.d.z.x.m.].'.`.`.m.`.`.`.{.8X8X-X$X",
"tXyXyXyXlXlX1X>.` 8.Q._._.j.` ` C._._._._.^.y.` x : & 4 4 p k k k v F ' ] ] | J E W b c +.u.f.f.s.z.A.I.m.c.c.c.c.c.`.[.8XeX8X-X",
";XeXtXtXyXlXsXG.8.Q.iXiXiX_.C.j._.>X1X_.1XE.( a 6 4 4 & , p k k v k ' ' ] ] { ] b c b b | o...o.f.D.x.c.2.c.c.v.c.c.`.[.$X-X8X$X",
"{.;XeXeXqXqXqX0X1XpXsXsXsXiX9X^.E.E.(._._.j.a a 7 4 & : , p k k v v b { L { | ] c c b b W W o.y.d.d.2.p.2.c.c.c.`.m.`.`.`.[.#X$X",
"{.[.[.{.qX0XqXsXiXiXiXiXiXiXiX_.U.C.G.^.E.8.> > a s s s p c b b ] | } ] v z H c c c c E b b } i.2.a.2.k.c.`.m.c.`.m.b.b.`.`.`.`.",
"m.m.[.T.T.^.&X1X1X(.^.(.1X_.^.^.E.E.E.E.y.( 6 4 < 4 7 l S H L o.5.5.4.W i i 0 j h h j k k k J 2.:.:.i.z.x.A.A.c.c.c.c.c.b.b.K.`.",
"n.m.n.n.n.n.T.T.T.k.&.&.8.&.7.>.g.C.3.Q a : 4 4 & , 5 t k v v ' +.+.=.O.L 0 9 8 8 0 0 h p h b +.{ | } 3.e.s.p.p.p.p.d.c.c.b.b.K.",
"m.T.n.g.q.<.G.T.E.j.R P Z Z I $.` M > : : : : & : , 4 8 i k k ' | =.=.2.1.| H 0 0 0 p h 0 h v | ] ..z k E o.e.6.2.2.0.p.c.v.v.v.",
"&X^.n.<.) >.G.^.T.g._ Z C B N B a * * = : : 4 & & 4 1 3 t t i v J { { 1.1.1.=.] k 0 0 p 8 h k { { O.W c c c 3.e.0.:.0.i.a.p.2.a.",
"&Xn.>._ ) >.G.^.Q.G.g.^ N N n r a * : > : : 4 : & , 4 5 9 0 d F F { F { +.=.1.1.+.' k p 8 0 k | O...E S x x 5.R.D.z.<.0.:.<.:.:.",
"qXT.>.&.>.` g.n.g.8.g.g.I u y q : > : : > : : : - : 5 9 0 0 k F F ] ] ' { { +.=.1.1.=.L h h v | ] E E S E 5.f.OXaX@Xp.;.=.-.%.-.",
"iX&XT.n.G.g.^ ^ C I ` ` C f y 7 % : > a a a a 6 7 6 7 7 0 t v ' F F { ] F F ' ' +.+.+.+.F k E W ~ X.3.5.y.s.5.OXqXOXp.=.-.o.#.#.",
"T.T.G.G.G.` M M M M M M e y e q % % * * > a a f f f s g g l l B V m V z l z l k S H W W ~ 3.5.N.R.Z.f.e.s.i.6.OX7X].p.:.;.%.#.O.",
"n.n.g.) ) C y w y w y w y e e 6 % % % - - - 4 2 3 y f N A A D ! R ( / ^ Y ! ( $.%.4.4.4.5.f.D.W.}.R.f.s.d.i.5.OXaX4Xx.<.=.-.;.-.",
"^.G.>.C w w w y w e e e e e y 6 % % % & - - 4 2 < 3 3 e r u r l B G Z K G m Z  .%.#.#.#.o.i.D.D.}.I.d.i.p.0.-.|.qX5X'.k.w.0.a.<.",
"^.G.&.M w w w w w y w w e e y 7 = % % % - - ; < 4 2 3 r r r u u B G G P Z B G @.#.#.#.-.-.i.d.D.D.D.a.a.a.6.3.Z.=X=X=X3X4XT.z.:.",
"T.G.>.I M w w w w w w w w w q 6 : % % % % & ; - ; 3 e e r r r u m Z Z Z Z z V [ #.@...#.o.e.d.f.d.d.0.6.i.6.5.R.Y.=XqXqX5X$XJ.:.",
"n.g.g.I M w w q q q q q 6 6 ; - ; % % % - = - < - < 3 e 7 r r u m Z Z l B V m U ..@. .#. .-.s.a.d.d.a.u.0.0.Z.N.s.J. X=XoXoXT.V.",
"8.>.&.) M w q ; > 6 6 6 ; 2 ; @ @ = = % - % - = - - 2 3 3 r r r u B B u m m l U [  .[  . .;.6.s.d.d.e.i.s.f.5.i.#.;.v.L.L.U.J.x.",
"&.>.g.g.P C w ; > > 6 ; q ; 2 = @ @ @ = - - = - - ; 1 7 3 w r r u C B B V m z Y  . .Y  .} #.6.s.d.f.f.R.Z.z.%.4.Y  .p.m.v.z.k.0.",
") ) ) &.) I M w > > > ; > q ; @ * + + @ @ % ; 2 : 6 w e 7 e e r u B B m B m m T  .R  .#.%.4.s.N.R.D.5.f.A.p.o.=.Y R ,.k.x.z.<.,.",
"g.) P ) ) P M M q ; ; ; ; * * X * # $ * * % = - ; 3 e y g N A D Q ! ^ ( X.( 3.5.r.9.0.;.3.@.e.D.R.R.6.d.p.#.%.4.9.e.e.0.x.v.k.<.",
"g.>.P C P C C C M w q * * * o * $ $ $ $ = $ + - - - 2 < 3 3 e d l C Z Z Q A A K 3.;.$.@.#.Y p.D.o.5.5.a.0.$.%.N..X,XOXw.x.L.].[.",
"n.g.>._ I C y M C C ; X X * * * $ o # * $ + + - - ; < @ - 3 3 r u m r 3 u B u D ;.;.U V #.~ s.z.~ -.3.s.0.%.5.OX6X4XZ.z.x.qXyXyX",
"g.g.g.>.>.P y M C w X X X X + o $ o $ $ = O + - % ; - @ - 3 3 r u u 1 1 9 B u D ;.;.K V @.R s.x.~ 3.;.e.N.Z.+X2X3XW.;.f.p.qXnXnX",
">._ _ &.&.I M w M ; X X X X X o # $ $ $ $ $ $ = % ; % $ % 3 3 e u u 3 < 3 m u D ;.@.B V X.Y p.p. .0.N.V.OX*X2XOXM.%.-.r.0.P.yXkX",
"&.) I I I C M w * X X X X X X X o o # $ $ % % % % % % % % 3 4 7 u u 3 1 r B i K *.#.U  .9.9.s.l.Z.!.!.!.W.Z.*.~ W X.s.e.Y 4. X;X",
"^ I M w q ; * X X     X X X o X X X X o # $ % % % % & < 7 7 a s g D ! ~ ~ / ! } w.N.B.D.A.A.V.Z.P.w.4.! K K d x X.5.%.l S e.z.F.",
"M M * X   X       X X X X X o X X o o o X X o $ % - % : 7 e s N ! ( *.4.X.%.@.%.9.9.9.4.$.X.~ E l s 0 0 D ~ X.o...H j W X.;.w.p.",
"n w ; ; * X       X X X X X . X X o o o o o o o o o o O + % - 4 4 7 0 r 7 9 0 9 9 9 3 9 u d d ~ l A W ~  .} H V S x l $.Z.N.s.x.",
"; ; * ; +     X   X X X X X X X X o o o o o o O O O O % % O O O O O @ % @ & , & 4 s t l K K ~ ~ E } ~ S g 8 , 8 E K W s.s.%.p.J.",
"; ; ; ; * o o X X   . X o X X . . X X X X o o o O O $ % O % > + # : < , , & & 1 s 0 d d d B l p 1 1 , 5 , p 1 5 j ~ #.%.K  .w.J.",
"q n w w ; * *   X o * ; * + o X X X X X o X o o X X o = f C y : O & & % & & & & , & & & < 5 7 s 7 1 7 5 9 d S ~ X.X.E s l 0.;.<.",
"q q w w w q ; + @ ; 2 w w w ; ; ; = O o o o o O O % 6 ` k.` C f e w 4 - & & & & & 5 p p 7 p d V E B d S K Y K K K l 9 B ! @.#.<.",
"; ; ; ; ; ; q n w 2 ; w n y y C I C a w 6 : 6 a - g >.g.h.` I ^ Z U Z e % & 4 5 4 5 a 9 5 r l K  ./ 9 9 9 t K G K A l @.,.;.#.:.",
"; * ; ; ; ; 2 n n y y n n n n n N y e f f a a f e N / _ @.P U U U ) U f e r a e e 7 9 r r S T U @.@.B B l B K S U U U ;.,.;.,.:.",
"w ; ; ; 2 ; w w n n n n n n n n f y e - a f e e Z P P Z Z P P P U @.^ D C n f g N N B B C T  .R ( R Y R T U U Z /  .@.#.@.@.@.;."
};
