/* XPM */
static char *_a872230e9434fcba5af197d940efb18y28QAoV5snoZSfgp[] = {
/* columns rows colors chars-per-pixel */
"64 64 212 2 ",
"   c #060606",
".  c #07060B",
"X  c #0A0A0D",
"o  c #0E0D13",
"O  c #100F15",
"+  c #110F18",
"@  c #121216",
"#  c #15141B",
"$  c #18171E",
"%  c #1A191E",
"&  c #171621",
"*  c #181720",
"=  c #1C1B23",
"-  c #1E1D28",
";  c #211F24",
":  c #211F2A",
">  c #1F2025",
",  c #222125",
"<  c #24232C",
"1  c #292728",
"2  c #29262C",
"3  c #2B2A2D",
"4  c #312D2E",
"5  c #382F2F",
"6  c #36322B",
"7  c #262431",
"8  c #282732",
"9  c #272831",
"0  c #2C2B34",
"q  c #2E2D3A",
"w  c #312E34",
"e  c #302F3B",
"r  c #2F3039",
"t  c #343236",
"y  c #3A3433",
"u  c #3D3B35",
"i  c #34333C",
"p  c #38363C",
"a  c #3B3A3C",
"s  c #423D3B",
"d  c #48443B",
"f  c #52493D",
"g  c #585037",
"h  c #312F42",
"j  c #353441",
"k  c #393643",
"l  c #373847",
"z  c #3B3A44",
"x  c #3D3D4A",
"c  c #423E44",
"v  c #413E4D",
"b  c #3F404E",
"n  c #444246",
"m  c #4D4943",
"M  c #44434C",
"N  c #4A474C",
"B  c #4B4A4E",
"V  c #524C45",
"C  c #564C49",
"Z  c #595447",
"A  c #444452",
"S  c #494752",
"D  c #4C4A53",
"F  c #4C4C5B",
"G  c #504F56",
"H  c #4F5057",
"J  c #535255",
"K  c #565656",
"L  c #54535B",
"P  c #5A5A5E",
"I  c #665A4B",
"U  c #635D4A",
"Y  c #655A51",
"T  c #6E6345",
"R  c #6C6549",
"E  c #726943",
"W  c #70674A",
"Q  c #746B4B",
"!  c #796E4B",
"~  c #7D724C",
"^  c #6E6B58",
"/  c #756757",
"(  c #7D7557",
")  c #504F62",
"_  c #545464",
"`  c #5C5B62",
"'  c #545669",
"]  c #5A596B",
"[  c #5D5E71",
"{  c #605F65",
"}  c #5E6175",
"|  c #506971",
" . c #636065",
".. c #65646A",
"X. c #68666A",
"o. c #6B6A6E",
"O. c #746B61",
"+. c #64786F",
"@. c #79746B",
"#. c #646374",
"$. c #6D6C72",
"%. c #66667A",
"&. c #727277",
"*. c #7D7977",
"=. c #75747A",
"-. c #83744D",
";. c #8C7B4F",
":. c #887B54",
">. c #867A69",
",. c #917E6E",
"<. c #847B76",
"1. c #768170",
"2. c #8C8467",
"3. c #8D8568",
"4. c #8A8777",
"5. c #958A72",
"6. c #979178",
"7. c #A78E78",
"8. c #A4927E",
"9. c #B59B7E",
"0. c #557986",
"q. c #6B6D81",
"w. c #6F6C89",
"e. c #727383",
"r. c #7D7D81",
"t. c #73778A",
"y. c #777994",
"u. c #57879A",
"i. c #698585",
"p. c #79888F",
"a. c #838283",
"s. c #84848B",
"d. c #88868B",
"f. c #8B8A8D",
"g. c #9B9D86",
"h. c #91908B",
"j. c #818393",
"k. c #8D8E92",
"l. c #84899B",
"z. c #86899B",
"x. c #939295",
"c. c #95949C",
"v. c #98979A",
"b. c #9A9A9E",
"n. c #A59883",
"m. c #A39589",
"M. c #B59F88",
"N. c #AAA38C",
"B. c #B7AC98",
"V. c #B7B39D",
"C. c #8C91A6",
"Z. c #9E9DA2",
"A. c #9496A8",
"S. c #949BB1",
"D. c #A09FA5",
"F. c #9DACAA",
"G. c #A3A3A5",
"H. c #ABABA2",
"J. c #A6A6A9",
"K. c #ABABAC",
"L. c #AEB0AD",
"P. c #B9B6A3",
"I. c #BCB5AE",
"U. c #ABACB4",
"Y. c #AFB0B2",
"T. c #B3B2B4",
"R. c #B5B5BA",
"E. c #BBBCBE",
"W. c #C2A587",
"Q. c #C8B297",
"!. c #D4BA9A",
"~. c #C1BBAD",
"^. c #C4C2BA",
"/. c #C8C4BC",
"(. c #D6CAB2",
"). c #A7ACC3",
"_. c #ADB4C2",
"`. c #B5BBC3",
"'. c #BEBEC1",
"]. c #C1BFC3",
"[. c #BEC1CF",
"{. c #C4C3C5",
"}. c #C5C5CB",
"|. c #CBCBCC",
" X c #D8D4C7",
".X c #D5D4CA",
"XX c #CBCCD4",
"oX c #CFD0D7",
"OX c #CED2DB",
"+X c #D3D4D4",
"@X c #D8D6D1",
"#X c #DAD9D4",
"$X c #D6D7D9",
"%X c #DADADA",
"&X c #E3E2DA",
"*X c #DDDEE1",
"=X c #E4E4E5",
"-X c #ECEBE3",
";X c #E6E7EA",
":X c #E8E7E8",
">X c #E5E8EB",
",X c #ECECEC",
"<X c #F0EFE9",
"1X c #F1F1EE",
"2X c #EFEFF0",
"3X c #EFF0F4",
"4X c #F3F3F4",
"5X c #F7F7F5",
"6X c #FAFAF7",
"7X c #F6F6F8",
"8X c #FDFDFD",
"9X c None",
/* pixels */
"9X9X9X9X9X9X9X9X9X9X9X9X9X9X9X9X9X9X9X9X9X9X9X9X9X9X9X9X9X9X9X9X9X9X9X9X9X9X9X9X8X8X9X9X9X9X9X9X9X9X9X9X9X9X9X9X9X9X9X9X9X9X9X9X",
"9X9X9X9X9X9X9X9X9X9X9X9X9X9X9X9X9X9X9X9X9X9X9X9X9X9X9X9X9X9X9X9X9X7XR.L.T.x.}.K.+X8X8X9X9X9X9X9X9X9X9X9X9X9X9X9X9X9X9X9X9X9X9X9X",
"9X9X9X9X9X9X9X9X9X9X9X9X9X9X9X9X9X9X9X9X9X9X9X9X9X9X9X9X9X9X9X=XT.*.S n S N B c P v.:X9X9X9X9X9X9X9X9X9X9X9X9X9X9X9X9X9X9X9X9X9X",
"9X9X9X9X9X9X9X9X9X9X9X9X9X9X9X9X9X9X9X9X9X9X9X9X9X9X9X9X9X8X6XK.a a a N n z a y p { =X8X9X9X9X9X9X9X9X9X9X9X9X9X9X9X9X5X*XE.T.=X",
"9X9X9X9X9X9X9X9X9X9X9X9X9X9X9X9X9X9X9X9X9X9X9X9X9X9X9X9X9X9X6X<.w p t k t 3 3 t 4 p T.8X9X9X9X9X9X9X9X9X9X9X9X6X;X{.k...J o.R.4X",
"9X9X9X9X9X9X9X9X9X9X9X9X9X9X9X9X9X9X9X9X9X9X9X9X9X9X9X9X9X9X#Xn 4 w 5 y w 2 4 y i i ..;X9X9X9X9X9X9X9X9X>X|.v.X.S F &.G.$X7X9X9X",
"9X9X9X9X9X9X9X9X9X9X9X9X9X9X9X9X9X9X9X9X9X9X9X9X9X9X9X9X9X9X$XJ 3 5 Y I , 2 u C s 5 C /.6X9X9X9X,X+XG.$.N i F s.E.;X9X9X9X9X9X9X",
"9X9X9X9X9X9X9X9X9X9X9X9X9X9X9X9X9X9X9X9X9X9X9X9X9X9X9X9X9X6X#X@.3 I O.Z V 5 m c O.m O. X,X$XT.r.N e e P c.|.4X9X9X9X9X9X9X9X9X9X",
"9X9X9X9X9X9X9X9X9X9X9X9X9X9X9X9X9X9X9X9X9X9X9X9X9X9X9X9X9X9X6X^.<./ M.8.Q.n.,.,.M.>.<.f.L q < i X.G.+X4X9X9X9X9X9X9X9X9X9X9X9X9X",
"9X9X9X9X9X9X9X9X9X9X9X9X9X9X9X9X9X9X9X9X9X9X9X9X9X9X9X9X9X9X9X9X,Xh.W.!.!.Q.W.W.n.Y k : c =.T.%X5X9X9X9X9X9X9X9X9X9X9X9X9X9X9X9X",
"9X9X9X9X9X9X9X9X9X9X9X9X9X9X9X9X9X9X9X9X9X9X9X9X9X|.Z.=X6X9X9X9X6XL.<.7.W.M.7.m.<.a.c.].=X8X9X9X9X9X9X9X9X9X9X9X9X9X9X9X9X9X9X9X",
"9X9X9X9X9X9X9X9X9X9X9X9X9X9X9X9X9X9X9X9X9X9X9X9X9XE.< z T.,X;X%XR.&. .V ,.,. .S v r.=X9X9X9X9X9X9X9X9X9X9X9X9X9X9X9X9X9X9X9X9X9X",
"9X9X9X9X9X9X9X9X9X9X9X9X9X9X9X9X9X9X9X9X9X9X9X9X9X}.t $ ..&.n i , ; D S L v - # 8 D.6X9X9X9X9X9X9X9X9X9X9X9X9X9X9X9X9X9X9X9X9X9X",
"9X9X9X9X9X9X9X9X9X9X9X9X9X9X9X9X9X9X9X9X9X9X1X1X=XJ._ 9 < < 2 : c p e %.%.h 2 A %.w.e.U.XX4X8X9X9X9X9X9X9X9X9X9X9X9X9X9X9X9X9X9X",
"9X9X9X9X9X9X9X9X9X9X9X9X9X9X9X9X9X9X9X6X&X(.(.Q.<.G c z = q r.k [ F v w.F i p v v k w ) A.+X9X9X9X9X9X9X9X9X9X9X9X9X9X9X9X9X9X9X",
"9X9X9X9X9X9X9X9X9X9X9X9X9X9X9X9X9X5X%Xb.@.W.9./ / m.&XT.n = = x w.) q.%.j j j e < 2 : k e.A.7X9X9X9X9X9X9X9X9X9X9X9X9X9X9X9X9X9X",
"9X9X9X9X9X9X9X9X9X9X9X9X9X9X=X'.x.` n D t 5 y 1 2 G.9X6X#X` < S v c #.) h v S A 2 X < 8 F p.OX9X9X9X9X9X9X9X9X9X9X9X9X9X9X9X9X9X",
"9X9X9X9X9X9X9X9X9X9X9X9X9X9Xf.t J d.'.;Xk.> < > n =X9X9XE.t < x s c v s e _ k 7 #   = q j %.).>X9X9X9X9X9X9X9X9X9X9X9X9X9X9X9X9X",
"9X9X9X9X9X9X9X9X9X9X9X9X9X9X=XE.,X9X9X2Xp.h > j S {.9X2XL o & x q c J D k F < : # . o < q h y.OX8X8X9X9X9X9X9X9X9X9X9X9X9X9X9X9X",
"9X9X9X9X9X9X9X9X9X9X9X9X9X9X9X9X9X9X9X7XU.[ F x < n |.k.# # & z k k S L c w ; : & o 8 k 7 0 ) _.4X8X9X9X9X9X9X9X9X9X9X9X9X9X9X9X",
"9X9X9X9X9X9X9X9X9X9X9X9X9X9X9X9X9X9X9X9X3Xz.< # # # i $ + o $ 0 v q ) %.e : 4 2 = = D.T.i i z t.OX9X9X9X9X9X9X9X9X9X9X9X9X9X9X9X",
"9X9X9X9X9X9X9X9X9X9X9X9X9X9X9X9X9X9X9X9X9X,Xr.$ + + # . X ; { v v c e.w.* : 8 2 , < a.2X$.8 8 h C.;X9X9X9X9X9X9X9X9X9X9X9X9X9X9X",
"9X9X9X9X9X9X9X9X9X9X9X9X9X9X9X9X9X9X9X9X9X9X4Xr.# X # # q =. .A z x z.] = e w # % ; 3 E.+Xt = 1 x z.4X9X9X9X9X9X9X9X9X9X9X9X9X9X",
"9X9X9X9X9X9X9X9X9X9X9X9X9X9X9X9X9X9X9X9X9X9X9X,XZ.$.` *.+X].j D z v A.F 7 v e % % X X B *XG.i i < z `.7X9X9X9X9X9X9X9X9X9X9X9X9X",
"9X9X9X9X9X9X9X9X9X9X9X9X9X9X9X9X9X9X9X9X9X9X9X9X9X9X6X9X:X$.v S j ] C.x 0 x v 7 2 O   @ <.7Xf.= = i l.;X8X9X9X9X9X9X9X9X9X9X9X9X",
"9X9X9X9X9X9X9X9X9X9X9X9X9X9X9X9X9X9X9X9X9X9X9X9X9X9X9X8Xx.< L x k w.z.q 7 l h : : < X   , R.+Xi 2 q ' }.8X8X9X9X9X9X9X9X9X9X9X9X",
"9X9X9X9X9X9X9X9X9X9X9X9X9X9X9X9X9X9X9X9X9X9X9X9X9X9X9X,X` q G j k j.q.7 7 v h : = z B . . z %X&., q l S.4X9X9X9X9X9X9X9X9X9X9X9X",
"9X9X9X9X9X9X9X9X9X9X9X9X9X9X9X9X9X9X9X9X9X9X9X9X9X9X9XU.q N A j A C._ 7 7 v k 7 8 k H.a   o =.R.e e 0 t.*X9X9X9X9X9X9X9X9X9X9X9X",
"9X9X9X9X9X9X9X9X9X9X9X9X9X9X9X9X9X9X9X9X9X9X9X9X9X6X|.D i ` z k _ A.l 7 7 v x 7 0 i D.R.= . = G.$.0 0 [ [.9X9X9X9X9X9X9X9X9X9X9X",
"9X9X9X9X9X9X9X9X9X9X9X9X9X9X9X9X9X9X9X9X9X9X9X9X>XZ.n q i e q e F %.7 : 7 v l - ; e { <Xh.O + n p.w x } ).,X9X9X9X9X9X8X9X9X9X9X",
"9X9X9X9X9X9X9X9X9X9X9X9X9X9X9X9X9X9X9X9X9X9X6X{...j e q = & 8 0 8 : ; ; * & - o O i n {.4X..o : F p.S.C.l.}.8X9X9X9X8X8X9X9X9X9X",
"9X9X9X9X9X9X9X9X9X9X9X9X9X9X9X9X9X9X9X9X8X$Xf.M e i 8 < < = = = ; ; * : : : & o X < i ..4X*Xn : S #.A h q c.9X9X6X%X.X5X4X8X8X9X",
"9X9X9X9X9X9X9X9X9X9X9X9X9X9X9X9X9X9X9X%Xk.S e i i > # 9 9 < 1 % o o % 0 q 1 < % X @ V u Y.9X^.p F p p p i &.=X-X~.h.h.L.F.>X6X9X",
"9X9X9X9X9X9X9X9X9X9X9X9X9X9X9X9X,X|.k.S e i i 8 $ o $ 9 9 w 1 @ X . = 2 t 7 2 < @ 6 ~ g ` ;X6XF.D p p z p c @.6.2.>.4.g..X4X8X8X",
"9X9X9X9X9X9X9X9X9X9X9X9X8X=X'.f.P k e h j i < # @ @ $ 9 0 9 , @ X O + 2 r 9 < > % 6 g 1.0.F.*X/.4.^ Z i p n *.I..X.X^./.4X8X8X8X",
"9X9X9X9X9X9X9X9X9X9X,X'.s.L i q r i k i 9 & o + # # $ 0 9 , = @ X O @ : 0 0 1 < > > K i.u.u.p.g.5.2.Y C @.I.-X9X9X9X9X9X9X9X9X8X",
"9X9X9X9X9X9X9X6X+Xx._ k q q e q i j 9 < = # + * % $ # 9 7 , > # X @ % , d U W R O.i.i.i.u.u.| x.@X/.o.c r.9X8X8X9X9X9X9X9X9X9X9X",
"9X9X9X9X9X5X}.r.n q q r e i i D s.Z.%.r - & & & $ # $ , 0 < > , 1 d T Q ~ :.2.:.( J s 4 Z +.| F R.9X|.` c =X9X9X9X9X9X9X9X9X9X9X",
"9X9X9X9X=Xs.x e i i h q k { G.%X6X8X2Xk.< = = * # % $ 1 s m R Q -.-.-.-.~ ~ E U s , # @ Z -./ n A J.6X%X .T.9X9X9X9X9X9X9X9X9X9X",
"9X8X8X=Xj.h h j q i A r.E.,X9X9X9X8X9X{.1 & % , 4 d Z R ~ ~ -.~ Q T g s 1 1 4 3 , 1 ; # ; 6 f N A S Z.7X=X|.9X9X9X9X9X9X9X9X9X9X",
"9X9X4X_.' h q 0 H c.$X6X9X9X8X9X9X9X9XT.y d g T W ! ! ! E U f y % % = # o + 9 r 3 2 2 & + O # < v v A Z.5X9X9X9X9X9X9X9X9X9X9X9X",
"8X9X*Xl.l 0 H Z.=X9X9X9X9X9X8X6X&X XV.2.T E E W / ^ *.f.N 1 < = @ O = % @ @ < r q 9 0 - + o $ # : v v A b.5X9X9X9X9X9X9X9X9X9X9X",
"9X,X_.) z f.*X9X9X9X9X8X-X.XV.5.:.T ~ 2.N.P.H.G.U.+X,X4XX.2 2 = @ o # $ @ o - 0 r 0 0 9 $ # $ & # < z v M J.9X8X9X9X9X9X9X9X9X9X",
"8XXXS.s.|.8X8X9X<X@XP.6.( Q ( 5.B.{.&X5X8X9X9X9X9X9X9X8Xx.1 < = # # = % @ @ # 9 r 0 0 q = # $ - $ & ; z v A R.9X9X9X9X9X9X9X9X9X",
"8XOX{.4X6X&XI.6.:.! ( 6.P..X-X4X9X9X9X9X9X9X9X9X9X9X9X9X+Xa , = # # = = $ # # - 0 0 9 0 9 % = 7 & # & : l v L |.9X9X9X9X9X9X9X9X",
"9X8X9X1XV.2.2.N.~.#X1X8X9X9X9X9X9X9X9X9X9X9X9X9X9X9X9X9X=XN > > % @ % % # # * = 0 9 9 9 0 < < 9 - $ & & 7 x x #.=X8X9X9X9X9X9X9X",
"9X9X9X4X&X&X5X8X8X8X9X9X9X9X9X9X9X9X9X9X9X9X9X9X9X9X9X9X=XM < > % @ i z : = - l k.` 9 9 0 0 i x : & * = = : x x x.6X9X9X9X9X9X9X",
"9X9X9X9X9X9X9X8X9X9X9X9X9X9X9X9X9X9X9X9X9X9X9X9X9X9X9X9X=XB 2 > % # ` %.[ _ } U.6XL.0 0 9 r i $.S 8 0 h l x A x F |.9X9X9X9X9X9X",
"9X9X9X9X9X9X9X9X9X9X9X9X9X9X9X9X9X9X9X9X9X9X9X9X9X9X9X9X:XN 3 < % = T.$X$X+X;X8X9X%Xa q 8 q q &.E.e.#.e.c.R.`.k.M s.6X9X9X9X9X9X",
"9X9X9X9X9X9X9X9X9X9X9X9X9X9X9X9X9X9X9X9X9X9X9X9X9X9X9X9X,XF 3 > % p =X9X9X9X9X9X9X7XX.1 w q r P :X2X=X2X9X9X9X5XZ.F XX8X9X9X9X9X",
"9X9X9X9X9X9X9X9X9X9X9X9X9X9X9X9X9X9X9X9X9X9X9X9X9X9X9X9X,XP 9 : $ $.6X9X9X9X9X9X9X9XT.r r q i M +X9X9X9X9X9X9X9X5Xk.r.4X9X9X9X9X",
"9X9X9X9X9X9X9X9X9X9X9X9X9X9X9X9X9X9X9X9X9X9X9X9X9X9X9X9X,X] q < = J.9X9X9X9X9X9X9X9X1X..0 z i p '.9X9X9X9X9X9X9X9X,Xc.XX8X8X9X9X",
"9X9X9X9X9X9X9X9X9X9X9X9X9X9X9X9X9X9X9X9X9X9X9X9X9X9X9X9X,XP 9 : 0 |.9X9X9X9X9X9X9X9X9X{.l x k k J.9X9X9X9X9X9X9X9X8X*X'.7X9X9X9X",
"9X9X9X9X9X9X9X9X9X9X9X9X9X9X9X9X9X9X9X9X9X9X9X9X9X9X9X9X|.S 8 : M ,X9X9X9X9X9X9X9X9X8X6X1.p x i =.4X9X9X9X9X9X9X9X8X8X6X9X9X9X9X",
"9X9X9X9X9X9X9X9X9X9X9X9X9X9X9X9X9X9X9X9X9X9X9X9X9X9X9X9Xx.k 0 7 L ,X9X9X9X9X9X9X9X9X9X9XE.0 A i v {.9X9X9X9X9X9X9X9X9X9X9X9X9X9X",
"9X9X9X9X9X9X9X9X9X9X9X9X9X9X9X9X9X9X9X9X9X9X9X9X9X9X9X9Xx.i 7 < i E.9X9X9X9X9X9X9X9X9X9X,XP x x i G.9X9X9X9X9X9X9X9X9X9X9X9X9X9X",
"9X9X9X9X9X9X9X9X9X9X9X9X9X9X9X9X9X9X9X9X9X9X9X9X9X9X9X9Xk.0 < < < r.9X9X9X9X9X9X9X9X9X9X9XZ.i n t o.,X9X9X9X9X9X9X9X9X9X9X9X9X9X",
"9X9X9X9X9X9X9X9X9X9X9X9X9X9X9X9X9X9X9X9X9X9X9X9X9X9X9X,Xo.0 < < < K ,X9X9X9X9X9X9X9X9X9X9Xs.0 n < i v.9X9X9X9X9X9X9X9X9X9X9X9X9X",
"9X9X9X9X9X9X9X9X9X9X9X9X9X9X9X9X9X9X9X9X9X9X9X9X,X|.J.o.e w 8 8 2 s.9X9X9X9X9X9X9X9X9X9X9Xb.= i i 0 S $X9X9X9X9X9X9X9X9X9X9X9X9X",
"9X9X9X9X9X9X9X9X9X9X9X9X9X9X9X9X9X9X9X9X9X9X9X7Xr.z w q i i 0 9 < s.9X9X9X9X9X9X9X9X9X9X9XT.w k z z L +X9X9X9X9X9X9X9X9X9X9X9X9X",
"9X9X9X9X9X9X9X9X9X9X9X9X9X9X9X9X9X9X9X9X9X9X9X,XP i 3 8 q i D D L J.9X9X9X9X9X9X9X9X9X9X9X$XN a x n G.9X9X9X9X9X9X9X9X9X9X9X9X9X",
"9X9X9X9X9X9X9X9X9X9X9X9X9X9X9X9X9X9X9X9X9X9X9X6X{.G.b.D.Y.{.=X,X,X6X9X9X9X9X9X9X9X9X9X9X9Xk.j z j x v.9X9X9X9X9X9X9X9X9X9X9X9X9X",
"9X9X9X9X9X9X9X9X9X9X9X9X9X9X9X9X9X9X9X9X9X9X9X9X9X9X9X9X9X9X9X9X9X9X9X9X9X9X9X9X9X9X9X9X8Xp.i i t n E.9X9X9X9X9X9X9X9X9X9X9X9X9X",
"9X9X9X9X9X9X9X9X9X9X9X9X9X9X9X9X9X9X9X9X9X9X9X9X9X9X9X9X9X9X9X9X9X9X9X9X9X9X9X9X9X9X9X9X8X.XY.J.J.E.4X9X9X9X9X9X9X9X9X9X9X9X9X9X"
};
