/* XPM */
static char *_9db6441e8e24264fb3a1d3053bc5711WA7sqcd4H7a0XoEc[] = {
/* columns rows colors chars-per-pixel */
"64 64 179 2 ",
"   c #04060C",
".  c #070A10",
"X  c #0B0C12",
"o  c #110F18",
"O  c #120F17",
"+  c #0E1116",
"@  c #0F1318",
"#  c #121215",
"$  c #13161B",
"%  c #16191E",
"&  c #1A1B1C",
"*  c #171B20",
"=  c #191C21",
"-  c #211F26",
";  c #1E2125",
":  c #232424",
">  c #24252A",
",  c #292529",
"<  c #27282C",
"1  c #2A2A2A",
"2  c #292625",
"3  c #2B2D32",
"4  c #302E32",
"5  c #2D3135",
"6  c #2F3239",
"7  c #343335",
"8  c #33343A",
"9  c #39363B",
"0  c #36393D",
"q  c #3C3B3D",
"w  c #3A3637",
"e  c #423C3D",
"r  c #43403F",
"t  c #3C3D42",
"y  c #373B42",
"u  c #413F42",
"i  c #3F434A",
"p  c #434244",
"a  c #454549",
"s  c #49474C",
"d  c #47494C",
"f  c #4A4A4C",
"g  c #4A4644",
"h  c #554E4E",
"j  c #5A4E4D",
"k  c #57524E",
"l  c #464950",
"z  c #4E4E51",
"x  c #514F54",
"c  c #4F5052",
"v  c #535354",
"b  c #565857",
"n  c #55555A",
"m  c #57595C",
"M  c #5A5B5C",
"N  c #585452",
"B  c #6C5C59",
"V  c #605D5D",
"C  c #715B59",
"Z  c #5D5D62",
"A  c #575A63",
"S  c #615F61",
"D  c #5F6262",
"F  c #59646E",
"G  c #596570",
"H  c #59717B",
"J  c #636265",
"K  c #696766",
"L  c #656569",
"P  c #6A6A6C",
"I  c #67686C",
"U  c #786F6F",
"Y  c #6D6D71",
"T  c #766F72",
"R  c #6E7173",
"E  c #737275",
"W  c #797677",
"Q  c #757579",
"!  c #78767B",
"~  c #7B7A7C",
"^  c #866E6A",
"/  c #867674",
"(  c #A9857D",
")  c #637E89",
"_  c #7C7D82",
"`  c #707E86",
"'  c #817E83",
"]  c #68848F",
"[  c #7F8082",
"{  c #6F8994",
"}  c #788A98",
"|  c #7EA0BC",
" . c #6A9EC9",
".. c #7CA2C2",
"X. c #76ABD7",
"o. c #76AEDC",
"O. c #7AB1D8",
"+. c #838385",
"@. c #898485",
"#. c #868788",
"$. c #8B8A8B",
"%. c #8E8F92",
"&. c #908F92",
"*. c #8C9399",
"=. c #939394",
"-. c #999797",
";. c #959699",
":. c #97999B",
">. c #9B9B9D",
",. c #B48F86",
"<. c #BD988E",
"1. c #B49D98",
"2. c #8293A6",
"3. c #9E9DA1",
"4. c #949DA8",
"5. c #9AB5BF",
"6. c #A2A2A4",
"7. c #ABABAC",
"8. c #A7A6A9",
"9. c #B1A6A5",
"0. c #B2A9A8",
"q. c #AEADB1",
"w. c #A3AEBB",
"e. c #B0AFB0",
"r. c #AEB1B5",
"t. c #B4B4B5",
"y. c #B5B6B9",
"u. c #B8B7B8",
"i. c #BCBCBD",
"p. c #C29C92",
"a. c #CFA9A0",
"s. c #C2AEA8",
"d. c #CEBDBA",
"f. c #8CAFCF",
"g. c #8DB6D7",
"h. c #96BAD9",
"j. c #A3BCC5",
"k. c #BCBEC1",
"l. c #8BC3DF",
"z. c #A6C5DC",
"x. c #B1C7D4",
"c. c #99D1E3",
"v. c #B3CEE3",
"b. c #B7D9E6",
"n. c #BEE4EE",
"m. c #B7F5FD",
"M. c #C2C2C3",
"N. c #C8C7C9",
"B. c #C7C8CA",
"V. c #CBCBCB",
"C. c #D3CBC9",
"Z. c #D5C7C4",
"A. c #CFCFD0",
"S. c #CDD3D9",
"D. c #D4D4D4",
"F. c #DBDBDB",
"G. c #D6D8D9",
"H. c #E8DCD9",
"J. c #E3E0DF",
"K. c #CFDDE3",
"L. c #DDDFE1",
"P. c #CAE3E9",
"I. c #DCE6EC",
"U. c #D6E6F2",
"Y. c #CCF3FC",
"T. c #C6F8FF",
"R. c #D7FEFF",
"E. c #D7F5FB",
"W. c #E4E4E4",
"Q. c #E5E8EA",
"!. c #EBEBEB",
"~. c #FEEEE9",
"^. c #F0F0EF",
"/. c #ECF4F8",
"(. c #F4F4F4",
"). c #F9F8F7",
"_. c #F1F7FC",
"`. c None",
"'. c #FFF5F2",
/* pixels */
"`.`.`.`.`.`.`.`.`.`.`.`.`.`.`.`.`.`.`.`.`.`.`.`.`.`.`.`.`.`.`.`.`.`.`.`.`.`.`.`.`.`.`.`.`.`.`.`.`.`.`.`.`.`.`.`.`.`.`.`.`.`.`.(.",
"`.`.`.`.`.`.`.`.`.`.`.`.`.`.`.`.`.`.`.`.`.`.`.`.`.`.`.`.`.`.`.`.`.`.`.`.`.`.`.`.`.`.`.`.`.`.`.`.`.`.`.`.`.`.`.`.`.`.`.`.`.`.`.`.",
"`.`.`.`.`.`.`.`.`.`.`.`.`.`.`.`.`.`.`.`.`.`.`.`.`.`.`.`.`.`.`.`.`.`.`.`.`.`.`.`.`.`.`.`.`.`.`.`.`.`.`.`.`.`.`.`.`.`.`.`.`.`.`.`.",
"`.`.`.`.`.`.`.`.`.`.`.`.`.`.`.`.`.`.`.`.`.`.`.`.`.`.`.`.`.`.`.`.`.`.`.`.`.`.`.`.`.`.`.`.`.`.`.`.`.`.`.`.`.`.`.`.`.`.`.`.`.`.`.`.",
"`.`.`.`.`.`.`.`.`.`.`.`.`.`.`.`.`.`.`.`.`.`._.`.`.`.`.`.`.`.`.`.`.`.`.`.`.`.`.`.`.`.`.`.`.`.`.`.`.`.`.`.`.`.`.`.`.`.`.`.`.`.`.`.",
"`.`.`.`.`.`.`.`.`.`.`.`.`.`.`.`.`.`.`.`.6.[ R ( #.`.`.`.`.`.`.`.`.`.`.`.`.`.`.`.`.`.`.`.`.`.`.`.`.`.`.`.`.`.`.`.`.`.`.`.`.`.`.`.",
"`.`.`.`.`.`.`.`.`.`.`.`.`.`.`.`.`.`.`.$.$.*.=.=.K 9 `.`.`.`.`.`.`.`.`.`.`.`.`.`.`.`.`.`.`.`.`.`.`.`.`.`.`.`.`.`.`.`.`.`.`.`.`.`.",
"`.`.`.`.`.`.`.`.`.`.`.`.`.`.`.`.`.`.-.E =.:.$.%.M 1 J `.`.`.`.`.`.`.`.`.`.`.`.`.`.`.`.`.`.`.`.`.`.`.`.`.`.`.`.`.`.`.`.`.`.`.`.`.",
"`.`.`.`.`.`.`.`.`.`.`.`.`.`.`.`.`.`.@.+.&.@.@.c 7 7 e `.`.`.`.`.`.`.`.`.`.`.`.`.`.`.`.`.`.`.`.`.`.`.`.`.`.`.`.`.`.`.`.`.`.`.`.`.",
"`.`.`.`.`.`.`.`.`.`.`.`.`.`.`.`.`.t.p J K ^ k ; p 9 t `.`.`.`.`.`.`.`.`.`.`.`.`.`.`.`.`.`.`.`.`.`.`.`.`.`.`.`.`.`.`.`.`.`.`.`.`.",
"`.`.`.`.`.`.`.`.`.`.`.`.`.`.`.`.`.`.R - w j j b B r E `.`.`.`.`.`.`.`.`.`.`.`.`.`.`.`.`.`.`.`.`.`.`.`.`.`.`.`.`.`.`.`.`.`.`.`.`.",
"`.`.`.`.`.`.`.`.`.`.`.`.`.`.`.`.`.`.M.4 9.C.Z.C.B X 6.`.`.`.`.`.`.`.`.`.`.`.`.`.`.`.`.`.`.`.`.`.`.`.`.`.`.`.`.`.`.`.`.`.`.`.`.`.",
"`.`.`.`.`.`.`.`.`.`.`.`.`.`.`.`.`.(.F.f 0.'.).H.C $ > `.`.`.`.`.`.`.`.`.`.`.`.`.`.`.`.`.`.`.`.`.`.`.`.`.`.`.`.`.`.`.`.`.`.`.`.`.",
"`.`.`.`.`.`.`.`.`.`.`.`.`.`.`.`.`.(.^.8.8 t.d.p.( 7 ; Y `.`.`.`.`.`.`.`.`.`.`.`.`.`.`.`.`.`.`.`.`.`.`.`.`.`.`.`.`.`.`.`.`.`.`.`.",
"`.`.`.`.`.`.`.`.`.`.`.`.`.`.`.`.`.!.e.;.s K ,.<.a.T > > Q `.`.`.`.`.`.`.`.`.`.`.`.`.`.`.`.`.`.`.`.`.`.`.`.`.`.`.`.`.`.`.`.`.`.`.",
"`.`.`.`.`.`.`.`.`.`.`.`.`.!.`.`.W.E a 9 n a &.Z.~.K 3 8 > L F.`.`.`.`.`.`.`.`.`.`.`.`.`.`.`.`.`.`.`.`.`.`.`.`.`.`.`.`.`.`.`.`.`.",
"`.`.`.`.`.`.`.`.`.`.`.`.`.Q.j.x.j.` W 0.s.x.2.2.j.} G G A Z Q 8.H.`.`.`.).`.`.`.`.`.`.`.`.`.`.`.`.`.`.`.`.`.`.`.`.`.`.`.`.`.`.`.",
"`.`.`.`.`.`.`.`.`.`.`.`.`.A.L Q D t / 1.<.2.f... .X.X.o.O.l.l.c.m.T.T.R.Y.E.E.P.K.S.I._.U._.).`.`.`.`.`.`.`.`.`.`.`.`.`.`.`.`.`.",
"`.`.`.`.`.`.`.`.`.`.`.`.M.n 8 8 3 & + q T 8 P Y Z R _ 4./.U.*.H ) { ] j.Y.Y.n.b.z.h.z.h.g.v./.`.`.`.`.`.`.`.`.`.`.`.`.`.`.`.`.`.",
"`.`.`.`.`.`.`.`.`.`.`.`.=.; n ~ 7.G.i.8 M m L _ Z ! _ 7.`.`.!.8.9 , q u @.!.(.H.`.`.`.`.`.`.).`.`.`.`.`.`.`.`.`.`.`.`.`.`.`.`.`.",
"`.`.`.`.`.`.`.`.`.`.`.`.`.`.).`.`.).!.a t n S Z A P b 6.(.`.`.`.!.Q < 8 < t q.`.`.`.`.`.`.`.`.`.`.`.`.`.`.`.`.`.`.`.`.`.`.`.`.`.",
"`.`.`.`.`.`.`.`.`.`.`.`.`.`.`.`.`.`.Q.%.3 x J E J M m ;.Q.`.`.`.`.`.u.y > < ; +._.`.`.`.`.`.`.`.`.`.`.`.`.`.`.`.`.`.`.`.`.`.`.`.",
"`.`.`.`.`.`.`.`.`.`.`.`.`.`.`.`.`.`.`.D.a 3 J E v M M ! !.`.`.`.).`.`.D.t ; 8 < Q ^.).`.`.`.`.`.`.`.`.`.`.`.`.`.`.`.`.`.`.`.`.`.",
"`.`.`.`.`.`.`.`.`.`.`.`.`.`.`.`.`.`.`.!.E = L P b b M Z F.`.`.`.`.`.`.`.M.y < > 6 Q =.t.`.`.`.`.`.`.`.`.`.`.`.`.`.`.`.`.`.`.`.`.",
"`.`.`.`.`.`.`.`.`.`.`.`.`.`.`.`.`.`.`.`.t.8 Q M b b M a M.`.`.`.`.`.`.`.`.A.#.S Y Z Y n L.(.`.`.`.`.`.`.`.`.`.`.`.`.`.`.`.`.`.`.",
"`.`.`.`.`.`.`.`.`.`.`.`.`.`.`.`.`.`.`.`.~ v P v b b b d I `.`.`.`.`.`.`.`.`.(.Q.3.n A a 3.`.).`.`.`.`.`.`.`.`.`.`.`.`.`.`.`.`.`.",
"`.`.`.`.`.`.`.`.`.`.`.`.`.`.`.`.`.`.`.N.3 P M d v b f A < t.(.`.`.`.`.`.`.`.`.`.A.t.D.L   n L.^.`.`.`.`.`.`.`.`.`.`.`.`.`.`.`.`.",
"`.`.`.`.`.`.`.`.`.`.`.`.`.`.`.`.`.`.`.q.a R p c a f a v c v !.`.`.`.`.`.`.`.`.`.`.`.`.`.7.- = &.W.`.`.`.`.`.`.`.`.`.`.`.`.`.`.`.",
"`.`.`.`.`.`.`.`.`.`.`.`.`.`.`.`.`.!.(.S J Z 9 c 8.r.a 7 M 8 +.`.`.`.`.`.`.`.`.`.`.`.`.`.`.F.A o m V._.`.`.`.`.`.`.`.`.`.`.`.`.`.",
"`.`.`.`.`.`.`.`.`.`.`.`.`.`.`.`.`.`.>.a Y 9 q p W W p p p c t C.).`.`.`.`.`.`.`.`.`.`.`.`.W.^.q.i t 8.`.`.`.`.`.`.`.`.`.`.`.`.`.",
"`.`.`.`.`.`.`.`.`.`.`.`.`.`.`.`.`.!.E Y u 7 f c q q c c g q a p x.`.!.`.`.`.`.`.`.`.`.`.`.`.`.`.Q.` 5 L B.`.`.`.`.`.`.`.`.`.`.`.",
"`.`.`.`.`.`.`.`.`.`.`.`.`.`.`.).`.y.Y n : 1 1 q q p a s f f i d 8 ;.(.W.`.`.`.`.`.`.`.`.`.`.`.`.`.).y.l t :.`.`.`.`.`.`.`.`.`.`.",
"`.`.`.`.`.`.`.`.`.`.`.`.`.`.`.`.^.Q D 7 q 1 : > > 1 1 q c f v D l 8 n i.(.`.`.`.`.`.`.`.`.`.`.`.`.`.`.L._ y F G.`.`.`.`.`.`.`.`.",
"`.`.`.`.`.`.`.`.`.`.`.`.`.`.`.`.8.Y L f q 1 1 ; & ; 2 1 q s m L p 3 y 8 +.(.).`.`.`.`.`.`.`.`.`.`.`.`.`.`.k.t < %.W.`.`.`.`.`.`.",
"`.`.`.`.`.`.`.`.`.`.`.`.`.`.`.`.! M P v 1 1 : * = % ; : 2 9 v E g : > y 6 a =.V.!.`.`.`.`.`.`.`.`.`.`.`.`.`.!._ * u k.).`.`.`.`.",
"`.`.`.`.`.`.`.`.`.`.`.`.`.`.`.7.f D E 7 2 1 = = * ; % ; 1 1 7 b c 1 2 % 5 t 3 3 J t.`.`.`.`.`.`.`.`.`.`.`.).`.(.7.3 o $.).`.`.`.",
"`.`.`.`.`.`.`.`.`.`.`.`.`.`.`.=.i b h : 1 ; * = = % ; % ; 1 1 7 h p 1 : $ = z I t < I D.`.`.`.`.`.`.`.`.`.`.`.`.`.L.! X u Q.`.`.",
"`.`.`.`.`.`.`.`.`.`.`.`.`.`.).J g z 5 1 : * = = = * * * % ; 1 1 7 f 7 < ; * % 8 Y P y y ' G.^.).).`.`.`.`.`.`.`.`.`.`.M.s Z `.`.",
"`.`.`.`.`.`.`.`.`.`.`.`.`.).M.p c p 1 < = = * = = * % * ; % ; 1 1 7 p 1 > = = % * z E x 4 z e.`.`.`.`.`.`.`.`.`.`.`.`.`.`.`.`.`.",
"`.`.`.`.`.`.`.`.`.`.`.`.`.(.[ p c 4 1 ; % = = = * = ; * % = % = 1 1 7 1 < ; * = * o y T A t 9 &.).`.`.`.`.`.`.`.`.`.`.`.`.`.`.`.",
"`.`.`.`.`.`.`.`.`.`.`.`.`.D.f c q 1 : * = = = = = = = = = * 3 % = 2 1 1 2 : * * * ; $ > m x a 6 T (.`.`.`.`.`.`.`.`.`.`.`.`.`.`.",
"`.`.`.`.`.`.`.`.`.`.`.`.`.;.g g 1 2 % * % = = * = * & = = @ c W   ; 1 1 1 1 ; * ; % = c 8.;.s a t Q F.).(.`.`.`.`.`.`.`.`.`.`.`.",
"`.`.`.`.`.`.`.`.`.`.`.`.k.g f 5 1 ; * = ; * = = = = = = = * % x.V . : 1 1 1 ; & % 3 8.`.`.)._ z t z 6.`.`.`.`.`.`.`.`.`.`.`.`.`.",
"`.`.`.`.`.`.`.`.`.`.`.N.q 0 q 2 ; % * = * = = = = = = * = ; . W !.i @ 1 1 1 2 $ p `.`.`.).`.W.Y s s #.`.`.`.`.`.`.`.`.`.`.`.`.`.",
"`.`.`.`.`.`.`.`.`._.W.N q 1 : % % = = * = = = & * = = * = = $ 4 I.B.< 7 1 1 : p D.`.`.`.`.`.`.i.A s E (.`.`.`.`.`.`.`.`.`.`.`.`.",
"`.`.`.`.`.`.`.`.`.(.W g i : a ; % = = = = = = = = = = = = & = + 7.`.k.a a 1 : i.`.`.`.`.`.`.!.`.6.n L G.^.`.`.`.`.`.`.`.`.`.`.`.",
"`.`.`.`.`.`.`.`.`.i.p k 2 r M.& * ; * = = = = = * = = * * ; ; + J `.).+.a r & e.`.`.`.`.`.`.`.`.(.E P i.W.`.`.`.`.`.`.`.`.`.`.`.",
"`.`.`.`.`.`.`.`.`.W g r & x.J.$ * = * = * = = = = * = = ; * * % > W.).>.p a & ~ `.`.`.`.`.`.`.).`.i.J N.Q.`.`.`.`.`.`.`.`.`.`.`.",
"`.`.`.`.`.`.`.`.B.g a : =.`.F.$ % = = = = = = = = ; = * * * * =   -.`.t.a f : N `.`.`.`.`.`.`.`.`.).E V.W.`.`.`.`.`.`.`.`.`.`.`.",
"`.`.`.`.`.`.`.).W a : #.).(.i.+ = ; = * = ; = % $ % % > 3 3 < 8 a %.(.!.J a 4 7 W.`.`.`.`.`.`.`.`.`.>.u.).`.`.`.`.`.`.`.`.`.`.`.",
"`.`.`.`.`.`.!.e.q q V `.`.`.3.+ & = = = % @ ; t Z +.u.`.`.`.`.`.`.`.`.`.8.r q : u.`.`.`.`.`.`.`.`.`.k.3.`.`.`.`.`.`.`.`.`.`.`.`.",
"`.`.`.`.`.^.F.a t f F.`.).).>.. ; = $ % s #.t.`.`.`.`.`.`.`.`.`.`.`.`.`.(.J q & =.`.`.`.`.`.`.`.`.`.`.`.`.`.`.`.`.`.`.`.`.`.`.`.",
"`.`.`.`.`.V.b 7 q L `.`.`.`.[ . ; $ f `.`.`.`.`.`.`.`.`.`.`.`.`.`.`.`.`.`.-.p 7 b F.`.`.`.`.`.`.`.`.`.`.`.`.`.`.`.`.`.`.`.`.`.`.",
"`.`.`.`.`.&.1 e : E `.(.(.`.[   ; +.(.`.`.`.`.`.`.`.`.`.`.`.`.`.`.`.`.`.`.u.2 7 & K (.`.`.`.`.`.`.`.`.`.`.`.`.`.`.`.`.`.`.`.`.`.",
"`.`.`.`.`.Y q u # W `.`.`.`.R @ `.`.`.`.`.`.`.`.`.`.`.`.`.`.`.`.`.`.`.`.`.-.2 e u a (.`.`.`.`.`.`.`.`.`.`.`.`.`.`.`.`.`.`.`.`.`.",
"`.`.`.`.`.x q > p W.`.`.`.).v ! `.`.`.`.`.`.`.`.`.`.`.`.`.`.`.`.`.`.`.`.`.G.v t p 3 F.`.`.`.`.`.`.`.`.`.`.`.`.`.`.`.`.`.`.`.`.`.",
"`.`.`.`.`.p 8 = i.(.`.`.`.(.8 >.`.`.`.`.`.`.`.`.`.`.`.`.`.`.`.`.`.`.`.`.`.`.`.3 s < k.`.`.`.`.`.`.`.`.`.`.`.`.`.`.`.`.`.`.`.`.`.",
"`.`.`.`.`.h 1 P `.!.`.`.`.`.`.`.`.`.`.`.`.`.`.`.`.`.`.`.`.`.`.`.`.`.`.`.`.`.`.S q , #.^.`.`.`.`.`.`.`.`.`.`.`.`.`.`.`.`.`.`.`.`.",
"`.`.`.`.N.i.! u.!.`.`.`.`.`.`.`.`.`.`.`.`.`.`.`.`.`.`.`.`.`.`.`.`.`.`.`.`.`.`.`.g E P ).`.`.`.`.`.`.`.`.`.`.`.`.`.`.`.`.`.`.`.`.",
"`.`.`.`.' S M M.`.`.`.`.`.`.`.`.`.`.`.`.`.`.`.`.`.`.`.`.`.`.`.`.`.`.`.`.`.`.`.`.=.M.+.V.`.`.`.`.`.`.`.`.`.`.`.`.`.`.`.`.`.`.`.`.",
"`.`.`.`.w V r 9.`.`.`.`.`.`.`.`.`.`.`.`.`.`.`.`.`.`.`.`.`.`.`.`.`.`.`.`.`.`.`.`.S v N V C.`.`.`.`.`.`.`.`.`.`.`.`.`.`.`.`.`.`.`.",
"`.`.`.`.e r 1 ~ `.`.`.`.`.`.`.`.`.`.`.`.`.`.`.`.`.`.`.`.`.`.`.`.`.`.`.`.`.`.`.`.k q h w p `.`.`.`.`.`.`.`.`.`.`.`.`.`.`.`.`.`.`.",
"`.`.`.`.`.-.>.V.`.`.`.`.`.`.`.`.`.`.`.`.`.`.`.`.`.`.`.`.`.`.`.`.`.`.`.`.`.`.`.`.`.! k 7 S `.`.`.`.`.`.`.`.`.`.`.`.`.`.`.`.`.`.`.",
"`.`.`.`.`.`.`.`.`.`.`.`.`.`.`.`.`.`.`.`.`.`.`.`.`.`.`.`.`.`.`.`.`.`.`.`.`.`.`.`.`.`.!.C.W.`.`.`.`.`.`.`.`.`.`.`.`.`.`.`.`.`.`.`."
};
