/* XPM */
static char *result[] = {
/* columns rows colors chars-per-pixel */
"64 64 48 1 ",
"  c #342516",
". c #362817",
"X c #3A2817",
"o c #3C2B19",
"O c #422E1B",
"+ c #45311D",
"@ c #49351F",
"# c #443525",
"$ c #4B3620",
"% c #453827",
"& c #4E3821",
"* c #463828",
"= c #543C24",
"- c #583F26",
"; c #533F2A",
": c #5A4127",
"> c #56412B",
", c #5E4428",
"< c #61462A",
"1 c #65492B",
"2 c #6A4D2D",
"3 c #6E502F",
"4 c #644C31",
"5 c #6E4F30",
"6 c #6E5131",
"7 c #735431",
"8 c #785733",
"9 c #7C5A35",
"0 c #54504B",
"q c #5A544E",
"w c #585653",
"e c #5C5854",
"r c #5B5A59",
"t c #625B54",
"y c #615E5B",
"u c #5F5F60",
"i c #805D37",
"p c #825F38",
"a c #856039",
"s c #8B653C",
"d c #8F683D",
"f c #926A3F",
"g c #8D6A43",
"h c #966D41",
"j c #986F42",
"k c #9B7143",
"l c #868686",
"z c #8A8681",
/* pixels */
"dddsi9aasdddds72OO7psgdspiipssiiii83<<58iiiiiiiiiiiip9<:129asdds",
"sdssa99asdddds72OO9pgpssiiiissii8855<<57ip9i99ii9iii981<129isdss",
"pp9paassddkkfs61OOpspiipppiiii51--<<11777777777777991<3377iisdai",
"999999sdsdkhsa31O+9pi88888889821-,<<2277777777777797<<3378iassia",
"<<22789ads987897OX##++@@+@&=--,<889998877777772221==,,,18issddss",
"<<126799aa737799# Xo#*##OO$&--<19iiiii877777332111&=,,<199ssssss",
"76332222,:,<12sa#  *glr0*$-,5555iiiiipssiii9<<12<,<137aa888888ia",
"77771111:-,123sa*..*lluw;-,157889i9i99spi898<<11<<1238ss83773399",
"7777---<238999da+O-1yurtgfi7778i778722<<::-:35733383777873122222",
"3335<-<178iiaada+O,<qqethkii77ii73321<<:---:77778833777783321111",
"--15ppi9sssssdkf+X+@;;45sdiiii87<,==--:<37377777773878i93398<,12",
"-<15sdppsddddfkf+O$=-,55spiii875<,&=-:<<777777778787839911981123",
"8i9ippipdsddddfa++sfsshhpi1<22<<378999i9i9iiiiii999i7721<<13assa",
"88778888psppppp9++afppgdi7,-<,-:2388889787888788888833<<-,<1aaaa",
"OO+OOOOOOOOO+++OXX++++OOOOOOOOOOOOOOOOOOOOOOOOOO+OOOOOOOoOOO+OOO",
"++O+OOOOOOOOOOOO+O+OO+OOOOOO+OO+O+O+O++O+OOXOOO++O+++++++O+O++OO",
"pp878787::<188888888pp72<188iippaaaaaaaa97@@,19aiapaffffffapaaaa",
"ddiiiii81<13iippppiipp7312iisssssssssssa98-=23sdddddffkkkkddddsd",
"ddpi22<1578isdsdpiii11::1278887778877887,:11assddsii89dddaddssdd",
"spi822<<57iipdspii77,:--1257777773373332==12asssssi978ssapddssss",
"22<1378877ii88871,&$=-11117777772221<,::==,18878887778ipddkfsi33",
"22137ipp88ii7733<:$+=:21227737332111:::==:,<337333777388adff9822",
"77fkkfdsssii75<<111155ii757322126331:=1111332212223821::,,23<189",
"78fkffssppii55<:112555i877732222332,=:1212772222223311::=:2311ii",
"ii87332323==&==-1177777722223773::,,::1237739999331<,,3338fffddd",
"ii772211<<=&=-::2578887722113332::,,112378789i9983<<<17879ffffdd",
"dspi21<<<<8ippaapsssspii7321<<&=2337asssi987871<,<3389sa99aakkfk",
"dsi821<1<<iisddsdsssssii7721<-==7888sdssii8973<<<1789asdaaiafkkk",
"da3222ppi8iiipiippiipppiii<<<<8issssssdsddff839iaaiiiiiassdsdaff",
"pi1<<1ii8788888i8i8i888877-=--789aaiaaaaasdd3388aa988888iaaa99aa",
"++OOOOO++O+OOOO+OOOOOOOO+OOOOOOO+++++++++O++OOOO++OOOOOOO+++OOO+",
"+++++++O+++O++++++++OOOOOOOOO+OO++O++++oOOOOOOooO+++++++O+O++OOo",
"ffffaaaaaaaaffffffff97321178ppppaippap97522585OOshffsaaaa9aa8711",
"kkffssssssddfkkkkkkfi97211ipssssassssa997777i8O+fkkjddssssas8811",
"da88788778a99988883222<<1277233211221122--4498O@hkspa98833::&@@&",
"9977777773893333331<11,,11231<1<:,11:,,,==<,87OOsd9899331,=&++==",
"87777331,,::::@==&&@@@==-=@@&&+@@&::-=X.%###$@oo++#$371:=&@+:,88",
"88778821<,::==@@@@@@@+====@+@@@+&&<<-&oo**##$+oXoOoo13::&@#$,199",
"ss9asa99731,&&++oo@+&=========--:<33<<7tglrq51Oo:-++&=:=113399a9",
"dda9sa98331,&$@+++@@=---====---<:<22<<iszlur62OO--++@@=:137899a9",
"dsa92,:@+++@:,<163113633,:@&,:-===&=3377yyre51OXoo++@&:<89777787",
"ss98,:&@++@@,<1373223373<:&&-,===-&=3775qeww1<oX+++@@@:,99777773",
"9931&$::23237311121121,,,:===-:<113321<<;;;;,-OO231<<,=:777773<,",
"9921:&::779i8833322222<1<<-:--<<37773312,-,,1:OO3832<<,,38877711",
"<<13asasfkkkkkkfss999999999937asffkfkkffssssfs++sjss99aaa99asa99",
"::<19aaaffffffffaa888888887833iafffdffddpipsfa++sds998aa8888aa98",
"oooo+++++++++++++++OOO+OOOOO+O+O@@++@++++O++++OX++++O+O+OOO++++O",
"+++++o++O+++O+OOoOOo+O+++Ooo++++++++OOOOOOO++OO+++oooOOOOOOOOo++",
"aaaaaaaaaa8888881,,1aaaaa9++sdaiiaai1,:,79ppappaa91<<123788888aa",
"dssssssaaa9899986636sdddda++shssdssa21,<9issssssss332237999989as",
"aaai8831:===::,189askkddda+o,1:,7732:-,,772222238737732222<<::==",
"77883311@@@==::178aadds9a9Oo::-:331<:-,<55211212333333111<::==@@",
"ooo+@:&=:,113311oo...o+o++oO-,,,,,,,373321<<1211::@=&=&&@@+@@@@@",
"..oo+@@&:,11331,o. ....ooooo--:::-:,237721,<<11<:=:@@@@&@+@+@===",
"::&@@@@@:,,,,,,,>:,,77=&=&oooOoo .++@&377311=&=-,2881:::11112333",
":::=&&&=::,,,,,,,,2287-&=&oo+#++..++@&23721<&&=-<1881,1,11127777",
"11,,::::&@==11,,,,1<+oo+++o+sfaa62111,,1-=$$--,:-=-,333373<<7777",
"11,,,,,:&===,,::,,21+o#+&$o+sfsa63,111,,-=$@-,,,---,377773<<3777",
",,,:====11,:o.+@<29998aahs+o+$++o+++,,11,---,,113388222112111237",
",,,,--:,11::o.@&<29i9asdjs+o$&@++#o+,,12<<1<<<2278i9322222223277",
",,11118921++2233<<22789aa9++sfffsi,:337777999999i9iii99ii9999977",
"--<<11771,o+2322::,<268886o+sfffa9,:2323227888888888878888878733",
"OoOOo+++oooX+oo+oOoOOO+O++oo+@++Oo.Xo.oooooooOoooOoooo++++++++OO",
"XoXXXX.ooooXoo.ooXooXXXXXXXXXXoX   ..                 XXXXXXXXXX"
};
