/* XPM */
static char *e91c61f2b101407dc8649a452f5b6f2fiWo0ohSEZv1dcbs8[] = {
/* columns rows colors chars-per-pixel */
"64 64 179 2 ",
"   c #04060C",
".  c #070A10",
"X  c #0B0C12",
"o  c #110F18",
"O  c #120F17",
"+  c #0E1116",
"@  c #0F1318",
"#  c #121215",
"$  c #13161B",
"%  c #16191E",
"&  c #1A1B1C",
"*  c #171B20",
"=  c #191C21",
"-  c #211F26",
";  c #1E2125",
":  c #232424",
">  c #24252A",
",  c #292529",
"<  c #27282C",
"1  c #2A2A2A",
"2  c #292625",
"3  c #2B2D32",
"4  c #302E32",
"5  c #2D3135",
"6  c #2F3239",
"7  c #343335",
"8  c #33343A",
"9  c #39363B",
"0  c #36393D",
"q  c #3C3B3D",
"w  c #3A3637",
"e  c #423C3D",
"r  c #43403F",
"t  c #3C3D42",
"y  c #373B42",
"u  c #413F42",
"i  c #3F434A",
"p  c #434244",
"a  c #454549",
"s  c #49474C",
"d  c #47494C",
"f  c #4A4A4C",
"g  c #4A4644",
"h  c #554E4E",
"j  c #5A4E4D",
"k  c #57524E",
"l  c #464950",
"z  c #4E4E51",
"x  c #514F54",
"c  c #4F5052",
"v  c #535354",
"b  c #565857",
"n  c #55555A",
"m  c #57595C",
"M  c #5A5B5C",
"N  c #585452",
"B  c #6C5C59",
"V  c #605D5D",
"C  c #715B59",
"Z  c #5D5D62",
"A  c #575A63",
"S  c #615F61",
"D  c #5F6262",
"F  c #59646E",
"G  c #596570",
"H  c #59717B",
"J  c #636265",
"K  c #696766",
"L  c #656569",
"P  c #6A6A6C",
"I  c #67686C",
"U  c #786F6F",
"Y  c #6D6D71",
"T  c #766F72",
"R  c #6E7173",
"E  c #737275",
"W  c #797677",
"Q  c #757579",
"!  c #78767B",
"~  c #7B7A7C",
"^  c #866E6A",
"/  c #867674",
"(  c #A9857D",
")  c #637E89",
"_  c #7C7D82",
"`  c #707E86",
"'  c #817E83",
"]  c #68848F",
"[  c #7F8082",
"{  c #6F8994",
"}  c #788A98",
"|  c #7EA0BC",
" . c #6A9EC9",
".. c #7CA2C2",
"X. c #76ABD7",
"o. c #76AEDC",
"O. c #7AB1D8",
"+. c #838385",
"@. c #898485",
"#. c #868788",
"$. c #8B8A8B",
"%. c #8E8F92",
"&. c #908F92",
"*. c #8C9399",
"=. c #939394",
"-. c #999797",
";. c #959699",
":. c #97999B",
">. c #9B9B9D",
",. c #B48F86",
"<. c #BD988E",
"1. c #B49D98",
"2. c #8293A6",
"3. c #9E9DA1",
"4. c #949DA8",
"5. c #9AB5BF",
"6. c #A2A2A4",
"7. c #ABABAC",
"8. c #A7A6A9",
"9. c #B1A6A5",
"0. c #B2A9A8",
"q. c #AEADB1",
"w. c #A3AEBB",
"e. c #B0AFB0",
"r. c #AEB1B5",
"t. c #B4B4B5",
"y. c #B5B6B9",
"u. c #B8B7B8",
"i. c #BCBCBD",
"p. c #C29C92",
"a. c #CFA9A0",
"s. c #C2AEA8",
"d. c #CEBDBA",
"f. c #8CAFCF",
"g. c #8DB6D7",
"h. c #96BAD9",
"j. c #A3BCC5",
"k. c #BCBEC1",
"l. c #8BC3DF",
"z. c #A6C5DC",
"x. c #B1C7D4",
"c. c #99D1E3",
"v. c #B3CEE3",
"b. c #B7D9E6",
"n. c #BEE4EE",
"m. c #B7F5FD",
"M. c #C2C2C3",
"N. c #C8C7C9",
"B. c #C7C8CA",
"V. c #CBCBCB",
"C. c #D3CBC9",
"Z. c #D5C7C4",
"A. c #CFCFD0",
"S. c #CDD3D9",
"D. c #D4D4D4",
"F. c #DBDBDB",
"G. c #D6D8D9",
"H. c #E8DCD9",
"J. c #E3E0DF",
"K. c #CFDDE3",
"L. c #DDDFE1",
"P. c #CAE3E9",
"I. c #DCE6EC",
"U. c #D6E6F2",
"Y. c #CCF3FC",
"T. c #C6F8FF",
"R. c #D7FEFF",
"E. c #D7F5FB",
"W. c #E4E4E4",
"Q. c #E5E8EA",
"!. c #EBEBEB",
"~. c #FEEEE9",
"^. c #F0F0EF",
"/. c #ECF4F8",
"(. c #F4F4F4",
"). c #F9F8F7",
"_. c #F1F7FC",
"`. c None",
"'. c #FFF5F2",
/* pixels */
"(.`.`.`.`.`.`.`.`.`.`.`.`.`.`.`.`.`.`.`.`.`.`.`.`.`.`.`.`.`.`.`.`.`.`.`.`.`.`.`.`.`.`.`.`.`.`.`.`.`.`.`.`.`.`.`.`.`.`.`.`.`.`.`.",
"`.`.`.`.`.`.`.`.`.`.`.`.`.`.`.`.`.`.`.`.`.`.`.`.`.`.`.`.`.`.`.`.`.`.`.`.`.`.`.`.`.`.`.`.`.`.`.`.`.`.`.`.`.`.`.`.`.`.`.`.`.`.`.`.",
"`.`.`.`.`.`.`.`.`.`.`.`.`.`.`.`.`.`.`.`.`.`.`.`.`.`.`.`.`.`.`.`.`.`.`.`.`.`.`.`.`.`.`.`.`.`.`.`.`.`.`.`.`.`.`.`.`.`.`.`.`.`.`.`.",
"`.`.`.`.`.`.`.`.`.`.`.`.`.`.`.`.`.`.`.`.`.`.`.`.`.`.`.`.`.`.`.`.`.`.`.`.`.`.`.`.`.`.`.`.`.`.`.`.`.`.`.`.`.`.`.`.`.`.`.`.`.`.`.`.",
"`.`.`.`.`.`.`.`.`.`.`.`.`.`.`.`.`.`.`.`.`.`.`.`.`.`.`.`.`.`.`.`.`.`.`.`.`.`.`.`.`.`.`.`.`.`.`.`.`.`.`.`.`.`.`.`.`.`.`.`.`.`.`.`.",
"`.`.`.`.`.`.`.`.`.`.`.`.`.`.`.`.`.`.`.`.`.`.`.`.`.`.`.`.`.`.`.`.`.`.`.`.`.`.`.#.[ W +.6.`.`.`.`.`.`.`.`.`.`.`.`.`.`.`.`.`.`.`.`.",
"`.`.`.`.`.`.`.`.`.`.`.`.`.`.`.`.`.`.`.`.`.`.`.`.`.`.`.`.`.`.`.`.`.`.`.`.`.`.w I -.=.=.$.#.`.`.`.`.`.`.`.`.`.`.`.`.`.`.`.`.`.`.`.",
"`.`.`.`.`.`.`.`.`.`.`.`.`.`.`.`.`.`.`.`.`.`.`.`.`.`.`.`.`.`.`.`.`.`.`.`.`.V 4 M &.$.-.=.E -.`.`.`.`.`.`.`.`.`.`.`.`.`.`.`.`.`.`.",
"`.`.`.`.`.`.`.`.`.`.`.`.`.`.`.`.`.`.`.`.`.`.`.`.`.`.`.`.`.`.`.`.`.`.`.`.`.q 7 7 v #.@.&.+.@.`.`.`.`.`.`.`.`.`.`.`.`.`.`.`.`.`.`.",
"`.`.`.`.`.`.`.`.`.`.`.`.`.`.`.`.`.`.`.`.`.`.`.`.`.`.`.`.`.`.`.`.`.`.`.`.`.t w p ; j ^ K J p t.`.`.`.`.`.`.`.`.`.`.`.`.`.`.`.`.`.",
"`.`.`.`.`.`.`.`.`.`.`.`.`.`.`.`.`.`.`.`.`.`.`.`.`.`.`.`.`.`.`.`.`.`.`.`.`.E u B b j h w : R `.`.`.`.`.`.`.`.`.`.`.`.`.`.`.`.`.`.",
"`.`.`.`.`.`.`.`.`.`.`.`.`.`.`.`.`.`.`.`.`.`.`.`.`.`.`.`.`.`.`.`.`.`.`.`.`.6.X B C.Z.Z.9.4 M.`.`.`.`.`.`.`.`.`.`.`.`.`.`.`.`.`.`.",
"`.`.`.`.`.`.`.`.`.`.`.`.`.`.`.`.`.`.`.`.`.`.`.`.`.`.`.`.`.`.`.`.`.`.`.`.`.> $ C H.`.'.9.f F.(.`.`.`.`.`.`.`.`.`.`.`.`.`.`.`.`.`.",
"`.`.`.`.`.`.`.`.`.`.`.`.`.`.`.`.`.`.`.`.`.`.`.`.`.`.`.`.`.`.`.`.`.`.`.`.Y ; 4 ( p.d.t.8 8.(.(.`.`.`.`.`.`.`.`.`.`.`.`.`.`.`.`.`.",
"`.`.`.`.`.`.`.`.`.`.`.`.`.`.`.`.`.`.`.`.`.`.`.`.`.`.`.`.`.`.`.`.`.`.`.Q > > T a.<.,.B l =.e.!.`.`.`.`.`.`.`.`.`.`.`.`.`.`.`.`.`.",
"`.`.`.`.`.`.`.`.`.`.`.`.`.`.`.`.`.`.`.`.`.`.`.`.`.`.`.`.`.`.`.`.`.F.L , 8 3 K ~.Z.=.l n 0 a E W.`.`.!.`.`.`.`.`.`.`.`.`.`.`.`.`.",
"`.`.`.`.`.`.`.`.`.`.`.`.`.`.`.`.`.`.`.`.`.`.`.`.`.`.`.`.`.`.`.H.8.Q D A F G } w.2.2.x.s.0.W ` j.x.5.Q.`.`.`.`.`.`.`.`.`.`.`.`.`.",
"`.`.`.`.`.`.`.`.`.`.`.`.`.`.`.`.`.`._.U._.I.S.G.P.E.E.Y.R.T.T.m.c.l.l.O.o.X.X. .X.f.2.<.1./ t Z E I D.`.`.`.`.`.`.`.`.`.`.`.`.`.",
"`.`.`.`.`.`.`.`.`.`.`.`.`.`.`.`.`./.v.g.h.z.g.z.b.n.Y.Y.5.] { ) H 2.I._.4._ R D P P 9 T 0 # & 7 7 7 n x.`.`.`.`.`.`.`.`.`.`.`.`.",
"`.`.`.`.`.`.`.`.`.`.`.`.`.`.`.`.`.).`.`.`.`.`.`.H.).!.+.u q , w 9.!.`.`.7.~ Q Z / L m M 8 i.G.8._ N : =.`.`.`.`.`.`.`.`.`.`.`.`.",
"`.`.`.`.`.`.`.`.`.`.`.`.`.`.`.`.`.`.`.`.`.`.`.`.`.8.t 3 8 < Q !.`.`.`.^.6.n I Z Z D n t p !.).`.`.`.`.`.`.`.`.`.`.`.`.`.`.`.`.`.",
"`.`.`.`.`.`.`.`.`.`.`.`.`.`.`.`.`.`.`.`.`.`.`.).+.> < > y y.`.`.`.`.`.!.;.m M J Q D x 5 %.!.`.`.).`.`.`.`.`.`.`.`.`.`.`.`.`.`.`.",
"`.`.`.`.`.`.`.`.`.`.`.`.`.`.`.`.`.`.`.`.`.`.!.~ < 8 ; u D.`.`.`.`.`.`.!.! M b v Q S 5 i D.`.`.`.`.`.`.`.`.`.`.`.`.`.`.`.`.`.`.`.",
"`.`.`.`.`.`.`.`.`.`.`.`.`.`.`.`.`.`.`.`.t.=.Q 6 , < 0 k.`.`.`.`.`.`.`.F.Z M n n P L * Q !.`.`.`.`.`.`.`.`.`.`.`.`.`.`.`.`.`.`.`.",
"`.`.`.`.`.`.`.`.`.`.`.`.`.`.`.`.`.`.).L.n Y A Y Z #.A.`.`.`.`.`.`.`.`.M.i M b b D E 8 t.`.`.`.`.`.`.`.`.`.`.`.`.`.`.`.`.`.`.`.`.",
"`.`.`.`.`.`.`.`.`.`.`.`.`.`.`.`.`.).`.3.a Z n 3.Q.).`.`.`.`.`.`.`.`.`.I d n b b c P v ~ `.`.`.`.`.`.`.`.`.`.`.`.`.`.`.`.`.`.`.`.",
"`.`.`.`.`.`.`.`.`.`.`.`.`.`.`.`.^.L.n   L D.y.A.`.`.`.`.`.`.`.`.`.(.y.< M z b n d m Y 3 N.`.`.`.`.`.`.`.`.`.`.`.`.`.`.`.`.`.`.`.",
"`.`.`.`.`.`.`.`.`.`.`.`.`.`.`.W.&.= - 8.`.`.`.`.`.`.`.`.`.`.`.`.`.!.v z c a f a c p Y a q.`.`.`.`.`.`.`.`.`.`.`.`.`.`.`.`.`.`.`.",
"`.`.`.`.`.`.`.`.`.`.`.`.`.).B.A o A F.`.`.`.`.`.`.`.`.`.`.`.`.`.`.+.8 M 7 g e.7.z w M J J (.!.`.`.`.`.`.`.`.`.`.`.`.`.`.`.`.`.`.",
"`.`.`.`.`.`.`.`.`.`.`.`.`.8.y i q.^.W.`.`.`.`.`.`.`.`.`.`.`.`.`.B.i c p p p E Q p r w R a >.`.`.`.`.`.`.`.`.`.`.`.`.`.`.`.`.`.`.",
"`.`.`.`.`.`.`.`.`.`.`.B.L 3 ` Q.`.`.`.`.`.`.`.`.`.`.`.`.`.!.`.k.i f q p z c q 0 c f 7 u Y E !.`.`.`.`.`.`.`.`.`.`.`.`.`.`.`.`.`.",
"`.`.`.`.`.`.`.`.`.`.:.t l y.`.`.`.`.`.`.`.`.`.`.`.`.`.`.W.(.:.8 a i g c g a i r 0 1 2 : n Y y.`.).`.`.`.`.`.`.`.`.`.`.`.`.`.`.`.",
"`.`.`.`.`.`.`.`.G.L 3 _ I.`.`.`.`.`.`.`.`.`.`.`.`.`.`.(.i.v 5 c Z c f c i 1 1 : : 2 1 q 0 D Q ^.`.`.`.`.`.`.`.`.`.`.`.`.`.`.`.`.",
"`.`.`.`.`.`.J.&.3 t k.`.`.`.`.`.`.`.`.`.`.`.`.`.`.).^.[ 5 i 5 r K M d q 2 : ; & ; 1 1 q f J P 7.`.`.`.`.`.`.`.`.`.`.`.`.`.`.`.`.",
"`.`.`.`.).i.a * ` !.`.`.`.`.`.`.`.`.`.`.`.`.`.!.V.=.i 5 i ; : g E v w 2 > = = = * : 1 1 c P M W `.`.`.`.`.`.`.`.`.`.`.`.`.`.`.`.",
"`.`.`.`.#.o 3 q.(.`.`.`.`.`.`.`.`.`.`.`.`.`.y.S 3 3 i 5 * ; 1 c b 7 1 1 ; = = & = * 2 1 7 Q Z c 7.`.`.`.`.`.`.`.`.`.`.`.`.`.`.`.",
"`.`.W.u X Q L.`.`.`.`.`.`.`.`.`.`.`.`.`.D.P < t P c = * ; 1 p c 7 2 1 ; % ; % = = * ; 1 : c M r =.`.`.`.`.`.`.`.`.`.`.`.`.`.`.`.",
"`.`.S l M.`.).`.`.`.`.`.`.`.`.).).(.G._ 9 0 Y Y 8 $ = = 2 7 c 7 1 1 ; = = % = = = = % > 1 4 f a J ).`.`.`.`.`.`.`.`.`.`.`.`.`.`.",
"`.`.`.`.`.`.`.`.`.`.`.`.`.`.`.`.`.e.z 4 z Q z = $ = * , 1 r 7 1 1 ; % % = % = = = = * * 1 2 r c i N.).`.`.`.`.`.`.`.`.`.`.`.`.`.",
"`.`.`.`.`.`.`.`.`.`.`.`.`.`.`.).&.9 t Z R 0 @ = = = = 1 1 7 1 1 ; % ; = = ; % = * = = * ; 1 7 c p ~ (.`.`.`.`.`.`.`.`.`.`.`.`.`.",
"`.`.`.`.`.`.`.`.`.`.`.`.`.`.(.E 8 u x m > $ = = * * 1 : 1 1 > = % < * ; = = = = = ; % = % > 1 q c f D.`.`.`.`.`.`.`.`.`.`.`.`.`.",
"`.`.`.`.`.`.`.`.`.`.`.(.).F.! t a l ;.8.z = = = * ; 1 1 1 1 ; X Q c X ; = % = = = % = = % ; > 1 s p -.`.`.`.`.`.`.`.`.`.`.`.`.`.",
"`.`.`.`.`.`.`.`.`.`.`.`.`.3.z t z ' ).`.`.6.3 * = ; 1 1 1 ; X D x.$ * ; = = = % = = = = % % ; > 4 c d i.`.`.`.`.`.`.`.`.`.`.`.`.",
"`.`.`.`.`.`.`.`.`.`.`.`.`.#.d s Y W.`.).`.`.`.a # 1 1 1 1 # y !.E . ; * = = = ; % = = * ; * % ; : q w q N.`.`.`.`.`.`.`.`.`.`.`.",
"`.`.`.`.`.`.`.`.`.`.`.`.(.E s A i.`.`.`.`.`.`.D.g : 1 1 7 3 V.L.4 $ = = = = = % = = = = * = = % & : 1 i N W.).`.`.`.`.`.`.`.`.`.",
"`.`.`.`.`.`.`.`.`.`.`.(.G.L x 3.`.!.`.`.`.`.`.`.i.: 1 p a i.`.7.+ ; = = = = = = = = = % = = ; $ ; g ; r p E (.`.`.`.`.`.`.`.`.`.",
"`.`.`.`.`.`.`.`.`.`.`.W.d.I E (.`.`.`.`.`.`.`.`.e.& q a +.).`.L X ; = % = = = = = = = ; = = = % = M.r 1 v i i.`.`.`.`.`.`.`.`.`.",
"`.`.`.`.`.`.`.`.`.`.`.Q.B.D i.`.).`.`.`.`.`.`.`.~ & a a :.`.W.; & & ; = % = = = = = = % = * ; $ # J.M.& p s E `.`.`.`.`.`.`.`.`.",
"`.`.`.`.`.`.`.`.`.`.`.W.V.E ).`.`.`.`.`.`.`.`.`.N : f d t.`.;.  = = * % = = ; = = = = = = = = * $ F.`.=.; s a V.`.`.`.`.`.`.`.`.",
"`.`.`.`.`.`.`.`.`.`.`.(.u.3.`.`.`.`.`.`.`.`.`.W.w 1 a J !.(.=.a 0 < < 3 < * $ # = = = = = = = = + i.).).#.2 a W ).`.`.`.`.`.`.`.",
"`.`.`.`.`.`.`.`.`.`.`.`.>.M.`.`.`.`.`.`.`.`.`.y.: 0 p 7.`.`.`.`.`.`.`.`.`.u.#.Z y ; # * = = = = + 3.).`.`.M q r 7.W.`.`.`.`.`.`.",
"`.`.`.`.`.`.`.`.`.`.`.`.`.`.`.`.`.`.`.`.`.`.`.=.& r J ^.`.`.`.`.`.`.`.`.`.`.`.`.`.y.#.d = $ = ; + >.`.).`.G.f q a F.^.`.`.`.`.`.",
"`.`.`.`.`.`.`.`.`.`.`.`.`.`.`.`.`.`.`.`.`.`.F.b 7 p =.`.`.`.`.`.`.`.`.`.`.`.`.`.`.`.).`.`.z # = . [ `.`.`.`.K q 7 M N.`.`.`.`.`.",
"`.`.`.`.`.`.`.`.`.`.`.`.`.`.`.`.`.`.`.`.`.(.K & 7 1 u.`.`.`.`.`.`.`.`.`.`.`.`.`.`.`.`.`.`.(.#.;   [ `.(.(.`.E : e 1 &.`.`.`.`.`.",
"`.`.`.`.`.`.`.`.`.`.`.`.`.`.`.`.`.`.`.`.`.(.d u r 2 -.`.`.`.`.`.`.`.`.`.`.`.`.`.`.`.`.`.`.`.`.`.+ R `.`.`.`.E # r q Y `.`.`.`.`.",
"`.`.`.`.`.`.`.`.`.`.`.`.`.`.`.`.`.`.`.`.`.G.4 u r c G.`.`.`.`.`.`.`.`.`.`.`.`.`.`.`.`.`.`.`.`.`.~ c ).`.`.`.W.a > q f `.`.`.`.`.",
"`.`.`.`.`.`.`.`.`.`.`.`.`.`.`.`.`.`.`.`.`.i.< s 3 `.`.`.`.`.`.`.`.`.`.`.`.`.`.`.`.`.`.`.`.`.`.`.>.8 (.`.`.`.(.i.= 0 g `.`.`.`.`.",
"`.`.`.`.`.`.`.`.`.`.`.`.`.`.`.`.`.`.`.`.(.#., q M `.`.`.`.`.`.`.`.`.`.`.`.`.`.`.`.`.`.`.`.`.`.`.`.`.`.`.`.`.!.`.P , g `.`.`.`.`.",
"`.`.`.`.`.`.`.`.`.`.`.`.`.`.`.`.`.`.`.`.).P E g `.`.`.`.`.`.`.`.`.`.`.`.`.`.`.`.`.`.`.`.`.`.`.`.`.`.`.`.`.`.`.!.u.! k.N.`.`.`.`.",
"`.`.`.`.`.`.`.`.`.`.`.`.`.`.`.`.`.`.`.`.N.+.M.=.`.`.`.`.`.`.`.`.`.`.`.`.`.`.`.`.`.`.`.`.`.`.`.`.`.`.`.`.`.`.`.`.M.M J ' `.`.`.`.",
"`.`.`.`.`.`.`.`.`.`.`.`.`.`.`.`.`.`.`.V.M N v J `.`.`.`.`.`.`.`.`.`.`.`.`.`.`.`.`.`.`.`.`.`.`.`.`.`.`.`.`.`.`.`.7.r N e `.`.`.`.",
"`.`.`.`.`.`.`.`.`.`.`.`.`.`.`.`.`.`.`.p w h e N `.`.`.`.`.`.`.`.`.`.`.`.`.`.`.`.`.`.`.`.`.`.`.`.`.`.`.`.`.`.`.`./ 1 g q `.`.`.`.",
"`.`.`.`.`.`.`.`.`.`.`.`.`.`.`.`.`.`.`.V 7 k / `.`.`.`.`.`.`.`.`.`.`.`.`.`.`.`.`.`.`.`.`.`.`.`.`.`.`.`.`.`.`.`.`.V.>.-.`.`.`.`.`.",
"`.`.`.`.`.`.`.`.`.`.`.`.`.`.`.`.`.`.`.W.A.!.).`.`.`.`.`.`.`.`.`.`.`.`.`.`.`.`.`.`.`.`.`.`.`.`.`.`.`.`.`.`.`.`.`.`.`.`.`.`.`.`.`."
};
