/* XPM */
static char *_6af09fb676f4e9d80e36a241cc397adSZ18LKANH6tjuczu[] = {
/* columns rows colors chars-per-pixel */
"64 64 148 2 ",
"   c #1E1E23",
".  c #221F27",
"X  c #222326",
"o  c #24242B",
"O  c #29262D",
"+  c #27292E",
"@  c #2A2A2E",
"#  c #2B2D32",
"$  c #302F33",
"%  c #2E3035",
"&  c #333335",
"*  c #393537",
"=  c #383837",
"-  c #34363B",
";  c #3B373B",
":  c #36393E",
">  c #39393A",
",  c #3C3C42",
"<  c #403F45",
"1  c #3F4045",
"2  c #3F4248",
"3  c #424147",
"4  c #484444",
"5  c #44454A",
"6  c #49464A",
"7  c #45494F",
"8  c #4B4A4C",
"9  c #524646",
"0  c #514C4C",
"q  c #5E524F",
"w  c #454A50",
"e  c #4D4D52",
"r  c #514E51",
"t  c #4D5055",
"y  c #535254",
"u  c #595555",
"i  c #5D5956",
"p  c #54555A",
"a  c #595759",
"s  c #57595D",
"d  c #5B5A5C",
"f  c #6A6253",
"g  c #73605D",
"h  c #5D5D62",
"j  c #605F65",
"k  c #5F6166",
"l  c #626266",
"z  c #6A6663",
"x  c #65656A",
"c  c #66686B",
"v  c #6A6A6D",
"b  c #7E6562",
"n  c #7A7368",
"m  c #6C6C71",
"M  c #706E71",
"N  c #6F7175",
"B  c #747475",
"V  c #7C7675",
"C  c #75767B",
"Z  c #7B7A7C",
"A  c #827F7F",
"S  c #A28078",
"D  c #7D7D81",
"F  c #807F83",
"G  c #7F8085",
"H  c #838386",
"J  c #868689",
"K  c #87888E",
"L  c #8A8A8C",
"P  c #9E8985",
"I  c #928F8F",
"U  c #8E8D91",
"Y  c #908F93",
"T  c #8F9093",
"R  c #939394",
"E  c #989696",
"W  c #969698",
"Q  c #98979A",
"!  c #9C9C9D",
"~  c #A69F9E",
"^  c #B89D96",
"/  c #9E9FA1",
"(  c #A09FA2",
")  c #A3A3A4",
"_  c #A7A7A9",
"`  c #A7A8AA",
"'  c #A9A9AC",
"]  c #B1A7A6",
"[  c #AEADB1",
"{  c #B0AFB1",
"}  c #AFB0B2",
"|  c #B3B3B5",
" . c #B9B6B5",
".. c #BBBABC",
"X. c #CAA79E",
"o. c #C4B3AF",
"O. c #CBB1AB",
"+. c #D7C2BD",
"@. c #C0BFC2",
"#. c #BFC0C1",
"$. c gray78",
"%. c #C6C5C6",
"&. c #C4C4C5",
"*. c #C6C7C8",
"=. c #C7C7C8",
"-. c #CACACA",
";. c #CDCDCD",
":. c #CBCBCB",
">. c #CECDD1",
",. c #CFD0D1",
"<. c #D1D2D2",
"1. c #D3D3D5",
"2. c #D5D5D5",
"3. c #D4D4D5",
"4. c #D9D8D6",
"5. c #D7D7D8",
"6. c #DADADA",
"7. c #DDDDDD",
"8. c #DFDFDF",
"9. c #DCDCDD",
"0. c #E0DEDE",
"q. c #DFDFE0",
"w. c #DFE0E0",
"e. c gray88",
"r. c #E1E1E1",
"t. c #E2E2E2",
"y. c gray89",
"u. c #E7E7E7",
"i. c #E4E4E4",
"p. c #E3E3E3",
"a. c #E8E7E8",
"s. c gray91",
"d. c #E9E9E9",
"f. c gray92",
"g. c #EAEAEA",
"h. c gray93",
"j. c #EBEBEB",
"k. c #F1F0EF",
"l. c #F1F1F1",
"z. c #F7F7F7",
"x. c #F4F4F4",
"c. c #F8F8F8",
"v. c #F9F9F9",
"b. c #FBFBFB",
"n. c #FEFEFE",
"m. c None",
"M. c #FDFDFD",
"N. c #FFFFFF",
/* pixels */
"m.m.m.m.m.m.m.m.m.m.m.m.m.m.m.m.m.m.m.m.m.m.m.m.m.m.m.m.m.m.m.m.m.m.m.m.m.m.m.m.m.m.m.m.m.m.m.m.m.m.m.m.m.m.m.m.m.m.m.m.m.m.m.m.",
"m.m.m.m.m.m.m.m.m.m.m.m.m.m.m.m.m.m.m.m.m.m.m.m.m.m.m.m.M.M.m.m.m.m.m.M.u.r.r.6.N - m.m.m.m.m.m.m.m.m.m.m.m.m.m.m.m.m.m.m.m.m.m.",
"m.m.m.m.m.m.m.m.m.m.m.m.m.m.m.m.m.m.m.m.8.r.r.9.<.$... .......$.<.i.z.m.f.8.r...6 C m.M.m.m.m.m.m.m.m.m.m.m.m.m.m.m.m.m.m.m.m.m.",
"m.m.m.m.m.m.m.m.m.m.m.m.m.m.m.m.m.m.m.m.u.;.R B A J H R E R E E E ! ( -.r.u.3.l k ,.f.s.h.z.v.z.v.m.m.m.m.m.m.m.m.m.m.m.m.m.m.m.",
"m.m.m.m.m.m.m.m.m.m.m.m.m.m.m.m.m.m.m.z.4.h = = > 4 8 h c M B Z Z C l i C 0.~ 8 d T ..;.1.5.y.r.r.m.m.m.m.m.m.m.m.m.m.m.m.m.m.m.",
"m.m.m.m.m.m.m.m.m.m.m.m.m.m.m.m.m.m.m.f.B @ = = $ & = = = = > , > > = = q ^ O.V 5 % 5 J Z D ) 5.m.m.m.m.m.m.m.m.m.m.m.m.m.m.m.m.",
"m.m.m.m.m.m.m.m.m.m.m.m.m.m.m.m.m.m.m.<.3 $ = & $ = = = = = = = = & & 4 S X.o.i 1 @ 3 x x s J m.m.m.m.m.m.m.m.m.m.m.m.m.m.m.m.m.",
"m.m.m.m.m.m.m.m.m.m.m.m.m.m.m.m.m.m.y.) i = = = $ = = = = = = = = = & 0 g P ] v & o & - # 7 *.m.m.m.m.m.m.m.m.m.m.m.m.m.m.m.m.m.",
"m.m.m.m.m.m.m.m.m.m.m.m.m.m.m.m.m.v.z.1.%.a & & $ = > - % % , , = l y a t D >.D + . o . , ..n.m.m.m.m.m.m.m.m.m.m.m.m.m.m.m.m.m.",
"m.m.m.m.m.m.m.m.m.m.m.m.m.m.m.m.m.m.m.f.r...a & & & - - - , , , 6 M H , t D m h s , # 2 ..m.n.n.m.m.m.m.m.m.m.m.m.m.m.m.m.m.m.m.",
"m.m.m.m.m.m.m.m.m.m.m.m.m.m.m.m.m.m.m.a.8.r.| 6 @ + # , , , s k , 7 K h G D h x t , c #.m.m.m.m.m.m.m.m.m.m.m.m.m.m.m.m.m.m.m.m.",
"m.m.m.m.m.m.m.m.m.m.m.m.m.m.m.m.n.m.n.f.r.-.p + o + + % % % 2 t U G J h , 2 h y % k >.n.m.m.m.m.m.m.m.m.m.m.m.m.m.m.m.m.m.m.m.m.",
"m.m.m.m.m.m.m.m.m.m.m.m.m.m.m.u.a.d.d.x.l.7.s # & : > , , , % , h H D D h w , $ D w.m.m.m.m.m.m.m.m.m.m.m.m.m.m.m.m.m.m.m.m.m.m.",
"m.m.m.m.m.m.m.m.m.m.m.m.m.m.r.r.6.&.{ ) H x 5 < 3 3 3 5 , , D | K D v x h , - / v.n.m.m.m.m.m.m.m.m.m.m.m.m.m.m.m.m.m.m.m.m.m.m.",
"m.m.m.m.m.m.m.m.m.m.m.m.m.m.8._ H m p 6 < < < < 5 3 3 3 , , D D J ' ` C , < | b.n.m.m.m.m.m.m.m.m.m.m.m.m.m.m.m.m.m.m.m.m.m.m.m.",
"m.m.m.m.m.m.m.m.m.m.m.m.m.m.8.Z M e , , < < - , 3 3 3 3 , o w w 7 h m < , ( M.m.n.m.m.m.m.m.m.m.m.m.m.m.m.m.m.m.m.m.m.m.m.m.m.m.",
"m.m.m.m.m.m.m.m.m.m.m.m.m.m.x.` W U e 5 , - % , , , , , , , w D p , 3 , x q.f.m.m.m.m.m.m.m.m.m.m.m.m.m.m.m.m.m.m.m.m.m.m.m.m.m.",
"m.m.m.m.m.m.m.m.m.m.m.m.m.m.m.@.>.>.j < , # , < 2 , , % + k t w y 3 < : ) w.m.m.m.m.m.m.m.m.m.m.m.m.m.m.m.m.m.m.m.m.m.m.m.m.m.m.",
"m.m.m.m.m.m.m.m.m.m.m.m.m.m.m.:.Y v 3 3 % o - < , , , + , t D , % , , k 6.m.m.m.m.m.m.m.m.m.m.m.m.m.m.m.m.m.m.m.m.m.m.m.m.m.m.m.",
"m.m.m.m.m.m.m.m.m.m.m.m.m.m.m.8.H y < , % # - , : % o , 2 w , % - : : [ f.m.m.m.m.m.m.m.m.m.m.m.m.m.m.m.m.m.m.m.m.m.m.m.m.m.m.m.",
"m.m.m.m.m.m.m.m.m.m.m.m.m.l.k.1.H t , , , % - , : + # w 2 2 + + + + t w.x.m.m.m.m.m.m.m.m.m.m.m.m.m.m.m.m.m.m.m.m.m.m.m.m.m.m.m.",
"m.m.m.m.m.m.m.m.m.m.m.m.m.m.w.;.K 7 , , , # % + + + 2 2 w , X + + + 1 ..v.m.m.m.m.m.m.m.m.m.m.m.m.m.m.m.m.m.m.m.m.m.m.m.m.m.m.m.",
"m.m.m.m.m.m.m.m.m.m.m.m.m.m.r.,.K < , 5 , o o + o , w 2 2 + o + o % , G x.m.m.m.m.m.m.m.m.m.m.m.m.m.m.m.m.m.m.m.m.m.m.m.m.m.m.m.",
"m.m.m.m.m.m.m.m.m.m.m.m.m.m.r.;.H , 2 2 , + o o , w w 2 + + o + + , 2 e <.m.m.m.m.m.m.m.m.m.m.m.m.m.m.m.m.m.m.m.m.m.m.m.m.m.m.m.",
"m.m.m.m.m.m.m.m.m.m.m.m.m.m.f.5.j # # - % o + # 2 w w , o o + + - 3 3 < D l.m.m.m.m.m.m.m.m.m.m.m.m.m.m.m.m.m.m.m.m.m.m.m.m.m.m.",
"m.m.m.m.m.m.m.m.m.m.m.m.m.m.m.| , o # o   o O , w w ,   + o X # 3 3 3 < 7 ' m.m.m.m.m.m.m.m.m.m.m.m.m.m.m.m.m.m.m.m.m.m.m.m.m.m.",
"m.m.m.m.m.m.m.m.m.m.m.m.m.m.g.v # + o + o o # 2 2 , + + + o   , 5 3 3 , , v 1.m.m.m.m.m.m.m.m.m.m.m.m.m.m.m.m.m.m.m.m.m.m.m.m.m.",
"m.m.m.m.m.m.m.m.m.m.m.m.m.n._ 2 + + + o O . % 7 2 % , , , + , , h h h h p p { r.q.m.m.m.m.m.m.m.m.m.m.m.m.m.m.m.m.m.m.m.m.m.m.m.",
"m.m.m.m.m.m.m.m.m.m.m.m.m.f.m : + + + o o o , 7 , , , , , , , , h j j j j h U p.u.m.m.m.m.m.m.m.m.m.m.m.m.m.m.m.m.m.m.m.m.m.m.m.",
"m.m.m.m.m.m.m.m.m.m.m.m.m...t & + + O o . O , , + # # + % , , , 5 6 7 8 r p x 1.m.m.m.m.m.m.m.m.m.m.m.m.m.m.m.m.m.m.m.m.m.m.m.m.",
"m.m.m.m.m.m.m.m.m.m.m.m.m.L - > : : # . o O < # + + + # , , , , < < , < < < < v 8.m.m.m.m.m.m.m.m.m.m.m.m.m.m.m.m.m.m.m.m.m.m.m.",
"m.m.m.m.m.m.m.m.m.m.m.m.m.! 8 X + o o o . # % O + + , , , , , # - - , < 5 < < < B m.m.m.m.m.m.m.m.m.m.m.m.m.m.m.m.m.m.m.m.m.m.m.",
"m.m.m.m.m.m.m.m.m.m.m.m.M.0.z   . . O . o o + + + + + # # + + o # , < 5 < < < 5 < F b.M.M.M.m.m.m.m.m.m.m.m.m.m.m.m.m.m.m.m.m.m.",
"m.m.m.m.m.m.m.m.m.m.m.m.M.<.< . . O . O o o + + + + + + + + % & < < < 5 < 5 5 < e < D b.m.m.m.m.m.m.m.m.m.m.m.m.m.m.m.m.m.m.m.m.",
"m.m.m.m.m.m.m.m.m.m.m.m.m. .9 . . O . . o O + + + + # # - , 3 , , < < < < 5 < < < < < Y m.m.m.m.m.m.m.m.m.m.m.m.m.m.m.m.m.m.m.m.",
"m.m.m.m.m.m.m.m.m.m.m.m.m.O.A $ O . o . + + # # % - , < 3 < 3 , ; < 5 < < < < 6 < < < e ( m.m.m.m.m.m.m.m.m.m.m.m.m.m.m.m.m.m.m.",
"m.m.m.m.m.m.m.m.m.m.m.m.M.>.; . . o o O + # - , 3 3 3 3 3 3 3 3 , < < < 5 6 < < e < < < e ..b.v.m.m.m.m.m.m.m.m.m.m.m.m.m.m.m.m.",
"m.m.m.m.m.m.m.m.m.m.m.f.q.j . . o . . + + + - 3 3 3 3 3 3 3 3 3 , < < 7 < < < 5 < < < < < p ..a.m.m.m.m.m.m.m.m.m.m.m.m.m.m.m.m.",
"m.m.m.m.m.m.m.m.m.m.m.8.J O o . . . + + + + # , 5 3 3 3 3 3 3 3 , , < < < < < 5 6 < < < < < j @.e.m.m.m.m.m.m.m.m.m.m.m.m.m.m.m.",
"m.m.m.m.m.m.m.m.m.m.v.[ $ O . o . O # + + + + # , 3 3 3 3 3 3 3 , , < < 7 6 < < < < < < < < < m =.r.m.m.m.m.m.m.m.m.m.m.m.m.m.m.",
"m.m.m.m.m.m.m.m.m.m.z.m . o o o + + + + + + + + % , 3 3 3 3 3 3 , , , < < < e < < e < < < e < < m 1.m.m.m.m.m.m.m.m.m.m.m.m.m.m.",
"m.m.m.m.m.m.m.m.j.j.1.5 . . o o + + + + + + + + + % 3 3 3 3 3 3 < , < < < < < < < < < < < < < < < H f.m.m.m.m.m.m.m.m.m.m.m.m.m.",
"m.m.m.m.m.m.m.m.q.p.T o o o o + + + + + + + + + + + % 1 3 3 3 3 , , < < < < < 6 < < < < < < < < < 6 _ m.m.m.m.m.m.m.m.m.m.m.m.m.",
"m.m.m.m.m.m.m.m.w.>.e o O # + + + + + + + + + + + + + % , 3 3 3 < , < < e < < < < < < e < e < < 5 < e ..m.m.m.m.m.m.m.m.m.m.m.m.",
"m.m.m.m.m.m.m.r.q.T + + # + + + + + + + + + + + + + + + + : 1 2 < , < < < < < < < e < e < < < < < < < p m.m.m.m.m.m.m.m.m.m.m.m.",
"m.m.m.m.m.m.m.h.q.h + + + + + + + + + + + + + + + + + + + + = 1 < x p < < < < 7 < < < < < < e < < 5 < < x m.m.m.m.m.m.m.m.m.m.m.",
"m.m.m.m.m.m.m.m.' + + + + + + + + + + + + + + + + + + + + + + # , F D < 7 < < < < < e < < < < < < 5 5 < < D m.m.m.m.m.m.m.m.m.m.",
"m.m.m.m.m.m.m.x.h + + + + + + + + + + + + + + + + + + + + + + + o Y ( < < < 6 < < < < < < e < < < < < 5 3 3 / m.m.m.m.m.m.m.m.m.",
"m.m.m.m.m.m.m.| % o + + + + + + + + + + + + + + + + + + + + + + % | ;.p 1 3 3 3 3 3 3 3 3 3 5 3 5 6 < < < < j q.M.M.m.m.m.m.m.m.",
"m.m.m.m.m.z.u.a o + + + + + + + + + + + + + + + + + + + + + + + 5 1.u.v - 3 3 2 3 3 3 3 3 3 3 3 < < < 5 < 5 < / x.x.m.m.m.m.m.m.",
"m.m.m.m.m.w.W # + + + + + + + + + + + + + + + + + + + + + + + + x z.m.` @ % , 1 3 3 3 3 3 3 3 3 < < < 5 < < < p =.p.M.m.m.m.m.m.",
"m.m.m.m.m.3.t o + + + + + + + + + + + + + + + + + + + + + + + X T m.m.5., + + % : 1 3 3 3 3 3 3 5 6 < < 6 < < 5 K e.m.m.m.m.m.m.",
"m.m.m.m.r./ # + + + + + + + + + + + + + + + + + + + + + + + + # ..m.m.z.k o + + # # - 1 2 3 3 3 < < < < 6 < < < y &.m.m.m.m.m.m.",
"m.m.m.u.r.x o + + + + + + + + + + + + + + + + + + + + + + + + : ,.v.v.z.J o + o + o + # & , 3 3 < 5 < < 5 < < < < K u.m.m.m.m.m.",
"m.m.m.m.8.1 + + + + + + + + + + + + + + + # + + % + % % % % % s m.m.m.m.#.: # % % # % % % - : 2 e r e e e < 6 < < h e.m.m.m.m.m.",
"m.m.x.m.' + + + + + + + % % % % % & - - : - > - , 1 2 8 5 8 p Z m.m.m.m.u.K Z Z Z Z Z N = # % % , < t p h h j j h h | m.m.m.m.m.",
"m.m.x.m.H + % % : : : > & & % 1 d t % + + X o @ E :.3.9.-.-.m.m.m.m.m.m.m.m.m.m.m.m.m.x.h X o + + + + o O @ $ & ; 3 ! m.m.m.m.m.",
"m.m.x.n.R 5 4 3 : + # & & # X G w.o.> @ & & & 3 9.m.m.z.u.m.m.m.m.m.m.m.m.m.m.m.m.m.m.v.} # + 7 y l M L f @ $ 4 0 y Z h.m.m.m.m.",
"m.m.h.r.1.$.=.-.&.|  .-.;.R t #.M.4.= $ 4 i a u -.i.m.m.m.m.m.m.m.m.m.m.m.m.m.m.m.m.m.y.w.k o _ x.z.v.m.5.3 $ 4 i i 8  .m.m.m.m.",
"m.m.m.m.m.m.m.m.m.m.f.m.n.n.h.v.M.-.= @ 4 i a 0 ..r.m.m.m.m.m.m.m.m.m.m.m.m.m.m.m.m.m.m.f.| 5 ! m.m.m.m.r.r @ * u i r I 8.m.m.m.",
"m.m.m.m.m.m.m.m.m.m.m.m.m.m.n.u.-.z $ @ < i u u E r.m.m.m.m.m.m.m.m.m.m.m.m.m.m.m.m.m.m.f.z.f.v.m.m.z.5.Y 3 $ ; y u y z =.m.m.m.",
"m.m.m.m.m.m.m.m.m.m.m.m.m.f.Z 5 > @ @ O * 0 0 4 Z 8.m.m.m.m.m.m.m.m.m.m.m.m.m.m.m.m.m.m.f.m.m.m.m.x.Z 3 * @ O = 0 0 0 0  .h.m.m.",
"m.m.m.m.m.m.m.m.m.m.m.m.m.1.l r y y u g z B V B ! z.m.m.m.m.m.m.m.m.m.m.m.m.m.m.m.m.m.m.k.u.u.u.u.8.V r y i f n A A A I f.x.m.m.",
"m.m.x.m.m.m.m.m.m.m.m.m.m.r.6.4.2.2.2.k.x.x.x.x.z.m.m.m.m.m.m.m.m.m.m.m.m.m.m.m.m.m.m.m.z.8.8.r.8.8.8.2.4.h.x.x.z.z.z.z.m.x.m.m."
};
