/* XPM */
static char *result[] = {
/* columns rows colors chars-per-pixel */
"64 64 256 2 ",
"   c black",
".  c #010101",
"X  c #020202",
"o  c gray1",
"O  c #040404",
"+  c gray2",
"@  c #060606",
"#  c #070707",
"$  c gray3",
"%  c #090909",
"&  c gray4",
"*  c #0B0B0B",
"=  c #0C0C0C",
"-  c gray5",
";  c #0E0E0E",
":  c gray6",
">  c #101010",
",  c #111111",
"<  c gray7",
"1  c #131313",
"2  c gray8",
"3  c #151515",
"4  c #161616",
"5  c gray9",
"6  c #181818",
"7  c #191919",
"8  c gray10",
"9  c #1B1B1B",
"0  c gray11",
"q  c #1D1D1D",
"w  c #1E1E1E",
"e  c gray12",
"r  c #202020",
"t  c gray13",
"y  c #222222",
"u  c #232323",
"i  c gray14",
"p  c #252525",
"a  c gray15",
"s  c #272727",
"d  c #282828",
"f  c gray16",
"g  c #2A2A2A",
"h  c gray17",
"j  c #2C2C2C",
"k  c #2D2D2D",
"l  c gray18",
"z  c #2F2F2F",
"x  c gray19",
"c  c #313131",
"v  c #323232",
"b  c gray20",
"n  c #343434",
"m  c #353535",
"M  c gray21",
"N  c #373737",
"B  c gray22",
"V  c #393939",
"C  c #3A3A3A",
"Z  c gray23",
"A  c #3C3C3C",
"S  c gray24",
"D  c #3E3E3E",
"F  c #3F3F3F",
"G  c gray25",
"H  c #414141",
"J  c gray26",
"K  c #434343",
"L  c #444444",
"P  c gray27",
"I  c #464646",
"U  c gray28",
"Y  c #484848",
"T  c #494949",
"R  c gray29",
"E  c #4B4B4B",
"W  c #4C4C4C",
"Q  c gray30",
"!  c #4E4E4E",
"~  c gray31",
"^  c #505050",
"/  c #515151",
"(  c gray32",
")  c #535353",
"_  c gray33",
"`  c #555555",
"'  c #565656",
"]  c gray34",
"[  c #585858",
"{  c gray35",
"}  c #5A5A5A",
"|  c #5B5B5B",
" . c gray36",
".. c #5D5D5D",
"X. c gray37",
"o. c #5F5F5F",
"O. c #606060",
"+. c gray38",
"@. c #626262",
"#. c gray39",
"$. c #646464",
"%. c #656565",
"&. c gray40",
"*. c #676767",
"=. c #686868",
"-. c DimGray",
";. c #6A6A6A",
":. c gray42",
">. c #6C6C6C",
",. c #6D6D6D",
"<. c gray43",
"1. c #6F6F6F",
"2. c gray44",
"3. c #717171",
"4. c #727272",
"5. c gray45",
"6. c #747474",
"7. c gray46",
"8. c #767676",
"9. c #777777",
"0. c gray47",
"q. c #797979",
"w. c gray48",
"e. c #7B7B7B",
"r. c #7C7C7C",
"t. c gray49",
"y. c #7E7E7E",
"u. c gray50",
"i. c #808080",
"p. c #818181",
"a. c gray51",
"s. c #838383",
"d. c #848484",
"f. c gray52",
"g. c #868686",
"h. c gray53",
"j. c #888888",
"k. c #898989",
"l. c gray54",
"z. c #8B8B8B",
"x. c gray55",
"c. c #8D8D8D",
"v. c #8E8E8E",
"b. c gray56",
"n. c #909090",
"m. c gray57",
"M. c #929292",
"N. c #939393",
"B. c gray58",
"V. c #959595",
"C. c gray59",
"Z. c #979797",
"A. c #989898",
"S. c gray60",
"D. c #9A9A9A",
"F. c #9B9B9B",
"G. c gray61",
"H. c #9D9D9D",
"J. c gray62",
"K. c #9F9F9F",
"L. c #A0A0A0",
"P. c gray63",
"I. c #A2A2A2",
"U. c gray64",
"Y. c #A4A4A4",
"T. c #A5A5A5",
"R. c gray65",
"E. c #A7A7A7",
"W. c gray66",
"Q. c #A9A9A9",
"!. c #AAAAAA",
"~. c gray67",
"^. c #ACACAC",
"/. c gray68",
"(. c #AEAEAE",
"). c #AFAFAF",
"_. c gray69",
"`. c #B1B1B1",
"'. c #B2B2B2",
"]. c gray70",
"[. c #B4B4B4",
"{. c gray71",
"}. c #B6B6B6",
"|. c #B7B7B7",
" X c gray72",
".X c #B9B9B9",
"XX c gray73",
"oX c #BBBBBB",
"OX c #BCBCBC",
"+X c gray74",
"@X c gray",
"#X c gray75",
"$X c #C0C0C0",
"%X c #C1C1C1",
"&X c gray76",
"*X c #C3C3C3",
"=X c gray77",
"-X c #C5C5C5",
";X c #C6C6C6",
":X c gray78",
">X c #C8C8C8",
",X c gray79",
"<X c #CACACA",
"1X c #CBCBCB",
"2X c gray80",
"3X c #CDCDCD",
"4X c #CECECE",
"5X c gray81",
"6X c #D0D0D0",
"7X c gray82",
"8X c #D2D2D2",
"9X c LightGray",
"0X c gray83",
"qX c #D5D5D5",
"wX c gray84",
"eX c #D7D7D7",
"rX c #D8D8D8",
"tX c gray85",
"yX c #DADADA",
"uX c gray86",
"iX c gainsboro",
"pX c #DDDDDD",
"aX c gray87",
"sX c #DFDFDF",
"dX c gray88",
"fX c #E1E1E1",
"gX c #E2E2E2",
"hX c gray89",
"jX c #E4E4E4",
"kX c gray90",
"lX c #E6E6E6",
"zX c #E7E7E7",
"xX c gray91",
"cX c #E9E9E9",
"vX c #EAEAEA",
"bX c gray92",
"nX c #ECECEC",
"mX c gray93",
"MX c #EEEEEE",
"NX c #EFEFEF",
"BX c gray94",
"VX c #F1F1F1",
"CX c gray95",
"ZX c #F3F3F3",
"AX c #F4F4F4",
"SX c gray96",
"DX c #F6F6F6",
"FX c gray97",
"GX c #F8F8F8",
"HX c #F9F9F9",
"JX c gray98",
"KX c #FBFBFB",
"LX c gray99",
"PX c #FDFDFD",
"IX c #FEFEFE",
"UX c white",
/* pixels */
"^ ^ ^ ^ ^ ^ ~ ) <.3.2.2.2.2.2.2.2.2.2.2.2.2.2.1.%.$.$.$.$.$.%.+.A N N A :.3.2.2.2.2.2.2.2.2.4.;.e 5 5 0 W / ^ ^ ^ ^ ^ ! C B B B ",
"^ ^ ^ ^ ~ ^ ~ ( ,.2.1.1.1.1.1.1.1.1.1.1.1.1.2.<.$.#.$.$.$.#.$.O.A B B A :.2.1.1.2.2.2.2.2.1.4.;.e 5 6 0 W ( ^ ^ ^ ^ ^ ! C B B B ",
"^ ^ ^ ^ ) ) ( ` 2.6.5.5.5.5.5.5.6.7.6.6.5.5.5.4.*.&.&.&.&.&.*.#.V m m V ,.6.4.5.4.3.3.3.3.3.6.:.0 2 3 7 R ^ ! ~ ^ ^ ^ ! V M N N ",
"^ ^ ^ ~ L J H L O.@.@.@.@.@.@.+.} } } | +.@.@.+.{ [ { { { { { ] Y I I Y o.@.+.@.=.=.*.*.*.*.-.#.h p a g _ { [ [ / ^ ^ ! F D D D ",
"^ ^ / W 0 4 4 7 n B N N N N N n 6 3 3 6 n N N N N N N N N N M Z ,.4.4.,.A m M B Q ~ ~ ~ ~ ~ ~ ^ / / / ) <.3.3.<.( ~ ^ ^ / / / / ",
"^ ^ / W q 5 6 9 M V B B B B V M 9 6 6 9 M V B B B B B B B B N S :.3.2.>.A B B C ! ^ ^ ^ ^ ^ ^ ^ ^ ^ ~ ( ,.2.2.,.) ~ ^ ^ ^ ^ ^ ^ ",
"^ ^ / W w 6 7 0 M V B B B B V M 0 7 6 9 m B N N B V B V V V B S :.2.2.:.S N V C ! / ^ ^ ^ ^ ^ ^ ^ ^ ~ ( ,.2.2.,.( ^ ^ ^ ^ ^ ^ ^ ",
"^ ^ / W 5 , < 3 n N M M M M N n 5 2 2 5 N Z C C N N N M n n b V ,.5.5.<.Z M M B ~ ( ( ( ( ( ( ( ( ( / _ 2.6.6.3._ / ( / ^ ^ ^ ^ ",
"^ ^ ^ ^ T Y Y Y P P P P P P P L B M N M d s a f K I P U ` ] ' ] X.X.o...U P P P K K K K K K K K K K K L ^ ( ( ^ L K K L ~ ^ ^ ^ ",
"^ ^ ~ ) 5.8.8.5.` / ( / / ( / ( _ _ ` ^ 9 3 3 8 Q ) / ` 3.6.6.3./ Q ! ! / / ( ~ V M N N N N N N N M N M n n n n M N M B ! ^ ^ ^ ",
"^ ^ ~ ( >.1.1.>.( ~ ^ ^ ^ ^ ^ ^ ~ ~ ^ E q 6 6 q W / ~ ) ,.1.1.,.) ^ / ^ ^ ~ ^ Q C B V B B B B B B B B B V V V V B V B C ! ^ ^ ^ ",
"^ ^ ~ ( ,.3.2.<.) ^ ^ ^ ^ ^ ^ ^ ^ ^ / W q 5 5 0 W / ^ ) <.2.2.<.) ~ ^ ^ ^ ^ ^ ! C B B B B B B B B B B B B B B B B B B C ! ^ ^ ^ ",
"^ ^ ~ ( ,.2.2.,.( ~ ^ ^ ^ ^ ^ ^ ^ ^ / Q 0 5 5 0 W / ~ ) <.3.3.<.) ~ ^ ^ ^ ^ ^ ! V N B B B B B B B B B B B B B B B B N C ~ / ^ ^ ",
"^ ^ ~ ( ,.3.2.1.;.-.;.&.G A S S S S S A b c c v A S S S K L L K D S S S S S A G @.%.$.$.$.$.$.$.$.$.$.$.$.$.$.$.$.$.&.o.d y i i ",
"^ ^ ~ ( ,.3.2.2.3.3.5.>.Z M B N N N N N V C C V N N N N M M M M N N B N N B M Z <.5.4.4.4.4.4.4.4.4.4.4.4.4.4.4.4.4.6.;.0 2 4 4 ",
"^ ^ ~ ( ,.2.2.2.1.2.2.:.A B V V V B B V B B B B B B B B B V V B B B V B B B N A :.2.1.1.1.1.1.1.1.1.1.1.1.1.1.1.1.<.2.*.e 6 7 7 ",
"^ ^ ^ ) 1.5.4.4.3.3.4.>.Z N B B B B N N B B B B B B B B B B B B N B B B V C B D ,.4.3.3.3.3.3.3.4.4.4.4.4.4.4.3.5.4.7.:.0 3 5 4 ",
"W W W ! &.=.*.=.:.:.>.*.F Z A A A A A Z B B B B B B B B B B B B Z A A Z n b v B *.>.:.:.:.:.:.:.=.*.=.=.*.=.=.=.$.#.%...p e t r ",
"V V V V C V V Z ~ / / / ~ ~ ~ ~ ~ ~ ~ Q C N B B B B B B B B B C Q ~ ^ E w 6 6 q Q ( / / / / / ~ Z V V V V V C N q 8 7 e E ~ ~ ~ ",
"B B B B B B N C ! ^ ^ ^ ^ ^ ^ ^ ^ ^ ^ ! C N B B B B B B B B B C ! ^ / W 0 5 5 0 W / ~ ^ ^ ^ ^ ! V N B B B N B m 8 5 4 0 Q / ^ ^ ",
"V V V V V V B Z ! / ^ ^ ^ ^ ^ ^ ^ ^ ^ ! C N B B V V V V V V B Z ! ^ / W w 6 6 q W / ^ ^ ^ ^ ^ ~ Z V V V V V C N 0 7 7 w E ^ ~ ~ ",
"m m m m m m n N ! ^ ^ ^ ^ ^ ^ ^ ^ ^ ^ ! C N B B m m m m m m n M ! ^ / W 7 1 2 7 E / ^ ^ ^ ^ / ! N n m m m n m v 3 < , 6 ~ ` ) ) ",
"~ ~ ~ ~ ~ ~ ~ ~ ^ ^ ^ ^ ( ) ) ( ^ ^ ^ ! C B B C ! ^ ~ ~ ~ ~ ~ ~ ^ ^ / ! v z z v Q / ^ ^ ^ ^ ^ ^ ~ ~ ~ ~ ~ ~ ^ ! D A S A V V V V ",
"5.5.5.5.5.5.6.2.) ~ ^ / ` ` ` ` / ^ ^ ! C B N S 1.6.5.5.5.5.6.2.) ~ ^ ^ ) ) ) ) ^ ^ ^ ^ ^ ^ ~ ) 3.6.5.5.5.5.5.5.8.7.0.,.9 1 3 3 ",
"1.1.1.1.1.1.2.,.) ^ ^ ^ ` ` ` _ ^ ^ ^ ! C B N S :.2.1.1.1.1.2.,.) ~ ^ ^ ~ ~ ~ ~ ^ ^ ^ ^ ^ ^ ~ ( ,.2.1.1.1.1.1.1.1.<.2.=.w 5 7 7 ",
"2.2.2.2.2.2.2.,.) ^ ^ ^ ` ` ` _ ^ ^ ^ ! C B N S :.3.1.2.2.1.2.,.( ~ ^ ^ ^ ^ ^ ^ ^ ^ ^ ^ ^ ^ ~ ( ,.2.1.2.2.2.2.2.2.1.4.=.w 5 7 6 ",
"3.3.3.3.3.3.4.1.) ^ ^ ^ ' ' ' ` / / / ~ C B N S ,.5.4.5.5.4.5.2.) ^ / / ( ( ( ( / / / / / / ^ ) 1.5.4.5.5.5.5.4.3.3.5.;.0 2 4 3 ",
"{ { { { { { { { / ^ / ~ H G H G F F F D V B B V U Y T Y T T Y U G F F S g d d g S F F F F F F G U T Y T T T Y R [ { } ] J F G F ",
"! ! ! ! ! ! ! ! ^ ^ / ! B M N M M N N N B B B B m m m m m m m m M N B m 6 2 3 5 n B N N N N N M m m m m m m n N W ~ ! ! ( ) ) ) ",
"/ / / / / / / / ^ / / ! C B B B V B V V B B B B B V V V V V V V B B V M 0 6 6 0 M V V V V V V V V V V V V V V Z ~ / / ^ ~ ^ ^ ^ ",
"^ ^ ^ ^ ~ ~ ~ ~ ~ ~ ^ ! C B V V N N N N B B B B N B B B B B B B B B V M 7 4 4 7 m B N N N N N N N N N N N N M V Q ^ ~ ~ ~ ~ ~ ~ ",
"^ ^ ^ ^ ) ( ( ( ( ( ) ^ B m M M A S A A B B B B C C C C C C C C C C C B t w w t Z S A S S S S S S S S S S S A D / ) ( ( ( ( ( ( ",
"^ ^ ~ ( :.<.<.<.<.,.1.&.r 7 7 r &.,.>.=.A N B C W ! ! ! ! ! ! ! ! ! Q ^ *.;.-.;.:.>.>.>.>.>.>.>.>.>.>.>.>.>.:.:.<.<.<.<.<.<.<.<.",
"^ ^ ^ ( <.3.2.3.3.2.5.-.q 4 4 w :.4.3.,.S N B C ! / ^ ^ ^ ^ ^ ^ ^ / ^ ) 1.4.4.3.3.3.3.3.3.3.3.3.3.3.3.3.3.3.3.3.3.3.3.3.3.3.3.3.",
"^ ^ ~ ( >.2.1.1.1.1.3.=.e 5 5 e -.2.1.:.S N B C Q ^ ~ ^ ^ ^ ^ ^ ~ ~ ~ / >.2.1.1.1.1.1.1.1.1.1.1.1.1.1.1.1.1.1.1.2.2.2.2.1.1.1.1.",
"^ ^ ~ ) 2.6.5.5.5.5.7.:.q 3 3 q ,.7.5.1.S N B C ~ ( / / ^ ^ ^ ^ ) ) ) ` 1.5.4.4.4.4.4.4.5.5.5.5.5.5.5.5.5.5.5.5.2.2.2.2.4.4.4.4.",
"^ ^ ^ / o.O.O.O.O.o.+.} p t t a | O.O...A N B V Y T T R ^ ^ ^ ~ H G F J #.=.&.&.&.&.*.&.O.o.O.O.O.O.O.O.O.O.O.+.<.2.2.1.*.&.*.&.",
"^ ^ ^ ! B m M M M M m M V V V V M m M M B B B B N N N C ! ^ / E 9 3 3 8 R ^ ~ ~ ~ ~ ~ Q N m M M M M M M M M m Z :.3.2.,./ ! ~ ~ ",
"^ ^ ^ ! C B V V V V B B B B B B B V B B B B B B V V B C ! ^ / W q 6 6 0 W / ^ / ^ ^ / ! C B V V V V V V V V N S >.3.2.,.) ^ / ^ ",
"^ ^ ^ ! C B B B V B V B B B B B B B B B V V V V V V B Z ! ^ / E 0 5 5 0 E ^ ~ ^ / ^ / ! C B V V V V V V V V N S :.2.2.,.( ^ ^ ^ ",
"^ ^ ^ ! V M N M m m n m B B B B B B B B m m m m m m n N ^ ( ( Q 0 5 5 0 Q ( / / ! ! ! W N n m m m m m m N N m Z ,.5.4.1.( ^ ^ ^ ",
"^ ^ ^ ~ U I I Y [ { { ' C N B B B B N Z ' { [ { { [ { ] L H K F 9 5 6 8 D K H L O.#.@.+.} { { { { { { [ Y I I Y | ....../ ^ ^ ^ ",
"^ ^ ^ ^ / ( / _ 3.6.7.1.A N B B B B N A <.7.5.6.6.5.7.<.Z m N n 8 6 6 8 n N m Z <.5.3.4.6.5.6.6.6.5.6.3.` / ( / ! ! ! ! ^ ^ ^ ^ ",
"^ ^ ^ ^ ^ ^ ~ ( ,.2.2.:.A N B B B B N A ;.2.1.1.1.1.2.;.A N V M 9 6 6 9 M V N S :.3.1.1.1.1.1.1.1.1.2.,.) ~ ^ ^ ^ / / ^ ^ ^ ^ ^ ",
"^ ^ ^ ^ ^ ^ ~ ) <.3.3.>.Z N B B B B N A :.3.2.2.2.2.3.>.A N V m 8 5 5 8 m B M A >.3.2.2.2.2.2.2.2.2.3.<.) ~ ^ ^ ^ ^ ^ ^ ^ ^ ^ ^ ",
"~ ~ ~ ~ ^ ^ ~ ( >.1.2.:.A B V V B B N A ;.2.1.1.1.1.2.:.A N V M q 8 8 q N C B S :.2.1.1.1.1.1.1.1.1.2.,._ ^ / / / / / / ~ ~ ~ ~ ",
"r t r u W / ^ ^ _ ` ` _ Q W W E C B N V ) ` ` ` ` ` ` _ Q W W ! @.#.@.#.=.=.=.&.' _ ` ` ` ` ` ` ` ` _ ' -.:.:.:.:.:.,.%.p e t r ",
"5 5 3 8 E / ^ ^ ~ ~ ~ ~ / / / ~ C N N C Q ^ ~ ~ ~ ~ ~ ~ ^ / ^ _ 2.6.5.5.4.3.4.1./ ~ ~ ~ ~ ~ ~ ~ ~ ~ ! / <.4.3.3.3.3.5.-.q 3 5 5 ",
"7 7 6 q E / ~ ~ ^ ^ ^ ^ ~ ~ ^ Q C B B C ! ^ ^ ^ ^ ^ ^ ^ ~ ^ ~ ( ,.2.1.1.2.2.2.,.( ~ ^ ^ ^ ^ ^ ^ ^ ^ ~ ( >.2.1.1.1.1.3.=.e 6 7 7 ",
"3 4 3 8 W ( / / / / / / / / ( ~ C B B C ~ ( / / / / / / / / / _ ,.2.2.2.2.2.3.,.) / / / / / / / / / / ) 2.5.4.5.5.4.6.:.0 2 4 3 ",
"u i u a Y W E E E E E E E E W R V B B V T W E E E E E E E W E ! ,.2.2.2.2.2.3.,.Q E W E E E E E E W E Q #.%.$.%.%.$.&.o.d u i u ",
"^ ^ / ~ C N B B B B B B B B B B B B B B B B B B B B B B B B N A >.3.2.2.2.2.3.:.A N B B B B B B B B B B B B B B B B N C ~ / ^ ^ ",
"^ ^ ^ ! C N B B B B B B B B B B B B B B B B B B B B B B B B N A >.3.2.2.2.2.3.:.A N B B B B B B B B B B B B B B B B N C ! ^ ^ ^ ",
"^ ^ ^ ! Z B V V B B B B V V V V B B B B B B B B B B B B B B N A :.2.1.1.1.1.2.:.A N B B B B B B B B B B B B B V V V B Z ~ / ^ ^ ",
"^ ^ ^ ! N n m n M N N N m n n n N B B B M M M M M N M N B B N S 1.7.5.6.6.5.7.1.F V C C B B B B N N N N N N N M n m n N W ! ! ! ",
"^ ^ ^ ^ / / ( ^ J H G K ^ / ( ~ A V C Z I U U I K K K J V B B C _ ] ] ] ] ' ] ) k d f h N B B V J K K K K K K L ^ ( / ( X.o.o.o.",
"^ ^ ~ ( 3.6.6.3.^ Q Q / 3.6.6.1.G A A F ] } } { ( / ( ~ C B B B m n n n n n m v 6 4 4 7 m V N C ~ ( / ( ( ( / _ 3.6.5.5.4.4.4.4.",
"^ ^ ~ ( >.1.2.>.! E E ~ ,.1.2.:.G Z A D ` [ [ ] ^ ~ ^ ! C B B B V V V V V V V M 9 6 6 9 M V N C ! ^ ^ ^ ^ ~ ~ ( ,.2.1.1.2.2.2.2.",
"^ ^ ~ ( ,.3.3.,.! W W ~ <.2.3.>.G Z Z D ' { [ ] ^ ^ / ! C B B B B B B B B B V M 9 6 6 0 M V B C ! ^ ^ ^ ^ ^ ^ ) ,.2.2.2.2.2.2.2.",
"^ ^ ~ ( <.3.3.<.! E E ^ 1.4.4.<.H Z A D ' { [ [ / ^ / ~ C B B B N N N N N N B m 7 3 3 6 n N M V ! ^ ^ ^ / ^ ^ _ 1.4.3.3.3.3.2.2.",
"^ ^ ^ / ] [ [ ] ^ ~ ~ ! U I I P C V V V G G G G D D D D B B B C Y R R R R R T E [ } } | +.@.@.O.( ^ ^ ~ G D D F I U I Y ] [ [ [ ",
"^ ^ ^ ^ ~ ! ! ! ^ ^ / ! N m m M B B B B M M M M N N N N B B B C ~ ( / / / / ^ _ 3.7.6.6.5.4.5.2.) ~ / ! V M N N m m m N Q ~ ! ! ",
"^ ^ ^ ^ / ^ ^ ^ ^ ^ / ! C B V B B B B B B B B V V V V V B B B C ! ^ ~ ~ ~ ^ ~ ( ,.2.1.1.2.1.2.,.( ~ / ! Z B V V V V B Z ~ / ^ ^ ",
"^ ^ ^ ^ ^ ^ ^ ^ ^ ^ / ! C B B B B B B B B B B B B B B B B B B C ! ^ ^ ^ ^ ^ ~ ( ,.3.2.2.2.2.3.,.( ~ / ! C N B B B B B C ! ^ ^ ^ "
};
